<svg xmlns="http://www.w3.org/2000/svg" xmlns:xlink="http://www.w3.org/1999/xlink" version="1.1" id="Layer_1" x="0px" y="0px" width="100.0px" height="100px" viewBox="0 0 216 216" enable-background="new 0 0 216 216" xml:space="preserve">
<path fill="none" stroke="#000000" stroke-width="3" stroke-miterlimit="10" d="M123.688,54.125c-1.16,0-2.266,0.229-3.282,0.634  c0.015-0.21,0.032-0.42,0.032-0.634c0-5.04-4.085-9.125-9.125-9.125s-9.125,4.085-9.125,9.125c0,0.3,0.017,0.596,0.045,0.889  c-1.02-0.409-2.13-0.639-3.295-0.639c-4.901,0-8.875,3.974-8.875,8.875c0,1.076,0.201,2.102,0.554,3.054  C96.761,71.715,101,83.203,101,96.5c0,6.865-1.141,13.232-3.08,18.544c-1.64,2.364-2.685,5.173-2.887,8.218  c4.652-3.155,10.256-5.012,16.302-5.012s11.65,1.857,16.303,5.012c-0.202-3.051-1.25-5.865-2.896-8.232  c-1.936-5.31-3.075-11.672-3.075-18.531c0-13.135,4.14-24.499,10.163-29.989c0.467-1.077,0.732-2.261,0.732-3.511  C132.562,58.099,128.589,54.125,123.688,54.125z"/>
<circle fill="none" stroke="#000000" stroke-width="3" stroke-miterlimit="10" cx="138.391" cy="102.833" r="9.5"/>
<ellipse fill="none" stroke="#000000" stroke-width="3" stroke-miterlimit="10" cx="136.391" cy="102.5" rx="3.719" ry="5.167"/>
<circle fill="none" stroke="#000000" stroke-width="3" stroke-miterlimit="10" cx="85.376" cy="102.833" r="9.5"/>
<ellipse fill="none" stroke="#000000" stroke-width="3" stroke-miterlimit="10" cx="87.376" cy="102.5" rx="3.719" ry="5.167"/>
<path fill="none" stroke="#000000" stroke-width="3" stroke-miterlimit="10" d="M137.294,134.174  c-4.814-9.449-14.628-15.924-25.959-15.924s-21.145,6.476-25.959,15.924c14.596,1.579,25.959,13.936,25.959,28.951  C111.335,148.11,122.698,135.753,137.294,134.174z"/>
<path fill="none" stroke="#000000" stroke-width="3" stroke-miterlimit="10" d="M88.09,134.599  c-0.857,15.282-6.208,28.853-8.738,34.494c-1.179,1.626-1.882,3.621-1.882,5.783c0,5.454,4.421,9.875,9.875,9.875  s9.875-4.421,9.875-9.875L97.282,173v-34.789C94.489,136.518,91.394,135.276,88.09,134.599z"/>
<path fill="none" stroke="#000000" stroke-width="3" stroke-miterlimit="10" d="M143.431,169.092  c-2.531-5.643-7.886-19.224-8.74-34.515c-3.3,0.664-6.396,1.889-9.19,3.565V173l0.062,1.875c0,5.454,4.421,9.875,9.875,9.875  s9.875-4.421,9.875-9.875C145.312,172.713,144.609,170.719,143.431,169.092z"/>
<path fill="none" stroke="#000000" stroke-width="3" stroke-miterlimit="10" d="M167.17,126.545  c-5.237-4.9-11.17-12.17-13.589-21.433c-0.13-0.034-0.253-1.069-0.384-1.103c-2.716-14.424-12.564-26.329-25.743-31.907  c-3.559,6.108-5.787,14.771-5.787,24.396c0,6.859,1.14,13.221,3.075,18.531c1.646,2.367,2.693,5.181,2.896,8.232  c-4.652-3.155-10.257-5.012-16.303-5.012s-11.649,1.857-16.302,5.012c0.202-3.045,1.247-5.854,2.887-8.218  c1.939-5.312,3.08-11.68,3.08-18.544c0-9.917-2.359-18.823-6.107-24.958c-12.361,4.652-22.812,14.936-26.519,30.399  c-2.374,11.184-8.999,20.684-14.697,24.914c0.076,0.027-0.852,1.055-0.774,1.082c-2.706,3.848-4.205,8.029-4.205,12.407  c0,12.511,12.118,23.452,30.204,29.43c0.142-0.233,0.29-0.462,0.45-0.682c2.53-5.641,7.881-19.211,8.738-34.494  c3.304,0.677,6.399,1.919,9.192,3.612V173l-0.026,0.798c4.287,0.521,8.736,0.803,13.307,0.803c5.159,0,10.166-0.355,14.957-1.014  L125.5,173v-34.857c2.795-1.676,5.891-2.901,9.19-3.565c0.854,15.291,6.209,28.872,8.74,34.515c0.051,0.071,0.097,0.146,0.146,0.218  c17.332-6.07,28.852-16.77,28.852-28.966C172.428,135.431,170.536,130.768,167.17,126.545z"/>
</svg>