<svg xmlns="http://www.w3.org/2000/svg" xmlns:xlink="http://www.w3.org/1999/xlink" version="1.1" x="0px" y="0px" width="100px" height="100px" viewBox="0 0 100 100" enable-background="new 0 0 100 100" xml:space="preserve">
<g id="Captions">
</g>
<g id="Your_Icon" fill="white">
	<g>
		<ellipse cx="50.747" cy="27.413" rx="12.446" ry="6.688"/>
		<path d="M50.748,36.363c-6.834,0-12.51-2.585-13.713-5.999v5.388c1.203,3.413,6.879,5.997,13.713,5.997    c6.831,0,12.506-2.583,13.71-5.997v-5.388C63.254,33.778,57.579,36.363,50.748,36.363z"/>
		<path d="M50.748,44.737c-6.834,0-12.51-2.585-13.713-5.997v5.387c1.203,3.412,6.879,5.996,13.713,5.996    c6.831,0,12.506-2.584,13.71-5.996V38.74C63.254,42.152,57.579,44.737,50.748,44.737z"/>
		<path d="M50.748,53.111c-6.834,0-12.51-2.587-13.713-6v5.386c1.203,3.413,6.879,5.999,13.713,5.999    c6.831,0,12.506-2.586,13.71-5.999v-5.386C63.254,50.524,57.579,53.111,50.748,53.111z"/>
		<path d="M50.748,61.482c-6.834,0-12.51-2.585-13.713-5.998v5.389c1.203,3.41,6.879,5.996,13.713,5.996    c6.831,0,12.506-2.586,13.71-5.996v-5.389C63.254,58.897,57.579,61.482,50.748,61.482z"/>
		<path d="M50.583,69.855c-6.833,0-12.508-2.585-13.713-5.998v5.389c1.205,3.41,6.88,5.996,13.713,5.996s12.508-2.586,13.71-5.996    v-5.389C63.091,67.271,57.416,69.855,50.583,69.855z"/>
		<ellipse cx="80.288" cy="44.973" rx="12.447" ry="6.689"/>
		<path d="M80.287,53.924c-6.831,0-12.506-2.585-13.709-5.998v5.386c1.203,3.412,6.878,5.998,13.709,5.998    c6.832,0,12.51-2.586,13.713-5.998v-5.386C92.797,51.339,87.119,53.924,80.287,53.924z"/>
		<path d="M80.287,62.298c-6.831,0-12.506-2.586-13.709-5.999v5.387c1.203,3.412,6.878,5.998,13.709,5.998    c6.832,0,12.51-2.586,13.713-5.998v-5.387C92.797,59.712,87.119,62.298,80.287,62.298z"/>
		<path d="M80.287,70.669c-6.831,0-12.506-2.584-13.709-5.997v5.387c1.203,3.413,6.878,5.998,13.709,5.998    c6.832,0,12.51-2.585,13.713-5.998v-5.387C92.797,68.085,87.119,70.669,80.287,70.669z"/>
		<ellipse cx="20.714" cy="60.891" rx="12.446" ry="6.69"/>
		<path d="M20.715,69.844c-6.834,0-12.51-2.586-13.713-5.998v5.386c1.203,3.413,6.879,5.999,13.713,5.999    c6.831,0,12.506-2.586,13.709-5.999v-5.386C33.221,67.258,27.546,69.844,20.715,69.844z"/>
		<path d="M20.715,78.217c-6.834,0-12.51-2.586-13.713-5.998v5.386c1.203,3.413,6.879,5.999,13.713,5.999    c6.831,0,12.506-2.586,13.709-5.999v-5.386C33.221,75.631,27.546,78.217,20.715,78.217z"/>
		<path d="M20.715,86.59c-6.834,0-12.51-2.585-13.713-5.998v5.387c1.203,3.412,6.879,5.998,13.713,5.998    c6.831,0,12.506-2.586,13.709-5.998v-5.387C33.221,84.005,27.546,86.59,20.715,86.59z"/>
	</g>
</g>
</svg>