<svg xmlns="http://www.w3.org/2000/svg" xmlns:xlink="http://www.w3.org/1999/xlink" version="1.1" id="Your_Icon" x="0px" y="0px" width="100px" height="100px" viewBox="0 0 100 100" enable-background="new 0 0 100 100" xml:space="preserve">
<g>
	<path d="M76.175,63.917c0-2.233-2.938-3.917-6.833-3.917c-3.896,0-6.834,1.684-6.834,3.917c0,0.724,0.313,1.389,0.863,1.958   c-0.55,0.57-0.863,1.234-0.863,1.958c0,2.233,2.938,3.917,6.834,3.917c3.896,0,6.833-1.684,6.833-3.917   c0-0.724-0.313-1.389-0.863-1.958C75.862,65.306,76.175,64.641,76.175,63.917z M69.342,62c2.906,0,4.833,1.154,4.833,1.917   s-1.928,1.917-4.833,1.917s-4.834-1.154-4.834-1.917S66.436,62,69.342,62z M74.175,67.834c0,0.763-1.928,1.917-4.833,1.917   s-4.834-1.153-4.834-1.917c0-0.246,0.219-0.532,0.589-0.808c1.151,0.508,2.612,0.808,4.245,0.808c1.634,0,3.094-0.299,4.245-0.808   C73.956,67.302,74.175,67.588,74.175,67.834z"/>
	<path d="M53.631,26.665c-3.896,0-6.833,1.684-6.833,3.917c0,0.724,0.313,1.389,0.863,1.958c-0.55,0.57-0.863,1.235-0.863,1.959   c0,0.724,0.313,1.388,0.863,1.958c-0.55,0.57-0.863,1.234-0.863,1.958c0,0.724,0.313,1.389,0.863,1.958   c-0.55,0.57-0.863,1.234-0.863,1.958s0.313,1.389,0.863,1.958c-0.55,0.57-0.863,1.234-0.863,1.958s0.313,1.389,0.863,1.958   c-0.55,0.57-0.863,1.235-0.863,1.959c0,0.724,0.313,1.388,0.863,1.958c-0.55,0.57-0.863,1.234-0.863,1.958   c0,0.724,0.313,1.389,0.863,1.958c-0.55,0.57-0.863,1.234-0.863,1.958c0,0.056,0.01,0.109,0.014,0.164   c-0.382-0.066-0.772-0.108-1.173-0.108c-0.276,0-0.546,0.021-0.814,0.053c0.002-0.037,0.009-0.072,0.009-0.109   c0-0.724-0.313-1.389-0.863-1.958c0.55-0.57,0.863-1.234,0.863-1.958c0-0.724-0.313-1.388-0.863-1.958   c0.55-0.57,0.863-1.234,0.863-1.958c0-0.724-0.313-1.389-0.863-1.959c0.55-0.57,0.863-1.234,0.863-1.958   c0-2.233-2.938-3.917-6.833-3.917s-6.833,1.684-6.833,3.917c0,0.724,0.313,1.389,0.863,1.958c-0.55,0.57-0.863,1.235-0.863,1.959   c0,0.724,0.313,1.388,0.863,1.958c-0.55,0.57-0.863,1.234-0.863,1.958c0,0.724,0.313,1.389,0.863,1.958   c-0.55,0.57-0.863,1.234-0.863,1.958s0.313,1.389,0.863,1.958c-0.55,0.57-0.863,1.234-0.863,1.958c0,0.724,0.313,1.388,0.863,1.958   c-0.55,0.57-0.863,1.234-0.863,1.958c0,2.233,2.938,3.917,6.833,3.917c0.927,0,1.797-0.098,2.588-0.273   c1.251,1.376,3.048,2.246,5.05,2.246c2.035,0,3.86-0.899,5.113-2.316c0.867,0.219,1.837,0.343,2.879,0.343   c3.896,0,6.834-1.684,6.834-3.917c0-0.724-0.313-1.388-0.863-1.958c0.55-0.57,0.863-1.234,0.863-1.958   c0-0.724-0.313-1.389-0.863-1.958c0.55-0.57,0.863-1.234,0.863-1.958s-0.313-1.389-0.863-1.958c0.55-0.57,0.863-1.234,0.863-1.958   c0-0.724-0.313-1.388-0.863-1.958c0.55-0.57,0.863-1.234,0.863-1.958c0-0.724-0.313-1.389-0.863-1.959   c0.55-0.57,0.863-1.234,0.863-1.958s-0.313-1.389-0.863-1.958c0.55-0.57,0.863-1.234,0.863-1.958s-0.313-1.389-0.863-1.958   c0.55-0.57,0.863-1.234,0.863-1.958c0-0.724-0.313-1.388-0.863-1.958c0.55-0.57,0.863-1.234,0.863-1.958   c0-0.724-0.313-1.389-0.863-1.959c0.55-0.57,0.863-1.234,0.863-1.958C60.465,28.349,57.527,26.665,53.631,26.665z M53.631,28.665   c2.906,0,4.834,1.154,4.834,1.917s-1.928,1.917-4.834,1.917s-4.833-1.153-4.833-1.917S50.725,28.665,53.631,28.665z M38,44.333   c2.906,0,4.833,1.154,4.833,1.917S40.906,48.166,38,48.166s-4.833-1.153-4.833-1.917S35.094,44.333,38,44.333z M38,50.166   c1.633,0,3.094-0.299,4.245-0.807c0.37,0.276,0.589,0.562,0.589,0.808c0,0.763-1.928,1.917-4.833,1.917s-4.833-1.153-4.833-1.917   c0-0.246,0.219-0.532,0.589-0.808C34.906,49.867,36.367,50.166,38,50.166z M38,54.083c1.634,0,3.094-0.299,4.245-0.807   c0.369,0.276,0.588,0.561,0.588,0.807C42.833,54.846,40.906,56,38,56s-4.833-1.154-4.833-1.917c0-0.246,0.219-0.532,0.589-0.807   C34.906,53.784,36.366,54.083,38,54.083z M38,58c1.634,0,3.094-0.299,4.245-0.808c0.369,0.276,0.589,0.561,0.589,0.808   c0,0.763-1.928,1.917-4.833,1.917S33.167,58.763,33.167,58c0-0.246,0.219-0.532,0.589-0.808C34.906,57.701,36.366,58,38,58z    M38,61.917c0.534,0,1.047-0.034,1.54-0.095c-0.308,0.61-0.525,1.27-0.639,1.967c-0.29,0.025-0.587,0.044-0.902,0.044   c-2.906,0-4.833-1.153-4.833-1.917c0-0.246,0.219-0.532,0.589-0.808C34.906,61.618,36.366,61.917,38,61.917z M38,67.75   c-2.906,0-4.833-1.154-4.833-1.917c0-0.246,0.219-0.532,0.589-0.807c1.151,0.508,2.611,0.807,4.245,0.807   c0.298,0,0.587-0.013,0.873-0.032c0.087,0.648,0.262,1.268,0.518,1.846C38.955,67.707,38.498,67.75,38,67.75z M45.638,69.723   c-2.665,0-4.833-2.168-4.833-4.833s2.168-4.833,4.833-4.833s4.833,2.168,4.833,4.833S48.303,69.723,45.638,69.723z M58.465,65.833   c0,0.763-1.928,1.917-4.834,1.917c-0.626,0-1.196-0.062-1.721-0.153c0.248-0.572,0.415-1.185,0.498-1.825   c0.396,0.038,0.802,0.061,1.223,0.061c1.634,0,3.095-0.299,4.245-0.807C58.246,65.302,58.465,65.587,58.465,65.833z M58.465,61.917   c0,0.763-1.928,1.917-4.834,1.917c-0.448,0-0.864-0.035-1.262-0.084c-0.119-0.702-0.342-1.368-0.658-1.981   c0.606,0.095,1.248,0.148,1.921,0.148c1.634,0,3.095-0.299,4.245-0.808C58.246,61.385,58.465,61.671,58.465,61.917z M58.465,58   c0,0.763-1.928,1.917-4.834,1.917S48.797,58.763,48.797,58c0-0.246,0.219-0.532,0.589-0.808C50.537,57.701,51.997,58,53.631,58   c1.634,0,3.095-0.299,4.245-0.808C58.246,57.468,58.465,57.754,58.465,58z M58.465,54.083c0,0.763-1.928,1.917-4.834,1.917   s-4.833-1.154-4.833-1.917c0-0.246,0.219-0.532,0.589-0.807c1.151,0.508,2.611,0.807,4.245,0.807c1.634,0,3.095-0.299,4.245-0.807   C58.246,53.551,58.465,53.837,58.465,54.083z M58.465,50.167c0,0.763-1.928,1.917-4.834,1.917s-4.833-1.153-4.833-1.917   c0-0.246,0.219-0.532,0.589-0.808c1.151,0.508,2.611,0.807,4.245,0.807c1.634,0,3.094-0.299,4.245-0.807   C58.246,49.634,58.465,49.92,58.465,50.167z M58.465,46.25c0,0.763-1.928,1.917-4.834,1.917s-4.833-1.153-4.833-1.917   c0-0.246,0.219-0.532,0.589-0.808c1.151,0.509,2.611,0.808,4.245,0.808c1.634,0,3.095-0.299,4.245-0.808   C58.246,45.718,58.465,46.003,58.465,46.25z M58.465,42.333c0,0.763-1.928,1.917-4.834,1.917s-4.833-1.154-4.833-1.917   c0-0.246,0.219-0.532,0.589-0.808c1.151,0.509,2.611,0.808,4.245,0.808c1.634,0,3.095-0.299,4.245-0.808   C58.246,41.801,58.465,42.086,58.465,42.333z M58.465,38.416c0,0.763-1.928,1.917-4.834,1.917s-4.833-1.154-4.833-1.917   c0-0.246,0.219-0.532,0.589-0.807c1.151,0.508,2.611,0.807,4.245,0.807c1.634,0,3.095-0.299,4.245-0.807   C58.246,37.884,58.465,38.169,58.465,38.416z M58.465,34.499c0,0.763-1.928,1.917-4.834,1.917s-4.833-1.153-4.833-1.917   c0-0.246,0.219-0.532,0.589-0.808c1.151,0.508,2.611,0.807,4.245,0.807c1.634,0,3.094-0.299,4.245-0.807   C58.246,33.967,58.465,34.253,58.465,34.499z"/>
</g>
</svg>