<svg xmlns="http://www.w3.org/2000/svg" xmlns:xlink="http://www.w3.org/1999/xlink" version="1.1" x="0px" y="0px" width="100px" height="100px" viewBox="0 0 100 100" enable-background="new 0 0 100 100" xml:space="preserve">
<g id="Captions" display="none">
	<rect x="-192" display="inline" width="185" height="99"/>
	<rect y="-36" display="inline" width="100" height="30"/>
	<text transform="matrix(1 0 0 1 66 -19.5)" display="inline" fill="#000000" font-family="'Helvetica'" font-size="2.4">http://thenounproject.com</text>
	<text transform="matrix(1 0 0 1 7.166 -24.5)" display="inline"><tspan x="0" y="0" fill="#000000" font-family="'Helvetica-Bold'" font-size="6.1578">The Noun Project</tspan><tspan x="1.12" y="4.8" fill="#000000" font-family="'Helvetica-Bold'" font-size="4">Icon Template</tspan></text>
	
		<text transform="matrix(1 0 0 1 -178.5 10.5)" display="inline" fill="#000000" font-family="'Helvetica-Bold'" font-size="6.1578">Reminders</text>
	<line display="inline" fill="#000000" stroke="#FFFFFF" stroke-miterlimit="10" x1="8" y1="-14.5" x2="18" y2="-14.5"/>
	<line display="inline" fill="#000000" stroke="#FFFFFF" stroke-miterlimit="10" x1="-179" y1="16.5" x2="-162" y2="16.5"/>
	<g display="inline">
		<g>
			<g>
				<rect x="-170.802" y="31.318" fill="#000000" width="8.721" height="8.642"/>
				<path fill="#000000" d="M-164.455,42.312h4.747v-4.703h-4.747V42.312z M-159.266,42.749h-5.63V37.17h5.63V42.749      L-159.266,42.749z M-166.221,44.062h8.279v-8.203h-8.279V44.062L-166.221,44.062z M-157.5,44.5h-9.163v-9.079h9.163V44.5      L-157.5,44.5z"/>
				<polygon fill="#000000" points="-166.149,44.133 -166.292,43.991 -158.013,35.787 -157.871,35.929     "/>
			</g>
		</g>
	</g>
	<rect x="-179" y="58" display="inline" fill="none" width="35" height="32.5"/>
	<text transform="matrix(1 0 0 1 -179 60.1572)" display="inline"><tspan x="0" y="0" fill="#000000" font-family="'Helvetica-Bold'" font-size="3">Strokes</tspan><tspan x="0" y="5" fill="#000000" font-family="'Helvetica'" font-size="2.4">Try to keep strokes at 4px</tspan><tspan x="0" y="10" fill="#000000" font-family="'Helvetica'" font-size="2.4">Minimum stroke weight is 2px</tspan><tspan x="0" y="14.5" fill="#000000" font-family="'Helvetica'" font-size="2.4">For thicker strokes use even </tspan><tspan x="0" y="17.5" fill="#000000" font-family="'Helvetica'" font-size="2.4">numbers: 6px, 8px etc.</tspan><tspan x="0" y="22" fill="#000000" font-family="'Helvetica-Bold'" font-size="2.4">Remember to expand strokes </tspan><tspan x="0" y="25" fill="#000000" font-family="'Helvetica-Bold'" font-size="2.4">before saving as an SVG </tspan></text>
	<rect x="-136.5" y="58" display="inline" fill="none" width="35" height="32.5"/>
	<text transform="matrix(1 0 0 1 -136.5 60.1572)" display="inline"><tspan x="0" y="0" fill="#000000" font-family="'Helvetica-Bold'" font-size="3">Size</tspan><tspan x="0" y="5" fill="#000000" font-family="'Helvetica'" font-size="2.4">Cannot be wider or taller than </tspan><tspan x="0" y="8.5" fill="#000000" font-family="'Helvetica'" font-size="2.4">100px (artboard size)</tspan><tspan x="0" y="13.5" fill="#000000" font-family="'Helvetica'" font-size="2.4">Scale your icon to fill as much of </tspan><tspan x="0" y="16.5" fill="#000000" font-family="'Helvetica'" font-size="2.4">the artboard as possible</tspan></text>
	<rect x="-94" y="58" display="inline" fill="none" width="35" height="32.5"/>
	<text transform="matrix(1 0 0 1 -94 60.1572)" display="inline"><tspan x="0" y="0" fill="#000000" font-family="'Helvetica-Bold'" font-size="3">Ungroup</tspan><tspan x="0" y="5" fill="#000000" font-family="'Helvetica'" font-size="2.4">If your design has more than one </tspan><tspan x="0" y="8" fill="#000000" font-family="'Helvetica'" font-size="2.4">shape, make sure to ungroup</tspan></text>
	<rect x="-50" y="58" display="inline" fill="none" width="35" height="32.5"/>
	<text transform="matrix(1 0 0 1 -50 60.1572)" display="inline"><tspan x="0" y="0" fill="#000000" font-family="'Helvetica-Bold'" font-size="3">Save as</tspan><tspan x="0" y="5" fill="#000000" font-family="'Helvetica'" font-size="2.4">Save as .SVG and make sure </tspan><tspan x="0" y="8" fill="#000000" font-family="'Helvetica'" font-size="2.4">&#8220;Use Artboards&#8221; is checked</tspan></text>
	
		<text transform="matrix(1.0074 0 0 1 -125.542 30.5933)" display="inline" fill="#000000" font-family="'Helvetica'" font-size="2.5731">100px</text>
	
		<text transform="matrix(1.0074 0 0 1 -41 39)" display="inline" fill="#000000" font-family="'Helvetica-Bold'" font-size="5.1462">.SVG</text>
	<rect x="-126.514" y="34.815" display="inline" fill="#000000" width="10.261" height="10.185"/>
	<rect x="-126.477" y="31.766" display="inline" fill="#000000" width="0.522" height="2.337"/>
	<rect x="-116.812" y="31.766" display="inline" fill="#000000" width="0.523" height="2.337"/>
	<rect x="-127" y="32.337" display="inline" fill="#000000" width="11.233" height="0.572"/>
	<g display="inline">
		<rect x="-83.805" y="33.844" fill="#000000" width="10.305" height="10.156"/>
		<rect x="-76.809" y="28.707" fill="#000000" width="3.308" height="3.261"/>
	</g>
	<rect x="-178.5" y="22.5" display="inline" fill="#000000" stroke="#FFFFFF" stroke-miterlimit="10" width="30" height="30"/>
	<rect x="-136.5" y="22.5" display="inline" fill="#000000" stroke="#FFFFFF" stroke-miterlimit="10" width="30" height="30"/>
	<rect x="-93.5" y="22.5" display="inline" fill="#000000" stroke="#FFFFFF" stroke-miterlimit="10" width="30" height="30"/>
	<rect x="-49.5" y="22.5" display="inline" fill="#000000" stroke="#FFFFFF" stroke-miterlimit="10" width="30" height="30"/>
</g>
<g id="Your_Icon">
	<g>
		<circle cx="42.558" cy="50.607" r="2.176"/>
		<circle cx="56.612" cy="50.607" r="2.176"/>
		<path d="M87.25,8.97C79.52,3.55,73.3,2.13,68.77,4.72c-7.13,4.09-7.39,16.86-7.25,21.36c-3.399-1.37-7.489-2.06-12.229-2.06    c-4.91,0-9.11,0.74-12.54,2.22c0.15-4.35-0.03-17.38-7.24-21.52c-4.53-2.59-10.75-1.17-18.49,4.25    c-8.61,6.02-11.8,12.05-9.46,17.91c3.46,8.66,18.3,13.44,24.38,13.74c-0.22,1.38-0.32,2.84-0.32,4.37    c0,8.84,3.96,20.08,8.98,29.21c-3.5-0.29-7.35,0.06-10.36,2.05c-0.46,0.31-0.59,0.93-0.28,1.39c0.3,0.46,0.92,0.591,1.38,0.28    c2.94-1.95,6.99-2.03,10.49-1.56c0.539,0.907,1.078,1.796,1.637,2.645c-4.003,0.033-8.773,0.757-12.119,3.461    c-0.43,0.347-0.497,0.977-0.149,1.406c0.198,0.244,0.487,0.371,0.778,0.371c0.221,0,0.443-0.072,0.628-0.223    c3.268-2.64,8.316-3.105,12.232-2.985c0.001,0.002,0.002,0.004,0.003,0.005c0.52,0.76,1.06,1.49,1.59,2.18l0,0    c-4.333,0.467-10.135,1.866-13.306,5.876c-0.343,0.433-0.27,1.062,0.164,1.404c0.184,0.146,0.402,0.216,0.62,0.216    c0.295,0,0.587-0.13,0.785-0.38c3.044-3.849,9.231-4.94,13.282-5.231c0.001,0.002,0.003,0.004,0.005,0.006    c1.22,1.399,2.41,2.59,3.56,3.51c0.004,0.003,0.008,0.006,0.012,0.009c-0.281,0.585-0.451,1.233-0.451,1.926    c0,2.478,2.007,4.483,4.482,4.483c2.476,0,4.482-2.006,4.482-4.483c0-0.423-0.077-0.823-0.187-1.211    c0.007-0.005,0.015-0.009,0.021-0.014c1.56-1.09,3.18-2.73,4.749-4.679c4.034,0.249,10.523,1.287,13.663,5.258    c0.197,0.25,0.489,0.38,0.785,0.38c0.217,0,0.436-0.07,0.619-0.216c0.434-0.343,0.507-0.972,0.164-1.404    c-3.286-4.155-9.394-5.507-13.768-5.923c0.499-0.679,0.998-1.387,1.477-2.116c3.983-0.185,9.379,0.191,12.812,2.965    c0.186,0.15,0.407,0.223,0.628,0.223c0.292,0,0.581-0.127,0.778-0.371c0.348-0.43,0.28-1.06-0.148-1.406    c-3.528-2.851-8.635-3.5-12.758-3.462c0.529-0.849,1.039-1.709,1.519-2.568c3.66-0.59,8.09-0.64,11.25,1.45    c0.46,0.31,1.08,0.18,1.38-0.28c0.311-0.46,0.181-1.08-0.28-1.39c-3.25-2.14-7.46-2.38-11.17-1.96    c5.061-9.67,7.95-19.75,7.95-27.89c0-1.89-0.149-3.66-0.45-5.32c5.75-0.21,20.37-4.93,23.78-13.48    C99.25,21.21,96.01,15.09,87.25,8.97z M4.35,25.76c-1.76-4.39,1.07-9.21,8.39-14.34c6.7-4.68,11.84-6.06,15.27-4.1    c5.71,3.28,6.04,15.62,5.68,20.09c-0.01,0.16,0,0.31,0.03,0.45c-1.02,0.66-1.95,1.42-2.79,2.26c-2.02,2.04-3.47,4.56-4.34,7.52    C22.46,37.75,7.39,33.37,4.35,25.76z M61.78,74.47c-2.69,0.62-4.601,1.36-4.8,1.44c-0.511,0.21-0.761,0.79-0.561,1.3    c0.16,0.39,0.53,0.63,0.93,0.63c0.12,0,0.25-0.02,0.37-0.07c0.03-0.01,1.04-0.409,2.61-0.85c-0.389,0.649-0.799,1.278-1.188,1.878    c-1.771,0.187-2.963,0.429-3.117,0.461c-0.541,0.113-0.887,0.643-0.773,1.184s0.645,0.889,1.184,0.773    c0.022-0.005,0.445-0.091,1.156-0.197c-0.001,0-0.001,0.001-0.001,0.001c-0.39,0.551-0.79,1.061-1.17,1.551l-0.001,0.001    c-0.775,0.002-1.274,0.028-1.373,0.034c-0.551,0.033-0.971,0.507-0.938,1.058c0.024,0.407,0.282,0.741,0.644,0.875    c-0.001,0.001-0.002,0.001-0.002,0.002c-0.93,1.01-1.8,1.82-2.56,2.36c-0.005,0.004-0.01,0.006-0.015,0.01    c-0.732-0.522-1.624-0.837-2.592-0.837c-0.68,0-1.317,0.163-1.895,0.434c-0.003-0.003-0.006-0.005-0.009-0.007    c-0.51-0.4-1.06-0.91-1.64-1.49c-0.003-0.003-0.007-0.007-0.01-0.011c0.46-0.068,0.839-0.424,0.868-0.909    c0.033-0.551-0.387-1.024-0.938-1.058c-0.112-0.007-0.75-0.04-1.73-0.032l0,0c-0.429-0.508-0.867-1.046-1.305-1.624    c1.005,0.137,1.622,0.262,1.648,0.268c0.541,0.115,1.071-0.232,1.184-0.773c0.113-0.541-0.233-1.07-0.773-1.184    c-0.17-0.035-1.602-0.326-3.68-0.517c-0.438-0.627-0.886-1.293-1.324-1.979c1.96,0.52,3.27,1.029,3.31,1.04    c0.12,0.05,0.24,0.069,0.37,0.069c0.39,0,0.77-0.24,0.93-0.63c0.2-0.51-0.05-1.09-0.56-1.3c-0.22-0.08-2.48-0.97-5.57-1.601    C33.32,66.2,28.62,54.78,28.62,44.99c0-11.92,6.95-17.97,20.67-17.97c7.55,0,13.16,1.85,16.69,5.51    c3.029,3.14,4.569,7.66,4.569,13.41C70.55,55.49,66.43,66.25,61.78,74.47z M94.1,26.03c-2.93,7.32-17.779,12.03-21.75,11.59    c-0.899-2.8-2.31-5.2-4.22-7.18c-1.04-1.08-2.22-2.02-3.54-2.82c0.01-0.07,0.01-0.14,0-0.21c-0.359-4.47-0.05-16.81,5.67-20.08    c3.44-1.97,8.57-0.59,15.271,4.09C93,16.65,95.88,21.56,94.1,26.03z"/>
		<path d="M79.83,16.842c-2.788-1.977-4.949-1.696-6.271-1.112c-4.566,2.02-5.717,10.44-5.833,11.394    c-0.1,0.822,0.485,1.57,1.308,1.67c0.823,0.108,1.57-0.485,1.671-1.308c0.24-1.978,1.505-7.878,4.068-9.012    c0.331-0.147,1.337-0.592,3.323,0.815c2.407,1.707,3.819,4.809,3.283,7.216c-0.621,2.787-3.632,3.891-6.047,4.326    c-0.815,0.146-1.357,0.927-1.211,1.742c0.131,0.726,0.763,1.235,1.475,1.235c0.089,0,0.178-0.008,0.268-0.024    c6.315-1.137,8.001-4.64,8.443-6.626C85.209,23.108,82.737,18.903,79.83,16.842z"/>
		<path d="M24.717,15.73c-1.322-0.586-3.483-0.867-6.272,1.112c-2.907,2.061-5.378,6.266-4.476,10.315    c0.442,1.987,2.128,5.489,8.442,6.626c0.09,0.017,0.18,0.024,0.268,0.024c0.712,0,1.344-0.509,1.474-1.234    c0.147-0.815-0.395-1.596-1.21-1.742c-2.416-0.435-5.425-1.539-6.046-4.326c-0.536-2.407,0.875-5.509,3.282-7.216    c1.985-1.407,2.991-0.962,3.322-0.816c2.281,1.007,3.708,6.064,4.072,9.015c0.101,0.822,0.849,1.406,1.671,1.306    c0.822-0.101,1.407-0.848,1.306-1.67C30.435,26.17,29.284,17.75,24.717,15.73z"/>
	</g>
</g>
</svg>