<svg xmlns="http://www.w3.org/2000/svg" width="100" height="100" viewBox="-7.98 -6.259 100 100" enable-background="new -7.98 -6.259 100 100"><path d="M65.66 56.45c-4.043 0-7.695 1.556-10.324 4.061-2.404-1.664-5.365-2.659-8.582-2.659-2.933 0-5.656.823-7.938 2.228-2.584-2.245-6.032-3.629-9.832-3.629l-.367.018c-.178-.74-.416-1.457-.716-2.146 1.71-1.021 3.181-2.36 4.304-3.942.017.515.397.929.869.929h3.112c.483 0 .875-.431.875-.962s-.392-.961-.875-.961h-.694v-3.868c.71-.151 1.4-.353 2.066-.599v1.079h-.463c-.482 0-.875.431-.875.961 0 .532.393.962.875.962h3.112c.483 0 .875-.43.875-.962 0-.53-.392-.961-.875-.961h-.694v-1.965c1.995-1.086 3.686-2.6 4.931-4.414.544.081 1.096.133 1.657.145v1.47h-.461c-.482 0-.876.43-.876.961s.394.961.876.961h3.113c.48 0 .875-.43.875-.961s-.395-.961-.875-.961h-.695v-1.572c1.081-.138 2.121-.415 3.112-.802v3.998h-.463c-.483 0-.875.43-.875.961 0 .53.392.961.875.961h3.112c.482 0 .876-.431.876-.961 0-.531-.394-.961-.876-.961h-.694v-4.928c1.595-.938 3.005-2.199 4.152-3.7 1.679 1.179 3.606 1.853 5.658 1.853 3.247 0 6.187-1.681 8.315-4.398-.534.123-1.087.194-1.659.194-4.065 0-7.361-3.287-7.361-7.341h.028c.288 2.978 3.457 5.325 7.333 5.325 1.14 0 2.215-.207 3.176-.568 1.219-2.367 1.932-5.195 1.932-8.238 0-7.291-4.061-13.366-9.448-14.741v-4.021c0-.703-.519-1.272-1.158-1.272-.641 0-1.158.57-1.158 1.272v3.723c-.575 0-1.136.07-1.688.172v-4.919c-.001-.702-.519-1.272-1.159-1.272-.641 0-1.158.57-1.158 1.272v5.66c-2.025.939-3.795 2.556-5.129 4.654-2.158-1.445-4.694-2.293-7.421-2.293-5.892 0-10.936 3.9-13.052 9.437-.353-.024-.706-.051-1.066-.051-6.957 0-12.762 4.599-14.164 10.732-7.035.933-12.451 6.589-12.451 13.446 0 1.82.388 3.555 1.081 5.142-4.04 2.413-6.728 6.64-6.728 11.467 0 3.817 1.682 7.261 4.382 9.729v3.274h-.463c-.482 0-.875.43-.875.961 0 .53.393.962.875.962h3.112c.483 0 .875-.432.875-.962 0-.531-.393-.961-.875-.961h-.694v-1.77c2.324 1.486 5.13 2.358 8.156 2.358l.364-.018c.225.938.556 1.834.975 2.687v4.105h-.463c-.483 0-.875.43-.875.961 0 .529.393.961.875.961h3.112c.483 0 .875-.432.875-.961 0-.531-.393-.961-.875-.961h-.693v-1.16c2.658 3.032 6.687 4.965 11.199 4.965 2.931 0 5.655-.822 7.935-2.227l.524.448v2.32h-.463c-.483 0-.875.429-.875.961 0 .53.393.961.875.961h3.112c.483 0 .875-.431.875-.961 0-.532-.393-.961-.875-.961h-.693v-1.035c2.158 1.196 4.666 1.896 7.354 1.896 3.989 0 7.601-1.513 10.221-3.959v2.497h-.463c-.484 0-.875.429-.875.961 0 .53.391.961.875.961h3.111c.483 0 .875-.431.875-.961 0-.532-.392-.961-.875-.961h-.695v-1.501c2.013.993 4.3 1.561 6.73 1.561 8.002 0 14.492-6.084 14.492-13.592 0-7.508-6.49-13.594-14.492-13.594zm-32.585-7.065c-.093 0-.179.028-.263.059.27-.457.512-.929.726-1.415v1.356h-.463zm32.208-36.296c1.688 0 3.059 1.465 3.059 3.272s-1.37 3.272-3.059 3.272c-1.69 0-3.061-1.465-3.061-3.272s1.371-3.272 3.061-3.272z"/></svg>