<svg xmlns="http://www.w3.org/2000/svg" version="1" width="92.126" height="100" viewBox="0 0 468 508"><path d="M439.025.465c-2.04.935-7.395 5.695-13.345 11.815-11.305 11.73-16.745 15.725-24.055 17.595-11.73 2.975-21.42.85-42.415-9.605-12.155-6.035-15.215-7.31-18.7-7.31-3.825-.085-4.42.17-6.12 2.72-2.465 3.57-3.315 10.2-2.55 20.06.68 10.795 2.89 19.805 9.86 40.97 6.8 20.74 8.585 28.05 8.755 36.04.17 7.99-1.615 13.26-5.695 17.425-4.675 4.59-8.755 5.865-29.835 9.35-32.47 5.44-53.465 11.645-73.44 21.59-39.61 19.805-69.445 55.08-88.06 104.21-4.76 12.58-8.245 24.225-15.81 52.955-9.86 37.485-10.71 39.355-25.84 55.165-19.635 20.57-34.51 30.175-68.935 44.455-17.68 7.31-25.33 11.56-30.94 17-7.565 7.31-10.455 14.365-11.56 27.625-1.275 16.065 7.735 29.155 26.86 39.015 3.995 2.04 9.69 4.42 12.75 5.185 7.905 2.04 14.45.85 14.45-2.635 0-.68-3.995-5.44-8.84-10.625-12.325-13.005-15.3-19.89-12.07-28.39 2.635-6.715 14.28-15.895 28.135-22.1 6.63-2.975 45.645-18.53 54.4-21.76 22.015-8.075 31.62-7.735 42.925 1.785l4.08 3.4 83.13-.17 83.215-.255-.255-6.375c-.765-16.575-5.1-19.89-27.625-21.165-6.375-.34-11.9-.85-12.07-1.105-.765-.68 2.55-8.5 8.075-19.38 9.86-19.295 23.375-37.655 31.11-42.16 3.485-2.04 4.42-2.21 10.795-1.87 7.99.425 12.495 2.295 16.575 6.97 3.4 3.91 4.335 7.14 5.695 20.145.85 7.905 1.785 12.41 3.74 17.34 9.69 25.075 38.59 52.785 54.74 52.36 5.525-.085 7.99-1.785 11.05-7.735 2.72-5.355 3.06-11.39.935-15.555-.765-1.53-5.185-6.63-9.69-11.39-20.145-20.91-26.35-37.485-26.35-70.465 0-33.49 6.545-58.055 20.91-78.285 2.04-2.89 8.925-10.88 15.3-17.85 20.315-22.185 24.31-30.77 24.31-52.105-.085-12.325-.935-18.87-4.505-32.13-6.035-22.865-3.995-33.915 8.755-48.195 8.67-9.775 9.435-13.175 6.375-29.41-3.4-17.765-4.675-25.585-6.46-41.14-2.295-19.55-3.995-23.885-10.03-26.435-3.74-1.615-7.65-1.445-11.73.425z"/></svg>