<svg xmlns="http://www.w3.org/2000/svg" width="100" height="100"><path d="M79.869 76.395c-1.978-.995-4.218-2.125-4.689-4.603-.396-2.087.062-4.982.504-7.783.465-2.939.958-6.091.46-8.629 6.022-5.888 9.722-13.795 9.722-22.486-.001-18.138-16.089-32.894-35.864-32.894-19.777 0-35.867 14.756-35.867 32.894 0 10.195 5.084 19.323 13.049 25.361-.053 2.145.422 4.605.895 7.031.682 3.496 1.386 7.111.448 9.413-.825 2.027-2.062 2.931-4.009 2.931-1.31 0-2.706-.404-3.939-.761-1.011-.291-1.884-.543-2.612-.543-1.015 0-1.748.531-1.96 1.425-.155.656-.146 1.683.778 2.853 1.715 2.167 5.846 3.803 9.607 3.802 5.034 0 8.463-2.687 9.408-7.373.379-1.88.972-3.663 1.625-5.343.192 1.656.436 3.256.657 4.703l.22 1.457c.74 5.02-1.639 7.879-3.375 9.967-1.145 1.378-2.57 3.091-.99 4.596.784.744 1.781 1.138 2.883 1.138 1.653 0 3.401-.878 4.922-2.471 2.964-3.107 4.508-8.213 4.235-14.007-.188-3.997 1.644-6.672 3.426-8.989.836 2.138 1.56 4.566 1.02 7.613-2.252 12.719-2.22 20.246.099 23.013.707.844 1.648 1.29 2.721 1.29h.001l.359-.016c.877-.077 1.637-.473 2.196-1.143 1.847-2.21 1.397-7.164.876-12.901-.395-4.327-.801-8.805-.094-11.663.542-2.195 1.327-3.868 2.177-5.229.433 1.582.676 3.443.292 5.901-.743 4.784.483 9.591 3.284 12.86 1.707 1.994 3.77 3.137 5.66 3.138h.001c.823 0 1.576-.216 2.236-.638.638-.409.852-.935.918-1.304.198-1.09-.547-2.084-1.576-3.459-1.565-2.092-3.708-4.957-3.093-8.962.235-1.53.726-3.305 1.243-5.182.148-.541.302-1.095.451-1.658.107.608.2 1.247.26 1.958.657 7.799 5.747 10.565 9.905 10.565h.001c2.286 0 4.044-.845 4.48-2.154.638-1.91-1.269-2.871-2.951-3.718zm-29.871-17.671c-9.952 0-16.757-.582-16.757-7.186 0-6.608 6.805-7.199 16.757-7.199 9.955 0 16.758.591 16.758 7.199 0 6.604-6.803 7.186-16.758 7.186zm7.233-10.237c-1.157 0-2.091 1.328-2.091 2.967 0 1.64.934 2.967 2.091 2.967 1.15 0 2.087-1.327 2.087-2.967 0-1.639-.936-2.967-2.087-2.967zm-14.463 0c-1.149 0-2.088 1.328-2.088 2.967 0 1.64.938 2.967 2.088 2.967 1.158 0 2.092-1.327 2.092-2.967-.001-1.639-.934-2.967-2.092-2.967z"/></svg>