<svg xmlns="http://www.w3.org/2000/svg" width="100" height="100"><path d="M100 27.126s-3.961 4.51-17.937 14.542c-11.452 8.219-25.888 6.537-40.237-1.212-5.821-3.144-8.13-5.09-10.804-9.167-2.592-3.953-8.474-16.898-8.474-16.898s-1.511 5.482-11.623 15.362c-2.061 2.014-10.925 7.788-10.925 7.788l6.31 6.266s11.724-5.27 18.154-.137c3.414 2.724 5.052 5.648 5.329 17.563.276 11.91.275 24.377.275 24.377h8.626l3.602-18.085s5.953 3.971 13.718 3.234c9.837-.932 18.379-4.4 18.379-4.4s1.362 3.486 1.362 19.251h9.905s-.648-27.3 4.282-38.645c3.253-7.486 10.058-19.839 10.058-19.839z"/></svg>