<svg xmlns="http://www.w3.org/2000/svg" width="100" height="100"><path d="M68.104 70.865c1.251 0 2.443-.238 3.55-.656l.335-.123.271-.127c3.489-1.586 5.927-5.098 5.927-9.174 0-2.051-.619-3.959-1.676-5.553l-.196-.277-.196-.262c-1.843-2.419-4.744-3.989-8.014-3.989-5.559 0-10.081 4.521-10.081 10.081 0 .285-.114.543-.301.727-.186.188-.442.303-.728.303-.568 0-1.029-.461-1.029-1.029 0-6.693 5.445-12.138 12.139-12.138 3.033 0 5.803 1.125 7.934 2.971l.226.204.208.189c-.699-13.766-7.354-20.482-12.996-23.706-4.514-2.579-9.063-3.373-11.418-3.619v-11.016c0-2.15-1.424-5.349-5.349-5.349-3.926 0-5.35 3.199-5.35 5.349v3.704c0 .909.737 1.646 1.646 1.646s1.646-.737 1.646-1.646v-3.704c0-.482.148-2.058 2.058-2.058.751 0 2.018.27 2.058 2.058v11.015c-2.355.246-6.905 1.041-11.418 3.619-9.514 5.437-12.404 14.955-12.957 22.956l.226-.168.223-.167c1.991-1.428 4.423-2.279 7.056-2.279 6.693 0 12.139 5.445 12.139 12.138 0 .568-.46 1.029-1.028 1.029-.285 0-.542-.115-.729-.303-.186-.186-.3-.441-.3-.727 0-5.561-4.522-10.081-10.082-10.081-2.81 0-5.351 1.157-7.18 3.017l-.214.235-.217.237c-1.534 1.77-2.47 4.07-2.47 6.592 0 4.479 2.936 8.279 6.984 9.59l.242.072.303.08c.816.213 1.669.338 2.551.338.284 0 .542.115.727.303.187.186.303.443.303.727 0 .568-.461 1.027-1.029 1.027-.364 0-.723-.021-1.078-.053l-.319-.033-.224-.033c2.248 3.418 4.895 6.441 7.515 9.016-2.617.236-5.351.928-7.115 2.6-.412.391-.431 1.041-.039 1.455.202.213.475.322.747.322.253 0 .508-.096.708-.283 1.403-1.33 4.008-2.068 7.532-2.135l.155-.002c-1.251.412-2.396 1.006-3.289 1.854-.413.391-.431 1.041-.039 1.455.201.213.474.32.745.32.254 0 .509-.094.708-.281.848-.805 2.14-1.387 3.801-1.74 4.685 3.953 8.507 6.18 8.606 6.234l.103.061.103-.061c.101-.057 4.103-2.389 8.934-6.516 2.583.256 4.533.938 5.675 2.021.2.188.454.281.708.281.272 0 .545-.107.746-.32.391-.414.374-1.064-.039-1.455-.895-.848-2.039-1.441-3.29-1.854l.155.002c3.524.066 6.129.805 7.533 2.135.199.188.454.283.709.283.271 0 .544-.109.745-.322.392-.414.373-1.064-.039-1.455-2.246-2.127-6.062-2.672-9.212-2.703 2.624-2.592 5.266-5.629 7.506-9.062l-.232.045-.326.051c-.646.105-1.307.174-1.982.174-.567 0-1.027-.459-1.027-1.027 0-.283.115-.541.301-.727.179-.188.437-.303.721-.303zm-16.362 12.426l.256.045c.205.066.381.211.481.412.138.279.107.611-.081.861l-.497.658-.833 1.104c-.156.203-.399.326-.657.326s-.501-.123-.657-.326l-.946-1.254-.384-.508c-.188-.25-.221-.582-.081-.861.14-.281.425-.457.737-.457h2.662zm5.035-12.887c0 1.277-.737 2.314-1.646 2.314-.908 0-1.645-1.037-1.645-2.314 0-1.279.736-2.316 1.645-2.316s1.646 1.037 1.646 2.316zm-11.818-2.316c.909 0 1.646 1.037 1.646 2.316 0 1.277-.736 2.314-1.646 2.314s-1.646-1.037-1.646-2.314c-.001-1.279.737-2.316 1.646-2.316z"/></svg>