<svg xmlns="http://www.w3.org/2000/svg" width="100" height="100"><g fill="#fff"><ellipse cx="50.747" cy="27.413" rx="12.446" ry="6.688"/><path d="M50.748 36.363c-6.834 0-12.51-2.585-13.713-5.999v5.388c1.203 3.413 6.879 5.997 13.713 5.997 6.831 0 12.506-2.583 13.71-5.997v-5.388c-1.204 3.414-6.879 5.999-13.71 5.999zM50.748 44.737c-6.834 0-12.51-2.585-13.713-5.997v5.387c1.203 3.412 6.879 5.996 13.713 5.996 6.831 0 12.506-2.584 13.71-5.996v-5.387c-1.204 3.412-6.879 5.997-13.71 5.997zM50.748 53.111c-6.834 0-12.51-2.587-13.713-6v5.386c1.203 3.413 6.879 5.999 13.713 5.999 6.831 0 12.506-2.586 13.71-5.999v-5.386c-1.204 3.413-6.879 6-13.71 6zM50.748 61.482c-6.834 0-12.51-2.585-13.713-5.998v5.389c1.203 3.41 6.879 5.996 13.713 5.996 6.831 0 12.506-2.586 13.71-5.996v-5.389c-1.204 3.413-6.879 5.998-13.71 5.998zM50.583 69.855c-6.833 0-12.508-2.585-13.713-5.998v5.389c1.205 3.41 6.88 5.996 13.713 5.996s12.508-2.586 13.71-5.996v-5.389c-1.202 3.414-6.877 5.998-13.71 5.998z"/><ellipse cx="80.288" cy="44.973" rx="12.447" ry="6.689"/><path d="M80.287 53.924c-6.831 0-12.506-2.585-13.709-5.998v5.386c1.203 3.412 6.878 5.998 13.709 5.998 6.832 0 12.51-2.586 13.713-5.998v-5.386c-1.203 3.413-6.881 5.998-13.713 5.998zM80.287 62.298c-6.831 0-12.506-2.586-13.709-5.999v5.387c1.203 3.412 6.878 5.998 13.709 5.998 6.832 0 12.51-2.586 13.713-5.998v-5.387c-1.203 3.413-6.881 5.999-13.713 5.999zM80.287 70.669c-6.831 0-12.506-2.584-13.709-5.997v5.387c1.203 3.413 6.878 5.998 13.709 5.998 6.832 0 12.51-2.585 13.713-5.998v-5.387c-1.203 3.413-6.881 5.997-13.713 5.997z"/><ellipse cx="20.714" cy="60.891" rx="12.446" ry="6.69"/><path d="M20.715 69.844c-6.834 0-12.51-2.586-13.713-5.998v5.386c1.203 3.413 6.879 5.999 13.713 5.999 6.831 0 12.506-2.586 13.709-5.999v-5.386c-1.203 3.412-6.878 5.998-13.709 5.998zM20.715 78.217c-6.834 0-12.51-2.586-13.713-5.998v5.386c1.203 3.413 6.879 5.999 13.713 5.999 6.831 0 12.506-2.586 13.709-5.999v-5.386c-1.203 3.412-6.878 5.998-13.709 5.998zM20.715 86.59c-6.834 0-12.51-2.585-13.713-5.998v5.387c1.203 3.412 6.879 5.998 13.713 5.998 6.831 0 12.506-2.586 13.709-5.998v-5.387c-1.203 3.413-6.878 5.998-13.709 5.998z"/></g></svg>