<svg xmlns="http://www.w3.org/2000/svg" width="100" height="98.953" viewBox="0.859 1.023 100 98.953" enable-background="new 0.859 1.023 100 98.953"><path d="M64.45 1.023h-27.185v25.606h27.185v-25.606zm-20.192 17.42c-2.476 0-4.486-2.008-4.486-4.488 0-2.477 2.01-4.486 4.486-4.486 2.479 0 4.487 2.01 4.487 4.486.001 2.48-2.008 4.488-4.487 4.488zm13.199 0c-2.479 0-4.485-2.008-4.485-4.488 0-2.477 2.007-4.486 4.485-4.486s4.487 2.01 4.487 4.486c0 2.48-2.008 4.488-4.487 4.488zm37.755 39.072c-.401-8.685-4.126-14.752-8.712-18.343-3.793-2.979-7.954-4.407-11.396-4.913v-3.126h-48.49v3.125c-3.444.506-7.608 1.935-11.399 4.915-4.592 3.59-8.311 9.655-8.708 18.339-3.285 1.152-5.646 4.243-5.646 7.915 0 4.644 3.761 8.413 8.411 8.415v-3.737c-2.582-.003-4.669-2.096-4.678-4.68.008-2.585 2.095-4.677 4.678-4.681 2.586.004 4.671 2.095 4.677 4.681h3.739c-.004-3.757-2.479-6.902-5.878-7.982.435-7.118 3.271-11.364 6.694-14.121 2.59-2.075 5.633-3.203 8.112-3.693v29.249h4.324v19.227c-4.894 1.731-8.405 6.388-8.405 11.872h25.214c0-5.486-3.516-10.141-8.405-11.872v-19.228h23.034v19.227c-4.892 1.731-8.405 6.388-8.405 11.872h25.215c0-5.486-3.514-10.141-8.405-11.872v-19.227h4.323v-29.247c2.477.488 5.519 1.616 8.106 3.691 3.425 2.756 6.262 7.001 6.698 14.12-3.399 1.081-5.882 4.225-5.885 7.984h3.739c.002-2.582 2.095-4.679 4.683-4.682 2.579.003 4.669 2.099 4.677 4.682-.008 2.58-2.098 4.675-4.677 4.679v3.737c4.644-.003 8.413-3.769 8.413-8.416-.002-3.676-2.37-6.762-5.648-7.91zm-47.97-1.131h-4.822v-4.821h4.822v4.821zm0-5.876h-4.822v-4.82h4.822v4.82zm6.025 5.876h-4.818v-4.821h4.818v4.821zm0-5.876h-4.818v-4.82h4.818v4.82zm6.027 5.876h-4.825v-4.821h4.825v4.821zm0-5.876h-4.825v-4.82h4.825v4.82zm15.563-40.17c0-3.781-3.067-6.848-6.847-6.848v13.699c3.78 0 6.847-3.068 6.847-6.851zm-41.154 6.851v-13.698c-3.781 0-6.845 3.067-6.845 6.848 0 3.782 3.064 6.85 6.845 6.85z"/></svg>