<svg xmlns="http://www.w3.org/2000/svg" viewBox="0 0 150 150" enable-background="new 0 0 150 150"><g fill="#191717"><path fill-rule="evenodd" clip-rule="evenodd" d="M75 3.9c-39.6 0-71.7 32.1-71.7 71.7 0 31.7 20.6 58.6 49.1 68.1 3.6.7 4.9-1.6 4.9-3.5 0-1.7-.1-7.4-.1-13.4-20 4.3-24.2-8.5-24.2-8.5-3.3-8.3-8-10.5-8-10.5-6.5-4.5.5-4.4.5-4.4 7.2.5 11 7.4 11 7.4 6.4 11 16.8 7.8 20.9 6 .6-4.6 2.5-7.8 4.6-9.6-15.9-1.8-32.7-8-32.7-35.5 0-7.8 2.8-14.2 7.4-19.3-.7-1.8-3.2-9.1.7-19 0 0 6-1.9 19.7 7.4 5.7-1.6 11.9-2.4 18-2.4s12.2.8 18 2.4c13.7-9.3 19.7-7.4 19.7-7.4 3.9 9.9 1.4 17.2.7 19 4.6 5 7.4 11.4 7.4 19.3 0 27.6-16.8 33.6-32.8 35.4 2.6 2.2 4.9 6.6 4.9 13.3 0 9.6-.1 17.3-.1 19.7 0 1.9 1.3 4.1 4.9 3.4 28.5-9.5 49-36.4 49-68.1-.1-39.4-32.2-71.5-71.8-71.5z"/><path d="M30.4 106.9c-.2.4-.7.5-1.2.2-.5-.2-.8-.7-.6-1.1.2-.4.7-.5 1.2-.2s.8.8.6 1.1zm-.8-.6"/><path d="M33.3 110.2c-.3.3-1 .2-1.5-.3s-.6-1.2-.2-1.5c.4-.3 1-.2 1.5.3s.6 1.1.2 1.5zm-.6-.8"/><path d="M36.2 114.3c-.4.3-1.2 0-1.6-.6-.4-.6-.4-1.4 0-1.7.4-.3 1.2 0 1.6.6.4.6.4 1.4 0 1.7zm0 0"/><path d="M40 118.3c-.4.4-1.2.3-1.8-.3-.6-.6-.8-1.4-.4-1.8.4-.4 1.2-.3 1.9.3.6.5.8 1.3.3 1.8zm0 0"/><path d="M45.4 120.6c-.2.6-1 .8-1.8.6-.8-.2-1.3-.9-1.2-1.5.2-.6 1-.8 1.8-.6.8.3 1.4.9 1.2 1.5zm0 0"/><path d="M51.3 121c0 .6-.7 1.1-1.5 1.1-.9 0-1.6-.5-1.6-1 0-.6.7-1.1 1.5-1.1.9 0 1.6.4 1.6 1zm0 0"/><path d="M56.7 120.1c.1.6-.5 1.2-1.3 1.3-.8.2-1.6-.2-1.7-.8-.1-.6.5-1.2 1.3-1.3.9-.1 1.6.2 1.7.8zm0 0"/></g></svg>