<svg xmlns="http://www.w3.org/2000/svg" width="100" height="100" enable-background="new 0 0 32 32"><path d="M62.909 98.196c26.572-7.12 42.508-34.542 35.388-61.114-7.12-26.572-34.665-42.475-61.237-35.355-26.572 7.12-42.475 34.665-35.355 61.237 2.765 10.318 8.599 18.899 16.266 25.221l.066.246-6.127 9.168 35.497 2.373-15.699-31.975-5.462 8.198c-4.88-4.386-8.657-10.131-10.496-16.995-5.092-19.002 6.072-38.337 25.073-43.428 19.002-5.092 38.337 6.072 43.428 25.073 5.024 18.749-5.793 37.835-24.334 43.23l1.603 14.36c.458-.109.931-.117 1.388-.24z"/><path style="text-align:start;line-height:125%;-inkscape-font-specification:Impact" d="M63.567 39.729h-11.941v-1.98c0-2.108-.138-3.488-.414-4.138-.276-.65-.867-.975-1.773-.975-.729 0-1.276.281-1.64.842-.365.562-.547 1.404-.547 2.527 0 1.872.374 3.182 1.123 3.931.729.749 2.877 2.207 6.443 4.374 3.034 1.833 5.103 3.236 6.207 4.212 1.103.975 2.034 2.355 2.793 4.138.759 1.783 1.138 4.005 1.138 6.665 0 4.256-1.025 7.596-3.074 10.02-2.049 2.424-5.123 3.921-9.222 4.493v4.493h-5.498v-4.64c-3.192-.315-5.98-1.542-8.365-3.68-2.384-2.138-3.576-5.867-3.576-11.187v-2.335h11.941v2.926c0 3.212.123 5.207.369 5.985.246.778.842 1.167 1.788 1.167.808 0 1.409-.271 1.803-.813.394-.542.591-1.345.591-2.409 0-2.68-.187-4.596-.562-5.749-.374-1.153-1.655-2.409-3.842-3.768-3.645-2.286-6.123-3.966-7.434-5.039-1.31-1.074-2.443-2.586-3.399-4.537s-1.434-4.158-1.434-6.621c0-3.566 1.01-6.365 3.03-8.394 2.02-2.03 5.049-3.281 9.089-3.754v-3.813h5.498v3.813c3.685.473 6.443 1.709 8.276 3.709 1.832 2 2.749 4.764 2.749 8.291 0 .493-.04 1.241-.118 2.246z" font-size="14.513" letter-spacing="0" word-spacing="0" font-family="Impact"/></svg>