<svg xmlns="http://www.w3.org/2000/svg" width="99.997" height="100"><path d="M76.986 83.844c-.573-39.972-7.046-57.178-26.989-57.178-19.938 0-26.41 17.206-26.987 57.178-9.948-7.947-16.345-20.154-16.345-33.844 0-23.898 19.437-43.335 43.332-43.335s43.335 19.437 43.335 43.335c0 13.69-6.396 25.897-16.346 33.844m-27.05-17.215c-20.059 0-17.089-24.365-17.089-24.365s3.424-7.721 17.089-7.721c13.669 0 17.233 7.721 17.233 7.721s2.817 24.365-17.233 24.365m.061-66.629c-27.566 0-49.997 22.431-49.997 50s22.431 50 49.997 50c27.569 0 50-22.431 50-50s-22.431-50-50-50" fill="#231F20"/></svg>