<svg xmlns="http://www.w3.org/2000/svg" width="100" height="100"><g><rect x="-192" width="185" height="99"/><rect y="-36" width="100" height="30"/><text transform="translate(66 -19.5)" enable-background="new"><tspan x="0" y="0" font-family="'MyriadPro-Regular'" font-size="2.4">http:</tspan><tspan x="4.783" y="0" font-family="'HelveticaLTStd-Fraction'" font-size="2.4">//</tspan><tspan x="5.584" y="0" font-family="'MyriadPro-Regular'" font-size="2.4">thenounproject.com</tspan></text><text transform="translate(7.166 -24.5)" enable-background="new"><tspan x="0" y="0" font-family="'MyriadPro-Regular'" font-size="6.158">The</tspan><tspan x="11.472" y="0" font-family="'MyriadPro-Regular'" font-size="6.158">Noun</tspan><tspan x="27.624" y="0" font-family="'MyriadPro-Regular'" font-size="6.158">Project</tspan></text><text transform="translate(8.286 -19.7)" enable-background="new"><tspan x="0" y="0" font-family="'MyriadPro-Regular'" font-size="4">Icon</tspan><tspan x="8.404" y="0" font-family="'MyriadPro-Regular'" font-size="4">Template</tspan></text><text transform="translate(-178.5 10.5)" font-family="'MyriadPro-Regular'" font-size="6.158">Reminders</text><line stroke="#fff" stroke-miterlimit="10" x1="8" y1="-14.5" x2="18" y2="-14.5"/><line stroke="#fff" stroke-miterlimit="10" x1="-179" y1="16.5" x2="-162" y2="16.5"/><rect x="-170.802" y="31.318" width="8.721" height="8.642"/><path d="M-164.455 42.312h4.747v-4.703h-4.747v4.703zm5.189.437h-5.63v-5.579h5.63v5.579zm-6.955 1.313h8.279v-8.203h-8.279v8.203zm8.721.438h-9.163v-9.079h9.163v9.079z"/><polygon points="-166.149,44.133 -166.292,43.991 -158.013,35.787 -157.871,35.929"/><rect x="-179" y="58" width="35" height="32.5" fill="none"/><text transform="translate(-179 60.13)" font-family="'MyriadPro-Regular'" font-size="3">Strokes</text><text transform="translate(-179 65.13)" enable-background="new"><tspan x="0" y="0" font-family="'MyriadPro-Regular'" font-size="2.4">Try</tspan><tspan x="3.852" y="0" font-family="'MyriadPro-Regular'" font-size="2.4">to</tspan><tspan x="6.708" y="0" font-family="'MyriadPro-Regular'" font-size="2.4">keep</tspan><tspan x="12.348" y="0" font-family="'MyriadPro-Regular'" font-size="2.4">strokes</tspan><tspan x="20.217" y="0" font-family="'MyriadPro-Regular'" font-size="2.4">at</tspan><tspan x="22.168" y="0" font-family="'HelveticaLTStd-Fraction'" font-size="2.4">4</tspan><tspan x="24.247" y="0" font-family="'MyriadPro-Regular'" font-size="2.4">px</tspan></text><text transform="translate(-179 70.13)" enable-background="new"><tspan x="0" y="0" font-family="'MyriadPro-Regular'" font-size="2.4">Minimum</tspan><tspan x="10.454" y="0" font-family="'MyriadPro-Regular'" font-size="2.4">stroke</tspan><tspan x="17.373" y="0" font-family="'MyriadPro-Regular'" font-size="2.4">weight</tspan><tspan x="25.115" y="0" font-family="'MyriadPro-Regular'" font-size="2.4">is</tspan><tspan x="26.627" y="0" font-family="'HelveticaLTStd-Fraction'" font-size="2.4">2</tspan><tspan x="28.706" y="0" font-family="'MyriadPro-Regular'" font-size="2.4">px</tspan></text><text transform="translate(-179 74.63)" enable-background="new"><tspan x="0" y="0" font-family="'MyriadPro-Regular'" font-size="2.4">For</tspan><tspan x="4.015" y="0" font-family="'MyriadPro-Regular'" font-size="2.4">thicker</tspan><tspan x="11.635" y="0" font-family="'MyriadPro-Regular'" font-size="2.4">strokes</tspan><tspan x="19.504" y="0" font-family="'MyriadPro-Regular'" font-size="2.4">use</tspan><tspan x="23.724" y="0" font-family="'MyriadPro-Regular'" font-size="2.4">even</tspan></text><text transform="translate(-179 77.63)" enable-background="new"><tspan x="0" y="0" font-family="'MyriadPro-Regular'" font-size="2.4">numbers:</tspan><tspan x="9.456" y="0" font-family="'HelveticaLTStd-Fraction'" font-size="2.4">6</tspan><tspan x="11.534" y="0" font-family="'MyriadPro-Regular'" font-size="2.4">px,</tspan><tspan x="14.508" y="0" font-family="'HelveticaLTStd-Fraction'" font-size="2.4">8</tspan><tspan x="16.586" y="0" font-family="'MyriadPro-Regular'" font-size="2.4">px</tspan><tspan x="19.807" y="0" font-family="'MyriadPro-Regular'" font-size="2.4">etc.</tspan></text><text transform="translate(-179 82.13)" enable-background="new"><tspan x="0" y="0" font-family="'MyriadPro-Regular'" font-size="2.4">Remember</tspan><tspan x="11.796" y="0" font-family="'MyriadPro-Regular'" font-size="2.4">to</tspan><tspan x="14.652" y="0" font-family="'MyriadPro-Regular'" font-size="2.4">expand</tspan><tspan x="22.917" y="0" font-family="'MyriadPro-Regular'" font-size="2.4">strokes</tspan></text><text transform="translate(-179 85.13)" enable-background="new"><tspan x="0" y="0" font-family="'MyriadPro-Regular'" font-size="2.4">before</tspan><tspan x="7.317" y="0" font-family="'MyriadPro-Regular'" font-size="2.4">saving</tspan><tspan x="14.558" y="0" font-family="'MyriadPro-Regular'" font-size="2.4">as</tspan><tspan x="17.409" y="0" font-family="'MyriadPro-Regular'" font-size="2.4">an</tspan><tspan x="20.642" y="0" font-family="'MyriadPro-Regular'" font-size="2.4">SVG</tspan></text><rect x="-136.5" y="58" width="35" height="32.5" fill="none"/><text transform="translate(-136.5 60.13)" font-family="'MyriadPro-Regular'" font-size="3">Size</text><text transform="translate(-136.5 65.13)" enable-background="new"><tspan x="0" y="0" font-family="'MyriadPro-Regular'" font-size="2.4">Cannot</tspan><tspan x="8.069" y="0" font-family="'MyriadPro-Regular'" font-size="2.4">be</tspan><tspan x="11.38" y="0" font-family="'MyriadPro-Regular'" font-size="2.4">wider</tspan><tspan x="17.793" y="0" font-family="'MyriadPro-Regular'" font-size="2.4">or</tspan><tspan x="20.64" y="0" font-family="'MyriadPro-Regular'" font-size="2.4">taller</tspan><tspan x="26.455" y="0" font-family="'MyriadPro-Regular'" font-size="2.4">than</tspan></text><text transform="translate(-136.5 68.63)" enable-background="new"><tspan x="0" y="0" font-family="'HelveticaLTStd-Fraction'" font-size="2.4">100</tspan><tspan x="4.003" y="0" font-family="'MyriadPro-Regular'" font-size="2.4">px</tspan><tspan x="7.224" y="0" font-family="'MyriadPro-Regular'" font-size="2.4">(artboard</tspan><tspan x="17.364" y="0" font-family="'MyriadPro-Regular'" font-size="2.4">size)</tspan></text><text transform="translate(-136.5 73.63)" enable-background="new"><tspan x="0" y="0" font-family="'MyriadPro-Regular'" font-size="2.4">Scale</tspan><tspan x="5.928" y="0" font-family="'MyriadPro-Regular'" font-size="2.4">your</tspan><tspan x="11.227" y="0" font-family="'MyriadPro-Regular'" font-size="2.4">icon</tspan><tspan x="16.257" y="0" font-family="'MyriadPro-Regular'" font-size="2.4">to</tspan><tspan x="19.113" y="0" font-family="'MyriadPro-Regular'" font-size="2.4">fill</tspan><tspan x="22.245" y="0" font-family="'MyriadPro-Regular'" font-size="2.4">as</tspan><tspan x="25.096" y="0" font-family="'MyriadPro-Regular'" font-size="2.4">much</tspan><tspan x="31.571" y="0" font-family="'MyriadPro-Regular'" font-size="2.4">of</tspan></text><text transform="translate(-136.5 76.63)" enable-background="new"><tspan x="0" y="0" font-family="'MyriadPro-Regular'" font-size="2.4">the</tspan><tspan x="4.073" y="0" font-family="'MyriadPro-Regular'" font-size="2.4">artboard</tspan><tspan x="13.531" y="0" font-family="'MyriadPro-Regular'" font-size="2.4">as</tspan><tspan x="16.382" y="0" font-family="'MyriadPro-Regular'" font-size="2.4">possible</tspan></text><rect x="-94" y="58" width="35" height="32.5" fill="none"/><text transform="translate(-94 60.13)" font-family="'MyriadPro-Regular'" font-size="3">Ungroup</text><text transform="translate(-94 65.13)" enable-background="new"><tspan x="0" y="0" font-family="'MyriadPro-Regular'" font-size="2.4">If</tspan><tspan x="2.019" y="0" font-family="'MyriadPro-Regular'" font-size="2.4">your</tspan><tspan x="7.317" y="0" font-family="'MyriadPro-Regular'" font-size="2.4">design</tspan><tspan x="14.803" y="0" font-family="'MyriadPro-Regular'" font-size="2.4">has</tspan><tspan x="18.986" y="0" font-family="'MyriadPro-Regular'" font-size="2.4">more</tspan><tspan x="25.036" y="0" font-family="'MyriadPro-Regular'" font-size="2.4">than</tspan><tspan x="30.396" y="0" font-family="'MyriadPro-Regular'" font-size="2.4">one</tspan></text><text transform="translate(-94 68.13)" enable-background="new"><tspan x="0" y="0" font-family="'MyriadPro-Regular'" font-size="2.4">shape,</tspan><tspan x="7.248" y="0" font-family="'MyriadPro-Regular'" font-size="2.4">make</tspan><tspan x="13.478" y="0" font-family="'MyriadPro-Regular'" font-size="2.4">sure</tspan><tspan x="18.482" y="0" font-family="'MyriadPro-Regular'" font-size="2.4">to</tspan><tspan x="21.338" y="0" font-family="'MyriadPro-Regular'" font-size="2.4">ungroup</tspan></text><rect x="-50" y="58" width="35" height="32.5" fill="none"/><text transform="translate(-50 60.13)" enable-background="new"><tspan x="0" y="0" font-family="'MyriadPro-Regular'" font-size="3">Save</tspan><tspan x="6.801" y="0" font-family="'MyriadPro-Regular'" font-size="3">as</tspan></text><text transform="translate(-50 65.13)" enable-background="new"><tspan x="0" y="0" font-family="'MyriadPro-Regular'" font-size="2.4">Save</tspan><tspan x="5.44" y="0" font-family="'MyriadPro-Regular'" font-size="2.4">as</tspan><tspan x="8.292" y="0" font-family="'MyriadPro-Regular'" font-size="2.4">.SVG</tspan><tspan x="13.605" y="0" font-family="'MyriadPro-Regular'" font-size="2.4">and</tspan><tspan x="18.191" y="0" font-family="'MyriadPro-Regular'" font-size="2.4">make</tspan><tspan x="24.422" y="0" font-family="'MyriadPro-Regular'" font-size="2.4">sure</tspan><tspan x="29.426" y="0" font-family="'MyriadPro-Regular'" font-size="2.4">“Use</tspan></text><text transform="translate(-50 68.13)" enable-background="new"><tspan x="0" y="0" font-family="'MyriadPro-Regular'" font-size="2.4">Artboards”</tspan><tspan x="11.57" y="0" font-family="'MyriadPro-Regular'" font-size="2.4">is</tspan><tspan x="13.826" y="0" font-family="'MyriadPro-Regular'" font-size="2.4">checked</tspan></text><text transform="matrix(1.007 0 0 1 -125.542 30.594)" enable-background="new"><tspan x="0" y="0" font-family="'HelveticaLTStd-Fraction'" font-size="2.573">100</tspan><tspan x="4.292" y="0" font-family="'MyriadPro-Regular'" font-size="2.573">px</tspan></text><text transform="matrix(1.007 0 0 1 -41 39)" font-family="'MyriadPro-Regular'" font-size="5.146">.SVG</text><rect x="-126.514" y="34.815" width="10.261" height="10.185"/><rect x="-126.477" y="31.766" width=".522" height="2.337"/><rect x="-116.813" y="31.766" width=".523" height="2.337"/><rect x="-127" y="32.337" width="11.233" height=".572"/><rect x="-83.805" y="33.844" width="10.305" height="10.156"/><rect x="-76.809" y="28.707" width="3.308" height="3.261"/><rect x="-178.5" y="22.5" stroke="#fff" stroke-miterlimit="10" width="30" height="30"/><rect x="-136.5" y="22.5" stroke="#fff" stroke-miterlimit="10" width="30" height="30"/><rect x="-93.5" y="22.5" stroke="#fff" stroke-miterlimit="10" width="30" height="30"/><rect x="-49.5" y="22.5" stroke="#fff" stroke-miterlimit="10" width="30" height="30"/></g><path d="M99.336 25.294c-.002-2.253-5.582-7.748-10.239-9.873-.442-2.965-.61-6.274-2.511-8.67-2.434-3.052-2.972-.79-3.278 1.92-.709-.875-2.602-2.364-3.413-1.524-1.79 1.852 2.242 6.409 3.393 8.558.431.804-2.621 5.216-2.983 6.026-1.27 2.832-3.003 5.504-5.181 7.612-3.044 2.944-6.171 4.001-9.871 5.546-5.955 2.487-12.562 7.738-16.468 13.181-3.101 4.32-5.682 9.193-6.198 14.706-.493 5.269 1.028 10.721-1.809 15.557-2.151 3.668-6.932 6-10.836 6.521-9.59 1.277-19.322.979-28.942 2.217 10.478 4.526 23.052 6.594 34.287 5.299 2.458-.283 5.543-.435 7.859-1.397 2.384-.991 4.516-2.784 6.174-4.855 1.435-1.791 3.093-5.185 5.347-5.92 1.657-.542 5.229 2.292 5.818 3.872 1.086 2.907-3.222 6.223-1.395 8.198 1.152 1.244 6.984-.145 8.348-.321 4.838-.62 9.645-1.103 14.521-.755 2.861.204 6.208 1.436 9.027 1.197 1.61-.137 4.526-1.848 3.096-3.701-1.471-1.906-5.75-1.789-7.772-1.774-3.841.028-7.691.254-11.532.356-2.778.073-5.226-.148-7.92-.841 0-3.505-.157-6.606 1.853-9.588 1.692-2.508 4.061-4.303 5.523-7.063 1.332-2.511 2.139-5.758 2.174-8.663.042-3.412.226-6.072.836-9.538 2.759.271 4.9.358 5.339 4.224.407 3.581 2.939 6.804 4.752 2.23.64-1.612-.4-5.071-1.021-6.552-.945-2.253-3.949-5.189-5.697-6.788-.464-.451 2.64-5.583 2.897-6.083.718-1.388 1.339-2.803 1.867-4.29.326-.919 1.498-6.577 2.115-6.774 2.345-.745 3.595-.403 5.97-.16 2.304.236 5.871-.531 5.87-2.09z"/></svg>