<svg xmlns="http://www.w3.org/2000/svg" width="70.267" height="100.001" viewBox="12.242 -0.001 70.267 100.001" enable-background="new 12.242 -0.001 70.267 100.001"><path d="M81.279 43.52l-5.082-21.388c-.887-3.731-4.639-6.077-8.363-5.157-3.271.809-4.863 3.092-5.51 4.701-.764 1.901-4.164 10.5-4.961 12.278-.279.615-.869.939-.988.994-.674.3-7.438 3.18-7.438 3.18v.014c-1.333.631-2.262 1.976-2.262 3.547 0 2.173 1.764 3.936 3.941 3.936.471 0 .918-.097 1.336-.249l.002.016c.041-.018 8.979-3.762 8.979-3.762 1.229-.579 1.834-1.312 2.44-2.379.258-.451 1.039-2.334 1.674-3.879l5.416 22.841c-.004 12.641-.008 35.389-.008 35.389-.011 3.521 2.399 6.388 5.922 6.398 3.524.014 6.072-2.826 6.101-6.354 0 0 .03-39.808.03-41.773 0-1.965-.778-6.63-1.229-8.353z"/><ellipse cx="61.635" cy="7.958" rx="7.971" ry="7.959"/><path d="M31.113 75.213v8.916c1.146-.213 2.075-.742 2.794-1.588.715-.848 1.075-1.84 1.075-2.98 0-1.021-.302-1.901-.902-2.645-.604-.736-1.595-1.303-2.967-1.703zM25.646 61.365c-.535.729-.805 1.537-.805 2.422 0 .809.246 1.557.733 2.25.489.695 1.23 1.256 2.221 1.682v-7.908h-.002c-.899.3-1.616.82-2.147 1.554zM46.667 50.773l.008-.002-12.346-24.967-.003.018c-.907-1.89-2.834-3.198-5.073-3.198h-11.382c-3.108 0-5.629 2.518-5.629 5.623v43.757l.001.02v27.976h35.062v-46.41c-.001-1.008-.234-1.961-.638-2.817zm-8.582 34.934c-1.671 1.889-3.996 3.049-6.969 3.475v4.273h-3.32v-4.16c-2.638-.32-4.78-1.303-6.433-2.949-1.647-1.645-2.698-3.969-3.156-6.973l5.973-.641c.243 1.221.7 2.271 1.374 3.156.671.885 1.418 1.524 2.24 1.92v-9.58c-2.989-.851-5.185-2.146-6.577-3.871-1.398-1.729-2.097-3.828-2.097-6.297 0-2.5.788-4.601 2.371-6.304 1.579-1.698 3.68-2.678 6.305-2.938v-2.262h3.32v2.262c2.424.291 4.354 1.117 5.79 2.481 1.433 1.363 2.347 3.191 2.746 5.478l-5.79.754c-.354-1.795-1.267-3.016-2.746-3.658v8.939c3.662.989 6.156 2.274 7.485 3.852 1.325 1.578 1.989 3.6 1.989 6.07.001 2.76-.833 5.082-2.505 6.973z"/></svg>