<?xml version="1.0" encoding="utf-8"?>
<!-- Generator: Adobe Illustrator 15.1.0, SVG Export Plug-In . SVG Version: 6.00 Build 0)  -->
<!DOCTYPE svg PUBLIC "-//W3C//DTD SVG 1.1//EN" "http://www.w3.org/Graphics/SVG/1.1/DTD/svg11.dtd">
<svg version="1.1" id="Layer_1" xmlns="http://www.w3.org/2000/svg" xmlns:xlink="http://www.w3.org/1999/xlink" x="0px" y="0px"
	 width="70.267px" height="100.001px" viewBox="12.242 -0.001 70.267 100.001"
	 enable-background="new 12.242 -0.001 70.267 100.001" xml:space="preserve">
<g>
	<path d="M81.279,43.52l-5.082-21.388c-0.887-3.731-4.639-6.077-8.363-5.157c-3.271,0.809-4.863,3.092-5.51,4.701
		c-0.764,1.901-4.164,10.5-4.961,12.278c-0.279,0.615-0.869,0.939-0.988,0.994c-0.674,0.3-7.438,3.18-7.438,3.18v0.014
		c-1.333,0.631-2.262,1.976-2.262,3.547c0,2.173,1.764,3.936,3.941,3.936c0.471,0,0.918-0.097,1.336-0.249
		c0.002,0.005,0,0.011,0.002,0.016c0.041-0.018,8.979-3.762,8.979-3.762c1.229-0.579,1.834-1.312,2.44-2.379
		c0.258-0.451,1.039-2.334,1.674-3.879l5.416,22.841c-0.004,12.641-0.008,35.389-0.008,35.389c-0.011,3.521,2.399,6.388,5.922,6.398
		c3.524,0.014,6.072-2.826,6.101-6.354c0,0,0.03-39.808,0.03-41.773C82.508,49.908,81.73,45.243,81.279,43.52z"/>
	<ellipse cx="61.635" cy="7.958" rx="7.971" ry="7.959"/>
	<path d="M31.113,75.213v8.916c1.146-0.213,2.075-0.742,2.794-1.588c0.715-0.848,1.075-1.84,1.075-2.98
		c0-1.021-0.302-1.901-0.902-2.645C33.476,76.18,32.485,75.613,31.113,75.213z"/>
	<path d="M25.646,61.365c-0.535,0.729-0.805,1.537-0.805,2.422c0,0.809,0.246,1.557,0.733,2.25c0.489,0.695,1.23,1.256,2.221,1.682
		v-7.908h-0.002C26.894,60.111,26.177,60.631,25.646,61.365z"/>
	<path d="M46.667,50.773l0.008-0.002L34.329,25.804l-0.003,0.018c-0.907-1.89-2.834-3.198-5.073-3.198H17.871
		c-3.108,0-5.629,2.518-5.629,5.623v43.757c0,0.008,0.001,0.014,0.001,0.02V100h35.062V53.59
		C47.304,52.582,47.071,51.629,46.667,50.773z M38.085,85.707c-1.671,1.889-3.996,3.049-6.969,3.475v4.273h-3.32v-4.16
		c-2.638-0.32-4.78-1.303-6.433-2.949c-1.647-1.645-2.698-3.969-3.156-6.973l5.973-0.641c0.243,1.221,0.7,2.271,1.374,3.156
		c0.671,0.885,1.418,1.524,2.24,1.92v-9.58c-2.989-0.851-5.185-2.146-6.577-3.871c-1.398-1.729-2.097-3.828-2.097-6.297
		c0-2.5,0.788-4.601,2.371-6.304c1.579-1.698,3.68-2.678,6.305-2.938v-2.262h3.32v2.262c2.424,0.291,4.354,1.117,5.79,2.481
		c1.433,1.363,2.347,3.191,2.746,5.478l-5.79,0.754c-0.354-1.795-1.267-3.016-2.746-3.658v8.939
		c3.662,0.989,6.156,2.274,7.485,3.852c1.325,1.578,1.989,3.6,1.989,6.07C40.591,81.494,39.757,83.816,38.085,85.707z"/>
</g>
</svg>
