<svg xmlns="http://www.w3.org/2000/svg" xmlns:xlink="http://www.w3.org/1999/xlink" xmlns:a="http://ns.adobe.com/AdobeSVGViewerExtensions/3.0/" version="1.1" x="0px" y="0px" width="100px" height="100px" viewBox="-7.98 -6.259 100 100" enable-background="new -7.98 -6.259 100 100" xml:space="preserve">
<defs>
</defs>
<path d="M65.66,56.45c-4.043,0-7.695,1.556-10.324,4.061c-2.404-1.664-5.365-2.659-8.582-2.659c-2.933,0-5.656,0.823-7.938,2.228  c-2.584-2.245-6.032-3.629-9.832-3.629c-0.124,0-0.244,0.015-0.367,0.018c-0.178-0.74-0.416-1.457-0.716-2.146  c1.71-1.021,3.181-2.36,4.304-3.942c0.017,0.515,0.397,0.929,0.869,0.929h3.112c0.483,0,0.875-0.431,0.875-0.962  s-0.392-0.961-0.875-0.961h-0.694v-3.868c0.71-0.151,1.4-0.353,2.066-0.599v1.079h-0.463c-0.482,0-0.875,0.431-0.875,0.961  c0,0.532,0.393,0.962,0.875,0.962h3.112c0.483,0,0.875-0.43,0.875-0.962c0-0.53-0.392-0.961-0.875-0.961h-0.694v-1.965  c1.995-1.086,3.686-2.6,4.931-4.414c0.544,0.081,1.096,0.133,1.657,0.145v1.47H45.64c-0.482,0-0.876,0.43-0.876,0.961  s0.394,0.961,0.876,0.961h3.113c0.48,0,0.875-0.43,0.875-0.961s-0.395-0.961-0.875-0.961h-0.695v-1.572  c1.081-0.138,2.121-0.415,3.112-0.802v3.998h-0.463c-0.483,0-0.875,0.43-0.875,0.961c0,0.53,0.392,0.961,0.875,0.961h3.112  c0.482,0,0.876-0.431,0.876-0.961c0-0.531-0.394-0.961-0.876-0.961h-0.694v-4.928c1.595-0.938,3.005-2.199,4.152-3.7  c1.679,1.179,3.606,1.853,5.658,1.853c3.247,0,6.187-1.681,8.315-4.398c-0.534,0.123-1.087,0.194-1.659,0.194  c-4.065,0-7.361-3.287-7.361-7.341h0.028c0.288,2.978,3.457,5.325,7.333,5.325c1.14,0,2.215-0.207,3.176-0.568  c1.219-2.367,1.932-5.195,1.932-8.238c0-7.291-4.061-13.366-9.448-14.741V2.296c0-0.703-0.519-1.272-1.158-1.272  c-0.641,0-1.158,0.57-1.158,1.272v3.723c-0.575,0-1.136,0.07-1.688,0.172V1.272C61.246,0.57,60.728,0,60.088,0  c-0.641,0-1.158,0.57-1.158,1.272v5.66c-2.025,0.939-3.795,2.556-5.129,4.654c-2.158-1.445-4.694-2.293-7.421-2.293  c-5.892,0-10.936,3.9-13.052,9.437c-0.353-0.024-0.706-0.051-1.066-0.051c-6.957,0-12.762,4.599-14.164,10.732  C11.063,30.344,5.647,36,5.647,42.857c0,1.82,0.388,3.555,1.081,5.142C2.688,50.412,0,54.639,0,59.466  c0,3.817,1.682,7.261,4.382,9.729v3.274H3.919c-0.482,0-0.875,0.43-0.875,0.961c0,0.53,0.393,0.962,0.875,0.962h3.112  c0.483,0,0.875-0.432,0.875-0.962c0-0.531-0.393-0.961-0.875-0.961H6.337v-1.77c2.324,1.486,5.13,2.358,8.156,2.358  c0.123,0,0.242-0.015,0.364-0.018c0.225,0.938,0.556,1.834,0.975,2.687v4.105h-0.463c-0.483,0-0.875,0.43-0.875,0.961  c0,0.529,0.393,0.961,0.875,0.961h3.112c0.483,0,0.875-0.432,0.875-0.961c0-0.531-0.393-0.961-0.875-0.961h-0.693v-1.16  c2.658,3.032,6.687,4.965,11.199,4.965c2.931,0,5.655-0.822,7.935-2.227c0.173,0.15,0.343,0.305,0.524,0.448v2.32h-0.463  c-0.483,0-0.875,0.429-0.875,0.961c0,0.53,0.393,0.961,0.875,0.961h3.112c0.483,0,0.875-0.431,0.875-0.961  c0-0.532-0.393-0.961-0.875-0.961h-0.693v-1.035c2.158,1.196,4.666,1.896,7.354,1.896c3.989,0,7.601-1.513,10.221-3.959v2.497  h-0.463c-0.484,0-0.875,0.429-0.875,0.961c0,0.53,0.391,0.961,0.875,0.961h3.111c0.483,0,0.875-0.431,0.875-0.961  c0-0.532-0.392-0.961-0.875-0.961H58.93v-1.501c2.013,0.993,4.3,1.561,6.73,1.561c8.002,0,14.492-6.084,14.492-13.592  C80.152,62.536,73.662,56.45,65.66,56.45z M33.075,49.385c-0.093,0-0.179,0.028-0.263,0.059c0.27-0.457,0.512-0.929,0.726-1.415  v1.356H33.075z M65.283,13.089c1.688,0,3.059,1.465,3.059,3.272s-1.37,3.272-3.059,3.272c-1.69,0-3.061-1.465-3.061-3.272  S63.593,13.089,65.283,13.089z"/>
</svg>