<svg xmlns="http://www.w3.org/2000/svg" xmlns:xlink="http://www.w3.org/1999/xlink" version="1.1" id="Layer_1" x="0px" y="0px" width="100px" height="100px" viewBox="0 0 100 100" enable-background="new 0 0 100 100" xml:space="preserve">
<path d="M100,27.126c0,0-3.961,4.51-17.937,14.542c-11.452,8.219-25.888,6.537-40.237-1.212c-5.821-3.144-8.13-5.09-10.804-9.167  c-2.592-3.953-8.474-16.898-8.474-16.898s-1.511,5.482-11.623,15.362C8.864,31.767,0,37.541,0,37.541l6.31,6.266  c0,0,11.724-5.27,18.154-0.137c3.414,2.724,5.052,5.648,5.329,17.563c0.276,11.91,0.275,24.377,0.275,24.377h8.626l3.602-18.085  c0,0,5.953,3.971,13.718,3.234c9.837-0.932,18.379-4.4,18.379-4.4s1.362,3.486,1.362,19.251h9.905c0,0-0.648-27.3,4.282-38.645  C93.195,39.479,100,27.126,100,27.126z"/>
</svg>