<?xml version="1.0" encoding="utf-8"?>
<!-- Generator: Adobe Illustrator 17.1.0, SVG Export Plug-In . SVG Version: 6.00 Build 0)  -->
<!DOCTYPE svg PUBLIC "-//W3C//DTD SVG 1.1//EN" "http://www.w3.org/Graphics/SVG/1.1/DTD/svg11.dtd">
<svg version="1.1" id="Layer_1" xmlns="http://www.w3.org/2000/svg" xmlns:xlink="http://www.w3.org/1999/xlink" x="0px" y="0px" 
	 viewBox="0 0 100 100" enable-background="new 0 0 100 100" xml:space="preserve">
<g>
	<g>
		<path fill-rule="evenodd" clip-rule="evenodd" fill="#92723A" d="M49,3.9c0.5-0.1,1.3-0.1,1.8,0C50.3,3.9,49.7,3.9,49,3.9z"/>
		<path fill-rule="evenodd" clip-rule="evenodd" fill="#92723A" d="M35.5,9.1c1,0.1,1.6,0.9,2.1,1.6c0.3,0.4,0.7,0.7,1,1.1
			c0.3,0.4,0.6,0.8,0.8,1.3c0.4,1,0.6,2.1,1.1,3.2c0.5,1,1.3,1.9,2.2,2.4c0,0.1-0.2,0-0.3,0c-0.2,0.1-0.1,0.4-0.2,0.5
			c-1-0.6-2.8-0.4-3.7,0.2c0,0.2,0.3,0.3,0.2,0.5c-2.7,0.6-4,2.8-6.1,4.1c-0.3,0.2-0.6,0.4-0.9,0.3c0.1-0.2,0.3-0.3,0.5-0.4
			c0.2-0.2,0.3-0.6,0.6-0.7c0.4-0.7,0.9-1.6,1.5-2.3c0.8-1.1,1.8-1.9,3.8-1.5c-0.1-0.2-0.5-0.4-0.7-0.7c-1-1.3-0.3-3.3-0.5-5.4
			c-0.1-1.3-0.9-2.2-0.8-3.5c0-0.2-0.4,0-0.4-0.2C35.6,9.4,35.5,9.3,35.5,9.1z"/>
		<path fill-rule="evenodd" clip-rule="evenodd" fill="#131109" d="M65.2,30.5c-0.4-0.7-1-1.6-2.1-1.3c0-0.2,0-0.4,0-0.6
			c0.9-0.7,1.7-1.5,2.2-2.7c0.7-0.5,1.6-0.9,2-1.8c-0.4,0-0.7,0.3-1.3,0.2c0.4-0.1,0.5-0.6,0.6-1c-0.5-0.3-1.1,0.1-1.4,0.4
			c-0.1,0-0.1-0.2-0.2-0.1c-0.8,0.1-1.3,0.6-2,0.8c0.2-0.1,0.2-0.3,0.2-0.5c0.3-0.5,0.6-0.8,0.8-1.4c0.1,0,0-0.1,0-0.2
			c1.6-0.9,3.8-1.4,6.4-1.3c0.1,0.4-0.1,0.7-0.2,1c-0.4,1.1-0.8,2-1.4,3c-0.7,1.3-1.2,2.7-2.2,3.7c-0.3,0.3-0.7,0.6-1,0.9
			C65.5,30.1,65.3,30.3,65.2,30.5z"/>
		<path fill-rule="evenodd" clip-rule="evenodd" fill="#92723A" d="M48.2,23.1c-0.1,0.3-0.7,0.5-0.9,0.8c0.2,0.1,0.5,0.1,0.7,0.1
			c-1.3,0.9-2.6,1.9-3.9,2.8c0.1,0.2,0.4,0.1,0.6,0.2c-0.2,0.2-0.5,0.4-0.6,0.7c0.1,0.1,0.1-0.1,0.3,0C44,29,43,29.8,42.8,31.4
			c-0.1,0.1-0.1,0.3-0.2,0.5c0.1,0.2,0.2-0.1,0.3,0c-0.4,0.5-0.6,1.3-1.2,1.7c-0.4,0.3-0.8,0.4-1.2,0.7c-1.1,0.7-1.8,1.8-2.7,2.8
			c0-0.4,0.3-0.7,0.3-1.2c0.1-0.9,0.1-2,0.3-2.8c1-0.5,1.4-2,1.7-3.2c0.7-2.2,2.1-3.6,3.7-5C45,23.9,46,22.9,48.2,23.1z"/>
		<path fill-rule="evenodd" clip-rule="evenodd" fill="#92723A" d="M44.6,36.8c-0.3,0.2-0.5,0.8-0.9,1.1c-0.3,0.2-0.8,0.2-0.9,0.5
			c-0.2,0.8,1.1,0.6,0.9,1.7c-0.4,0.6-0.5,1.5-0.8,2.2c-0.6-0.1-1.4-0.4-1.4-1.1c0-0.1,0.1-0.2,0.1-0.4c0.1-0.7-0.1-1.7,0.4-2.2
			c-0.2-0.3-0.6-0.4-0.7-0.8c-0.1-0.9,1.5-1.2,1.6-2.1c0.4,0.2,0.8,0,1.3,0C44.4,36,44.1,36.7,44.6,36.8z"/>
		<path fill-rule="evenodd" clip-rule="evenodd" fill="#543E26" d="M50.3,36.7c0.4,0.4-0.3,0.8-0.5,0.4C49.8,36.9,50,36.7,50.3,36.7
			z"/>
		<path fill-rule="evenodd" clip-rule="evenodd" fill="#543E26" d="M44.6,36.8c0.1,0.1,0.4,0,0.7,0c-0.5,0.9-1.3,1.6-1.1,3
			c-0.2,0-0.2,0.3-0.5,0.3c0.3-1-1-0.9-0.9-1.7c0.1-0.3,0.6-0.3,0.9-0.5C44.1,37.6,44.3,37,44.6,36.8z"/>
		<path fill-rule="evenodd" clip-rule="evenodd" fill="#543E26" d="M50.9,38.4c-0.3,0.2-0.7-0.1-0.7-0.3
			C50.3,37.7,51,37.9,50.9,38.4z"/>
		<path fill-rule="evenodd" clip-rule="evenodd" fill="#ECD592" d="M39.6,44.8c-0.4,0.5,0.2,1.4,0,2c-0.7-0.4-1.1-0.4-1.6-0.9
			c-0.5-0.4-0.5-1-0.8-1.5c-0.1-0.1-0.2-0.3-0.3-0.4c-0.4-0.3-0.8,0-1.3,0c-0.2,0-0.3-0.2-0.6-0.2c-0.4-0.1-0.9,0-1.1-0.2
			c1.4,0.1,2.6-0.8,3.8-0.3C38.6,43.4,38.6,44.6,39.6,44.8z"/>
		<path fill-rule="evenodd" clip-rule="evenodd" fill="#DDCFAC" d="M1.3,48.7c0,0.4,0.1,0.9,0,1.3C1.3,49.6,1.2,49.1,1.3,48.7z"/>
		<path fill-rule="evenodd" clip-rule="evenodd" fill="#543E26" d="M37.4,49.4c-0.1,0.3-0.4,0.4-0.7,0.5c0-0.1,0-0.3,0-0.5
			C36.9,49.5,37.1,49.2,37.4,49.4z"/>
		<path fill-rule="evenodd" clip-rule="evenodd" fill="#543E26" d="M35.8,50.4C35.7,50.4,35.7,50.4,35.8,50.4
			c-0.3,0-0.3-0.2-0.4-0.4C35.6,49.9,35.8,50.1,35.8,50.4z"/>
		<path fill-rule="evenodd" clip-rule="evenodd" fill="#DDCFAC" d="M1.2,50.1c0.1,0.3,0,0.8,0,1.2C1.2,51,1.3,50.5,1.2,50.1z"/>
		<path fill-rule="evenodd" clip-rule="evenodd" fill="#543E26" d="M34.3,50.7c0,0.2,0,0.3,0,0.4c-0.1,0-0.1,0.1-0.2,0
			C33.9,51,34,50.7,34.3,50.7z"/>
		<path fill-rule="evenodd" clip-rule="evenodd" fill="#D2B159" d="M19.9,53c0.4-0.7,1.2-1.3,1.9-1.9c0.1,0,0.1,0,0.1,0.1
			C21.2,51.8,20.5,52.4,19.9,53z"/>
		<path fill-rule="evenodd" clip-rule="evenodd" fill="#543E26" d="M36.5,51.9c0.1,0,0.1,0.1,0.1,0.1c-0.2,0.2-0.7,0.4-1.1,0.3
			C35.6,52,36.1,52,36.5,51.9z"/>
		<path fill-rule="evenodd" clip-rule="evenodd" fill="#543E26" d="M35.1,52.2c0,0.1,0.1,0.2,0.1,0.4c-0.4,0.3-0.4-0.2-0.8-0.2
			C34.5,52.2,34.8,52.3,35.1,52.2z"/>
		<path fill-rule="evenodd" clip-rule="evenodd" fill="#543E26" d="M33.7,52.7c0,0.2-0.1,0.4-0.4,0.4c0-0.3-0.2-0.6-0.2-0.7
			C33.3,52.3,33.5,52.5,33.7,52.7z"/>
		<path fill-rule="evenodd" clip-rule="evenodd" fill="#D2B159" d="M22.3,53.4c-0.2,1.5-1.2,2.6-1.8,3.7
			C20.9,55.9,21.7,54.7,22.3,53.4z"/>
		<path fill-rule="evenodd" clip-rule="evenodd" fill="#543E26" d="M34.2,54.2c-0.1,0.1-0.5,0.2-0.7,0.1
			C33.5,53.9,34.4,53.5,34.2,54.2z"/>
		<path fill-rule="evenodd" clip-rule="evenodd" fill="#543E26" d="M35.8,54.3c-0.2,0.1-0.4,0.1-0.7,0.1c0.1-0.1,0.1-0.2,0.1-0.3
			C35.5,54.1,35.8,54,35.8,54.3z"/>
		<path fill-rule="evenodd" clip-rule="evenodd" fill="#543E26" d="M34.4,55c0.2,0,0.3,0.2,0.3,0.4c-0.2,0-0.2,0-0.3,0
			C34.4,55.2,34.3,55.1,34.4,55z"/>
		<path fill-rule="evenodd" clip-rule="evenodd" fill="#543E26" d="M66.6,73.3c0.2-0.5,0.7-0.7,1.1-1.1c1.1-1.3,1.6-3,2.3-4.8
			c-0.8,0.5-1.5,1.3-2.6,1.6c0.1-0.4,0.3-0.7,0.4-1c-0.2-0.2-0.5-0.2-0.7-0.3c0.3-0.4,0.5-1,0.8-1.4c0.3-0.3,0.8-0.5,1.2-0.8
			c2.7-2,5.3-3.9,7-7c-0.3,2.4-2.3,3.1-2.8,5.4c0.4-0.1,0.7-0.3,1.1-0.4c0.1,1.2-0.5,2.1-1,2.8c0.3,0,0.6-0.1,1-0.2
			c-1,0.6-1.6,1.6-2.2,2.6c-1.2,2.4-3.5,3.7-5.7,5.2C66.4,73.7,66.5,73.5,66.6,73.3z"/>
		<path fill-rule="evenodd" clip-rule="evenodd" fill="#D2B159" d="M25,59.8c-0.1,0.6-0.4,1.3-0.5,2C24.3,60.9,24.7,60.3,25,59.8z"
			/>
		<path fill-rule="evenodd" clip-rule="evenodd" fill="#D2B159" d="M25.8,61.2c0.1,0,0,0.4,0,0.5c0,0.7-0.1,1.6-0.4,2.3
			C25.6,63,25.7,62.3,25.8,61.2z"/>
		<path fill-rule="evenodd" clip-rule="evenodd" fill="#D2B159" d="M30.6,66.1c-0.1,1-0.5,2-0.7,3C29.7,68.1,30.3,67,30.6,66.1z"/>
		<path fill-rule="evenodd" clip-rule="evenodd" fill="#D2B159" d="M49.9,98.8c-0.4,0-0.9,0.1-1.2,0C49.1,98.7,49.6,98.7,49.9,98.8z
			"/>
		<path fill-rule="evenodd" clip-rule="evenodd" fill="#D2B159" d="M50,98.8c0.3-0.1,0.8,0,1.2,0C50.9,98.8,50.4,98.7,50,98.8z"/>
		<path fill-rule="evenodd" clip-rule="evenodd" fill="#D2B159" d="M17.7,83.1c-0.3-0.2-0.5-0.4-0.7-0.7
			C17.3,82.5,17.5,82.8,17.7,83.1z"/>
		<path fill-rule="evenodd" clip-rule="evenodd" fill="#D2B159" d="M18,83.4c1.2,1.1,2.5,2.2,3.7,3.2C20.4,85.6,19.2,84.6,18,83.4z"
			/>
		<path fill-rule="evenodd" clip-rule="evenodd" fill="#D2B159" d="M22,86.8c0.4,0.3,0.8,0.6,1.2,0.9C22.8,87.4,22.4,87.1,22,86.8z"
			/>
		<path fill-rule="evenodd" clip-rule="evenodd" fill="#92723A" d="M74.4,84.6c0.1-0.3,0.3-0.5,0.6-0.6c-0.2-0.8,0.6-0.8,1-1.1
			c0.6-0.5,0.9-1.3,1.5-1.8c0.1-0.1,0,0.1,0.2,0.1c0.5-1.5,2.2-2.1,2-4.3c0-0.1-0.2-0.1-0.3-0.2c0.4-0.4,0.4-1.3,0.5-2.2
			c0.1-0.9,0.7-1.8,0.1-2.3c0.6-0.6,0.6-1.7,0.9-2.5c0,0.2,0.2,0.3,0.2,0.5c0.1,0,0-0.3,0.2-0.2c0.1-1.2,0.1-2.3,0.5-3.2
			c0.6,0.5,0.7,1.5,0.9,2.5c0.2,1.2,0.4,2.3,0.4,3.8c0.1,2.7,0.2,5.7,0.3,8.3c0,0.1-0.1,0.5,0,0.5c0.1,0.1,0.3-0.3,0.5-0.4
			c-3.1,3.4-6.7,6.3-10.9,8.7c-0.6-0.9-2.1-0.7-3-0.2c-0.4,0.2-0.8,0.6-1.1,0.5c-0.1,0-0.2-0.1-0.3-0.1c0.6-0.4,1-0.9,1.7-1.1
			c0-0.3-0.3-0.2-0.3-0.4c0.6,0,0.7-0.7,1-1.1c0.5-0.7,1.4-0.9,2-1.6c0-0.1-0.2-0.1-0.2-0.1C73.5,85.7,74.2,85.5,74.4,84.6z"/>
		<path fill-rule="evenodd" clip-rule="evenodd" fill="#D2B159" d="M66.3,70.2c-0.1,2.1-1.9,2.6-2.6,4.1c1-0.2,1.9-0.7,2.9-1
			c0,0,0,0,0,0.1c0,0.2-0.1,0.4-0.1,0.6c2.2-1.4,4.5-2.7,5.7-5.2c1.2-1.1,2.4-2.2,3.7-3.2c0.6-1.2,1-2.3,1.5-3.7
			c0.1-0.4,0.4-0.9,0.4-1.3c0.2-1.1-0.2-2.4,0-3.8c-0.2,0.3-0.3,0.5-0.5,0.8c-0.5-0.2-0.7-0.7-0.9-1.1c-0.4,0.1-0.7,0.3-1,0.5
			c0.2-0.3,0.4-0.5,0.7-0.8c0.9-1.2,1.7-3.7,1-5.8c-0.7,1.7-1.5,3.3-2.6,4.7c-0.2,0,0-0.3-0.1-0.4c-0.8,1.4-1.4,3.6-2.5,4.7
			c-0.4,0.4-1.1,0.8-2,0.7c1.5-2.9,3.3-6.1,3.6-10.2c0.2-3.2-0.7-5.7-2.2-7.4c0,1.7-0.2,3.3-0.2,4.9c0-0.2,0.1-0.4,0-0.5
			c-0.1,0.2-0.1,0.5-0.2,0.7c-0.4-0.7-0.6-1.7-0.8-2.5c-0.2-0.9-0.3-1.8-0.3-2.7c0-0.2,0.1-0.5,0-1c-0.2-1-0.8-1.6-1.2-2.4
			c-2,0.2-4.2,0.1-6.2,0c-0.3,0-0.6-0.1-0.8-0.1c-0.2,0-0.5-0.2-0.7-0.2c-0.2,0-0.5,0.1-0.7,0.1c-0.8,0-1.7-0.3-2.3-0.1
			c-0.5,0.1-0.8,0.5-1,0.8c0.1,0.1,0.3,0,0.5,0c-1.2,0.8-1.5,2.6-2.8,3.4c-0.4,0.3-0.9,0.4-1.4,0.6c-1.3,0.4-2.5,1.4-4,1.7
			c-0.5,0.1-1,0.1-1.5,0c-0.3-0.1-0.7-0.3-1-0.3c-1,0-1.9,1.1-2.4,1.7c0,0.4-0.1,0.6-0.1,1c-0.3,0.2-0.5,0.6-0.5,1
			c-0.1,0.3,0.1,0.7,0,0.9c3.1,0,5.5,0.5,7.8,1.3c-0.3,0.2-0.9-0.1-1.3-0.2c-1.8-0.5-3.9-0.8-6.3-0.8c-0.1,0.2,0.2,0.3,0.4,0.4
			c-0.1,0.2-0.3,0.4-0.4,0.6c0,0.2,0.2,0.2,0.2,0.4c-0.6,0.9,0,2.4,0.6,3c0,0,0.4,0.3,0.4,0.3c0,0.3-1,0.4-1.2,0.6
			c0.7,0.3,1.3,0.9,2,1.4c0.8,0.5,2,1.4,1.2,2.5c0.2,0.1,0.6,0.1,0.7,0.3c0,0.5-0.4,0.7-0.7,0.9c-0.3,0.2-0.7,0.4-1.1,0.6
			c-0.7,0.3-1.6,0.9-2.4,0.9c-0.9,0.1-2.3-0.4-2,0.9c0.2,0.1,0.5,0.1,0.7,0.2c-0.4,0.8-2.2,0.2-3,0.7c0.5,0.3,1.5,0.1,2,0.3
			c-0.3,0.4-1.1,0.4-1.7,0.6c0.9,1.3,2,2.9,2.2,5c-0.9-1.6-1.7-3.3-2.5-4.9c-0.5,0-0.9,0.2-1.3,0.3c0,0.2,0.3,0.3,0.5,0.4
			c-0.1,0.2-0.5,0.2-0.7,0.3c-0.1,0.2,0.2,0.1,0.1,0.2c-0.4,0.7-1.3,1.1-2.2,1.5c-0.7,0.3-1.3,0.6-2.1,0.5c-1.2-0.1-1.7-1.2-2.2-2.1
			c-0.1,0-0.1,0.1-0.1,0.1c0.1-0.3,0-0.7-0.4-0.8c-0.4-0.1-1.1,0.3-1.5,0c0.1-0.3,0.4-0.3,0.6-0.5c-0.5-0.6-1.3-0.6-1.8-1.2
			c-0.3-0.3-0.5-1-0.8-1.5c-0.6-1-1.1-1.9-1.5-3c-0.1-0.3-0.2-0.5-0.4-0.7c-0.1-0.2-0.4-0.4-0.3-0.7c0.1,0,0.1-0.1,0.1-0.1
			c0.4,0.6,1.1,0.8,1.6,1.3c0.6,0.6,0.9,1.3,1.8,1.6c0.2,0.3,0.4,0.5,0.7,0.7c0.1,0.1,0.6,0.7,0.7,0.7c0.2,0,0.4-0.7,0.7-0.8
			c0.4-0.1,0.5,0.2,1,0.1c0.2,0,0.1-0.3,0.3-0.3c0.4,0,0.5,0.3,1,0.2c0.2-0.8,0.8-1.6,1.8-1.2c0.1,0.1,0,0.3,0.2,0.4
			c0.6,0.1,1.3,0.1,1.6,0.5c0.2,0,0.2-0.3,0.3-0.5c0.4-0.3,0.6-0.8,0.9-1.1c0.5,0,0.7,0.1,1,0.2c0.1,0.2-0.2,0.2-0.2,0.4
			c0.2,0.2,0.4,0.5,0.6,0.7c0.7,0.1,1.4-0.1,2.1,0.1c0.3,0.1,0.5,0.3,1,0.3c0.2,0.1,0-0.1,0.1-0.2c0.1,0,0.1,0.1,0.2,0
			c0.2-0.1,0.3-0.3,0.5-0.3c0.3-0.1,0.8,0,0.7-0.5c0-0.3-0.2-0.2-0.4-0.3c0.5-0.7,1.7-1.3,1.3-2.5c0-0.2,0.2-0.2,0.2-0.4
			c-0.3-0.4-0.8-0.6-1.5-0.6c-2.3-0.2-4.1,1.2-6.2,1.3c-1.3-0.1-2-0.7-3-1.1c-0.4-0.5-0.8-1-1.1-1.7c0-0.3,0.5-0.1,0.5-0.4
			c0-0.3-0.5-0.2-0.7-0.2c-0.1-0.3-0.2-0.7-0.2-1.1c0.1-0.2,0.3-0.3,0.4-0.5c0-0.2-0.4-0.1-0.5-0.2c0-0.3,0-0.6,0.1-0.8
			c0.3,0,0.3,0.3,0.4,0.4c0.3,0,0.5-0.1,0.7-0.2c-0.1-0.3-0.5-0.4-0.9-0.5c0.1-0.2,0.3-0.1,0.4-0.3c0-0.2-0.4-0.3-0.3-0.4
			c0-0.2,0.1-0.3,0.2-0.4c0.3,0,0.3,0.3,0.6,0.2c0.2-0.1-0.1-0.2-0.1-0.4c0.1,0,0.3,0,0.2-0.2c-0.1-0.3-0.3,0.1-0.5,0
			c0-0.2,0.2-0.3,0.2-0.5c0.3,0.2,0.3,0.6,0.7,0.7c0.4-0.5,0-1.3,0.1-2c0.1-0.8,0.8-1.5,0.3-2.3c-0.1-0.2-0.3-0.3-0.6-0.4
			c-1.5-1.4-3.7-2.1-6.6-2.1c-0.2-0.5-0.9-0.5-1.4-0.7c0.1-0.4,0.3-0.6,0.5-0.8c-0.5,0.1-0.5-0.3-1-0.3c0.3-0.2,0.6-0.4,1.1-0.5
			c0-0.3-0.2-0.4-0.4-0.5c0.2-0.5-0.3-0.7-0.2-1.1c0-0.3,0.5-0.9,0.8-1.2c0.3-0.2,0.8-0.3,1.1-0.4c0.1,0.1,0.2,0.2,0.2,0.3
			c0.1-0.1,0.8,0.1,0.7-0.1c0.2,0.1,0.3,0.3,0.5,0.3c2,1.3,3.6-1.2,4.5-2.2c-0.3,0-0.6,0.5-1,0.5c0.1-0.2,0.2-0.4,0.2-0.7
			c0.4-0.6,1-1,1-2c-0.5-0.1-0.9-0.4-1-0.9c0-0.2,0.3-0.1,0.3-0.3c0-0.2-0.1-0.2-0.1-0.3c-0.1-0.2-0.5,0-0.5-0.2
			c-0.4,0.3-1,0.3-1.7,0.2c-0.4,0-0.7,0.1-1,0.2c0-0.3,0.3-0.2,0.6-0.3c1-0.4,1.9-1.3,2.5-2c0.4-0.4,0.8-1.4,1.7-1.1
			c0.6,0.2,0.5,1.3,0.5,2c0,1-0.1,1.7-0.2,2.5c1.1-1.4,3-2.2,3-4.6c0.1-0.2,0.1,0,0.3,0c-0.3-1.4,0-3.3-0.7-4.3
			c-0.2-0.2-0.4-0.5-0.8-0.4c-1,0.1-1.6,1.1-2.2,1.8c-0.7,0.8-1.4,1.3-2.2,1.7c0.1,0.7-0.2,0.9-0.5,1.2c-0.9-0.1-1.4,0.7-2,1.2
			c0,0.2,0.2,0,0.2,0.2c-0.6,0.6-1.3,1.4-1.5,2.5c0,0.2,0,0.4-0.1,0.6c0,0.2-0.3,0.6,0,0.5c-0.2,0.5-0.5,0.9-0.6,1.5
			c-0.1-0.1-0.2,0-0.2,0.1c-0.8-0.8-1-2.1-1-3.7c-0.2,0.1-0.5,0.5-0.9,0.6c-0.2,0-0.1-0.2-0.3-0.3c-0.3,0-0.4,0.2-0.7,0.2
			c-0.3-2,0.2-3.6,1.2-4.7c0-0.1-0.1-0.3-0.2-0.3c0.1-0.1,0-0.3,0-0.4c1.6-0.5,3-1.2,4.4-1.8c0.5-0.2,1.1-0.4,1.4-0.7
			c0.3-0.3,0.6-1,0.9-1.5c1-1.6,1.9-3.3,1.8-5.9c-0.1-2.4-0.9-5.1-0.1-7.5c-0.4,0.3-0.4,0.9-0.5,1.4c-0.4,2.7-0.2,5.9-0.7,8.5
			c-0.2,1-0.3,2-0.6,2.7c-0.7,1.6-1.9,2.6-3.5,3.2c-0.8,0.3-1.5,0.3-2.2,0.5c-1.9,0.5-3,2.1-4.1,3.7c-1.8,2.7-2.5,5.9-3.2,9.7
			c-0.1,0.5-0.4,1.7-0.3,2c0,0,0,0,0,0c-0.6,1.2-1.1,2.6-1.4,4.2c0.6,0.3,1.4,0.3,2.2,0.4c-0.7,0.1-1.4-0.2-2.2-0.2
			c-0.3,0.8-0.3,1.7-0.4,2.5c0.7-0.1,1.3-0.3,2-0.4c-0.6,0.3-1.4,0.4-2,0.6c0,0.3,0,0.9-0.1,1.3c0.8-0.1,1.6-0.6,2.5-0.8
			c-0.8,0.4-1.7,0.7-2.5,1.2c0,0.4,0,0.9,0,1.3c1.2-0.5,2.5-1.3,3.7-1.8c-0.1,0.2-0.5,0.4-0.9,0.5c-0.9,0.5-1.9,1.1-2.8,1.6
			c0,0.5,0,0.7,0,1.2c0,0.1,0,0.2,0.1,0.2c-0.1,1.8,0.5,4.1,1,5.9c0.6,1.8,1.3,3.5,2.1,4.8c0.1,2.3-0.5,4-1.5,5.2
			c0.5,0.7,1.1,1.5,0.7,2.6c-0.3,0.8-0.8,1.2-0.8,2.1c0,0.4,0.1,0.7,0.1,1.2c0.1,1-0.3,1.8-0.4,2.7C18.2,79,17,80.4,16.6,82
			c-3.3-3.5-6.2-7.5-8.4-12.2c-2.3-5-4.1-10.9-4.4-17.8c-0.1-1.7,0-3.5,0.1-5.2c0.4-6.5,2.2-12.3,4.6-17.1
			c4.7-9.4,12.2-16.9,21.9-21.5C35.6,5.7,41.7,4.1,49,3.9c0.6,0,1.2,0,1.8,0C58.1,4,64.3,5.7,69.6,8.2c9.7,4.5,17.1,12,21.9,21.5
			c2.6,5.1,4.4,11.4,4.7,18.6c0.1,1.3,0.1,2.5,0,3.7c-0.6,13.2-5.8,22.2-12.3,29.6c-0.2,0.1-0.4,0.5-0.5,0.4c-0.1-0.1,0-0.4,0-0.5
			c-0.1-2.5-0.2-5.6-0.3-8.3c-0.1-1.4-0.2-2.6-0.4-3.8c-0.2-1-0.3-2-0.9-2.5c-0.4,0.9-0.4,2-0.5,3.2c-0.2,0-0.1,0.2-0.2,0.2
			c-0.1-0.2-0.2-0.3-0.2-0.5c-0.3,0.8-0.3,2-0.9,2.5c0.7,0.6,0,1.4-0.1,2.3c-0.1,0.9,0,1.8-0.5,2.2c0.1,0.1,0.3,0,0.3,0.2
			c0.3,2.2-1.4,2.8-2,4.3c-0.1,0.1,0-0.1-0.2-0.1c-0.5,0.5-0.8,1.3-1.5,1.8c-0.4,0.3-1.2,0.3-1,1.1c-0.3,0.1-0.5,0.3-0.6,0.6
			c-0.7,0-1.4,0.4-2,0.5c0-0.1,0.1-0.3,0.2-0.3c0.3-0.3,0.7-0.6,1-1.1c0.3-0.6,0.6-1.2,0.9-1.9c0.6-1.3,1-2.7,1.8-3.7
			c-0.3-0.2-0.6-0.4-1-0.6c0.3-0.4,0.7-0.8,0.8-1.4c-0.2-0.1-0.5-0.2-0.7-0.4c0.2-0.4,0-1.2,0-1.6c-0.4,0-0.7,0.2-1,0.2
			c-0.3,0-0.5-0.2-0.8-0.3c-2.5-0.7-3.8,1.5-5.7,2.3c-0.2,0-0.1-0.3-0.2-0.4c-1,0.7-2.1,1.7-2.2,3c-2,0.9-3.3,2.5-4.9,3.8
			c-0.5-0.1-0.6-0.3-1-0.3c-1.9-0.2-2.3,2.6-4.3,1.6c-0.7,0.4-1.2,0.9-1.7,1.5c-3-0.2-4.8,1.7-5.8,3.7c-1.8,0.2-2.3,1.7-3.4,2.6
			c-0.2-0.3-0.2-0.7-0.5-1c-1,0.3-2.1,2.2-3.4,1.9c-0.4-0.1-0.6-0.7-0.7-1.2c-0.3,0-0.8,0.4-1,0.1c-0.4,0.2-0.7,0.6-0.9,1
			c0,0.2,0.3,0.2,0.3,0.5c-0.6,0.5-1.6,0.6-2.4,0.8c-3.5-1.1-6.6-2.5-9.4-4.2c0.3-0.2,0.6-0.3,0.9-0.4c0.1-0.2,0-0.5,0-0.7
			c0.1-0.2,0.3-0.3,0.4-0.5c0.2-0.4,0.3-1,0.7-1.2c0.2,0,0.1,0.3,0.2,0.4c0.4-0.3,0.6-0.7,1-1c0.5-0.4,1.2-0.6,1.8-0.9
			c0.8-0.5,0.4-1.9-0.2-2.5c0-0.3,0.2-0.3,0.2-0.5c-0.2-0.3-0.5-0.4-0.6-0.7c0.2-0.5,0.1-1.1-0.1-1.5c0.1-0.1,0.3,0,0.4-0.1
			c-0.3-0.4-0.4-1-0.5-1.6c0.1-0.1,0.2,0,0.4,0c0.1-0.1-0.2-0.2-0.1-0.4c0.2-0.1,0.2,0.1,0.4,0.1c0-0.4-0.3-0.5-0.4-0.8
			c0.1,0,0.2-0.1,0.3,0c-1.2-1.5-2.5-3-4.2-4c-0.5-0.2-1-0.4-1.5-0.5c-1.2-0.9-2-2.2-2.7-3.6c-0.7-1.4-1.3-2.9-1.7-4.5
			c0.1,0,0.2-0.3,0.3-0.2c0.3,0,0.3,0.4,0.4,0.7c0.3,0.7,1.3,1.4,1.5,2c0.1-0.3-0.1-0.7-0.2-1c0.4,0.1,0.8,0.4,1.1,0.7
			c0.4,0.3,0.8,0.5,1.1,0.7c0.7,0.5,1.5,1,2,1.7c0.2,0.3,0.4,0.7,0.6,1.1c0.2,0.3,0.4,0.9,0.7,1.1c0.3,0.2,1.1,0.4,1.5,0.6
			c0.6,0.2,1.1,0.3,1.7,0.5c1.6,0.4,2.9,0.8,4.9,0.7c2-0.1,3.9-0.7,5.9-1c1-0.2,2.1-0.2,3.1-0.3c1-0.1,1.9-0.4,2.8-0.6
			c1.8-0.5,3.3-1.3,4.8-2c0.8-0.4,1.6-0.7,2.3-1.1c1.1-0.6,1.9-1.5,3.2-1.8c-0.2,0.8-0.6,1.2-1.1,1.6c0.3,0.1,0.6-0.1,1,0
			C57.4,69,56.3,70.1,55,71c-0.4,0.3-0.8,0.7-1.2,1c-0.3,0.2-0.7,0.2-0.9,0.6c1.5,0.1,2.7-1.1,4.2-0.7c0.3,0.4,0.3,1.1,0.4,1.6
			c0.6-0.2,1.1-0.7,1.9-0.6c1.1,0.1,1.7,1.5,3.2,1c0.5-0.2,0.9-0.6,1.4-0.9c0.7-0.5,1.7-0.9,2.1-1.7C66.1,71,66.1,70.5,66.3,70.2z
			 M35.6,9.6c0,0.1,0.4,0,0.4,0.2c-0.1,1.2,0.7,2.1,0.8,3.5c0.2,2.1-0.5,4.1,0.5,5.4c0.2,0.2,0.6,0.4,0.7,0.7c-2-0.4-3,0.4-3.8,1.5
			c-0.6,0.7-1.1,1.6-1.5,2.3c-0.3,0.2-0.4,0.5-0.6,0.7c-0.1,0.2-0.3,0.2-0.5,0.4c0.3,0.1,0.7-0.2,0.9-0.3c2.1-1.3,3.4-3.5,6.1-4.1
			c0.1-0.2-0.2-0.3-0.2-0.5c0.9-0.6,2.7-0.8,3.7-0.2c0.1-0.1,0.1-0.4,0.2-0.5c0.1,0,0.3,0.1,0.3,0c-1-0.5-1.8-1.4-2.2-2.4
			c-0.5-1.1-0.7-2.2-1.1-3.2c-0.2-0.5-0.5-0.9-0.8-1.3c-0.3-0.4-0.7-0.7-1-1.1C37,10,36.5,9.2,35.5,9.1C35.5,9.3,35.6,9.4,35.6,9.6z
			 M73.1,27.3c0.4-1.7,0.9-3.7,0.8-5.9c-0.1-2.2-0.3-4.3-0.7-6.2c-0.4-1.5-1-3.2-1.8-3.7c-1.4-0.9-4-0.6-4.6,0.8
			c0.6,0.4,0.9,0.9,1.4,1.5c0.3,0.4,0.7,0.7,1,1c0.5,0.7,0.4,1.6,0.8,2.4c-0.1,0-0.2-0.1-0.4-0.1c0,0-0.1,0-0.1,0
			c-1.2,0-2.3,0.7-3.5,0.3c0.3-0.4,0.7-0.7,1.1-1c-0.7,0.1-1,0.4-1.5,0.6c0.4-0.9,1.1-1.8,1-3c-0.8,2.2-2.6,3.4-3.5,5.6
			c-0.1,0,0-0.2-0.1-0.2c-0.1-0.7,0-1.4,0.1-2c0.4-2.3,2.6-2.8,3.5-4.7c-0.9,0.4-1.4,1.4-2.1,2.2c-0.7,0.7-1.6,1.5-2.4,2.3
			c-0.3,0.4-0.7,0.8-1.2,1.2c-0.4,0.4-0.9,1-1.2,1.1c-0.4,0.2-1.2,0.3-1.8,0.2c-0.5-0.1-0.8-0.3-1.3-0.3C53.9,19,50.8,20,48,20.1
			c3.1,0.8,7.7-0.4,10.6,0.6c-0.6,0.8-1.4,1.3-1.7,2.5c0,0.1-0.1,0.1-0.2,0.1c0.4,0.6,0.9,1.1,1.2,1.9c0.1,0.1,0.3-0.1,0.4,0
			c0.5,1.2,1.5,1.8,2,2.9c0.1,0.1,0,0.4,0.1,0.4c0,0,0,0,0-0.1c0.6,0.7,1.3,1.2,2.1,1.7c0.9,0.4,1.8,0.8,2.6,1.2
			c0,0.2-0.1,0.6,0,0.8c0.2,0,0.4-0.4,0.6-0.5c1.1,0.4,1.9,1.2,2.6,2c-0.1-0.3-0.2-0.8,0-1.1c1.7-0.5,1.4-3,2.8-3.9c0,0,0,0,0,0
			c0.2,0.4,0.3,0.8,0.6,1.2c0.5-0.4,0.7-1.1,1-1.7c0.1-0.1,0.1-0.1,0.2,0c0.1,0.2,0.3,0.8,0.4,1.1c0.7,1.9,1.5,3.5,2,5.5
			c0.2,0.9,0.2,1.7,0.3,2.7c0.1,1.3,0.3,2.6,0.5,3.8c0.2,1.2,0.7,2.3,0.9,3.4c0-0.1,0-0.2,0.1-0.2c0.5,3.5,2.2,5.8,2.5,9.4
			c0.1,0.2,0.3-0.2,0.4,0c0,0.3-0.1,0.4-0.1,0.6c0.1,0.1,0.3,0,0.3,0.1c-0.1,0.2-0.3,0.4-0.3,0.6c0.5,0.4,0.6,1.2,0.9,1.9
			c0.1,0.2,0.2,0.3,0.3,0.5c0.2,0.7-0.1,1.5,0.2,2.3c1.2,0.5,0.3,3,1.1,3.9c0.1-3.2-0.6-6-1.6-8.6c-0.5-1.3-0.9-2.6-1.2-3.9
			c-0.3-1.4-0.4-2.9-0.9-4.2c-0.5-1.3-1.1-2.5-1.5-3.8c-0.4-1.4-0.4-3.4-0.6-4.9c-0.2-2.1-0.7-4-1.5-5.6
			C74.4,30.9,74,28.9,73.1,27.3z M44,24.8c-1.6,1.4-3,2.8-3.7,5c-0.4,1.2-0.7,2.7-1.7,3.2c-0.3,0.9-0.2,1.9-0.3,2.8
			c-0.1,0.4-0.3,0.8-0.3,1.2c0.9-1,1.6-2.1,2.7-2.8c0.4-0.2,0.8-0.4,1.2-0.7c0.6-0.4,0.8-1.2,1.2-1.7c-0.2-0.1-0.3,0.2-0.3,0
			c0.1-0.2,0.1-0.3,0.2-0.5c0.2-1.6,1.2-2.4,1.6-3.7c-0.2-0.1-0.2,0.2-0.3,0c0.1-0.3,0.4-0.5,0.6-0.7c-0.1-0.1-0.5-0.1-0.6-0.2
			c1.3-1,2.5-1.9,3.9-2.8c-0.3,0-0.6,0-0.7-0.1c0.2-0.4,0.8-0.5,0.9-0.8C46,22.9,45,23.9,44,24.8z M69.9,32.3
			c-0.1,0.2-0.4,0.2-0.7,0.2c0.1,0.2,0.3,0.4,0.3,0.7c-0.4,0.2-0.6,0.4-0.7,0.9c-0.1,1.3,1.6,2.7,2.4,3.3c0,0.3,0.1,0.5,0.1,0.8
			c1.5,0.1,1.4-1.5,1.3-2.8c-0.4,0-0.7,0.2-0.9,0.2c0.4-0.8,0.9-1.8,0.8-3.1c-0.1-0.1-0.3,0.2-0.5,0.1c0.1-0.4,0.2-0.8,0.1-1.2
			c-0.5,0.4-1.1,1-2,0.8c-0.2,0-0.3-0.2-0.5,0C69.8,32.3,69.9,32.2,69.9,32.3z M53,39.1c0.2-0.5,0.9-0.9,0.7-1.5
			c-0.1-0.2-0.7-0.6-1-0.8c-1-0.7-2.4-1.6-3.8-1.7c-2.1-0.2-2.7,1-3.6,1.9c-0.2,0-0.5,0-0.7,0c-0.5-0.1-0.2-0.8-0.4-1.1
			c-0.5,0-0.9,0.2-1.3,0c-0.1,0.9-1.7,1.2-1.6,2.1c0,0.4,0.4,0.5,0.7,0.8c-0.5,0.5-0.3,1.5-0.4,2.2c0,0.1-0.1,0.2-0.1,0.4
			c0.1,0.7,0.8,1,1.4,1.1c0.3-0.7,0.5-1.5,0.8-2.2c0.2,0,0.2-0.3,0.5-0.3c0.2,0.8,1.4,1.3,2.5,1.4c2.2,0.3,4.2-0.1,5.2-1.1
			C52.3,39.9,52.7,39.5,53,39.1z M37.8,43c-1.2-0.5-2.4,0.4-3.8,0.3c0.2,0.3,0.7,0.2,1.1,0.2c0.2,0.1,0.4,0.2,0.6,0.2
			c0.5,0,0.9-0.2,1.3,0c0.1,0.1,0.2,0.3,0.3,0.4c0.3,0.5,0.4,1.1,0.8,1.5c0.5,0.4,1,0.4,1.6,0.9c0.2-0.6-0.4-1.4,0-2
			C38.6,44.6,38.6,43.4,37.8,43z M36.6,49.5c0,0.2,0,0.3,0,0.5c0.3-0.1,0.6-0.2,0.7-0.5C37.1,49.2,36.9,49.5,36.6,49.5z M35.4,50
			c0,0.2,0.1,0.4,0.3,0.4c0,0,0,0,0.1,0C35.8,50.1,35.6,49.9,35.4,50z M34,51.2c0.1,0,0.1-0.1,0.2,0c0-0.1,0.1-0.2,0-0.4
			C34,50.7,33.9,51,34,51.2z M35.5,52.3c0.5,0.1,0.9-0.1,1.1-0.3c0-0.1,0-0.1-0.1-0.1C36.1,52,35.6,52,35.5,52.3z M34.4,52.5
			c0.4,0,0.4,0.5,0.8,0.2c0-0.2-0.1-0.2-0.1-0.4C34.8,52.3,34.5,52.2,34.4,52.5z M33.1,52.4c0,0.1,0.2,0.4,0.2,0.7
			c0.3,0,0.4-0.2,0.4-0.4C33.5,52.5,33.3,52.3,33.1,52.4z M33.5,54.4c0.2,0.1,0.6,0,0.7-0.1C34.4,53.5,33.5,53.9,33.5,54.4z
			 M35.2,54.1c0,0.1,0,0.2-0.1,0.3c0.3,0.1,0.5,0,0.7-0.1C35.8,54,35.5,54.1,35.2,54.1z M34.4,55.4c0.1,0.1,0.2,0.1,0.3,0
			c0-0.2-0.1-0.4-0.3-0.4C34.3,55.1,34.4,55.2,34.4,55.4z"/>
		<path fill-rule="evenodd" clip-rule="evenodd" fill="#92723A" d="M72.1,68.8c0.6-1,1.2-2,2.2-2.6c-0.3,0-0.6,0.1-1,0.2
			c0.5-0.7,1.2-1.6,1-2.8c-0.4,0.1-0.7,0.3-1.1,0.4c0.5-2.3,2.4-3,2.8-5.4c-1.6,3-4.2,5-7,7c-0.4,0.3-0.9,0.5-1.2,0.8
			c-0.4,0.4-0.5,1-0.8,1.4c0.2,0.1,0.5,0.1,0.7,0.3c-0.1,0.4-0.3,0.7-0.4,1c1-0.3,1.8-1.2,2.6-1.6c-0.7,1.7-1.2,3.5-2.3,4.8
			c-0.4,0.4-0.8,0.6-1.1,1.1c0,0,0,0,0-0.1c-0.9,0.3-1.9,0.9-2.9,1c0.7-1.6,2.5-2,2.6-4.1c0,0,0,0,0,0c0-0.3,0-0.5-0.1-0.7
			c-0.5,0-1.2,0.1-1.6,0.4c0.1-1,0.5-1.7,0.7-2.5c-0.3-0.1-0.7,0.1-1,0c0.6-1.1,1.6-1.9,2.5-2.7c-1.5,0.2-2.7,1.1-4.1,1.7
			c2.7-3.9,5-8.1,7-12.9c0.7-1.7,1.4-3.4,1.3-5.5c0-0.3,0-0.5,0-0.7c0-1.5,0.2-3.2,0.2-4.9c1.5,1.7,2.4,4.2,2.2,7.4
			c-0.3,4.1-2.1,7.3-3.6,10.2c0.9,0.2,1.6-0.2,2-0.7c1.2-1.1,1.7-3.4,2.5-4.7c0,0.1-0.1,0.4,0.1,0.4c1.1-1.4,1.9-2.9,2.6-4.7
			c0.6,2.2-0.1,4.6-1,5.8c-0.2,0.3-0.5,0.5-0.7,0.8c0.3-0.2,0.7-0.4,1-0.5c0.2,0.4,0.4,0.9,0.9,1.1c0.2-0.2,0.4-0.5,0.5-0.8
			c-0.2,1.4,0.2,2.7,0,3.8c-0.1,0.4-0.3,0.9-0.4,1.3c-0.5,1.4-0.9,2.6-1.5,3.7C74.5,66.6,73.3,67.7,72.1,68.8z"/>
		<path fill-rule="evenodd" clip-rule="evenodd" fill="#92723A" d="M29,37.6c1,0.5,1.7-0.5,2.4-0.9c0.3-0.1,0.5-0.1,0.7-0.3
			c0.2-0.1,0.3-0.4,0.5-0.6c0.3,0.1,0.7-0.5,1-0.5C32.6,36.4,31,38.9,29,37.6z"/>
		<path fill-rule="evenodd" clip-rule="evenodd" fill="#92723A" d="M32.8,35.2c0.5-1.7-0.4-3.3-2-3.5c0.6,0,1.3,0,1.7-0.2
			c0,0.2,0.4,0.1,0.5,0.2c0,0.1,0.1,0.1,0.1,0.3c0,0.2-0.3,0.1-0.3,0.3c0.1,0.5,0.5,0.7,1,0.9C33.7,34.2,33.2,34.6,32.8,35.2z"/>
		<path fill-rule="evenodd" clip-rule="evenodd" fill="#92723A" d="M25.5,26.9c-1.8,1.4-3.2,3.8-4.2,6.2c-0.2,0.6-0.5,1.3-0.7,1.9
			c-0.4,1.4-0.6,2.8-1.2,4c-0.3,0.6-0.5,1.2-0.7,1.8c0,0,0,0,0,0c-0.1-0.3,0.2-1.5,0.3-2c0.7-3.8,1.4-7,3.2-9.7
			c1-1.6,2.2-3.2,4.1-3.7c0.7-0.2,1.4-0.2,2.2-0.5c1.6-0.6,2.9-1.6,3.5-3.2c0.3-0.8,0.4-1.8,0.6-2.7c0.5-2.6,0.3-5.8,0.7-8.5
			c0.1-0.5,0.1-1.1,0.5-1.4c-0.7,2.4,0,5.1,0.1,7.5c0.1,2.6-0.8,4.3-1.8,5.9c-0.3,0.4-0.5,1.2-0.9,1.5c-0.3,0.3-1,0.4-1.4,0.7
			c-1.5,0.7-2.8,1.4-4.4,1.8C25.5,26.6,25.6,26.8,25.5,26.9z"/>
		<path fill-rule="evenodd" clip-rule="evenodd" fill="#92723A" d="M63.2,17.3c-0.6,1-1.1,2.1-1.7,3.2c-0.6,1.1-1.5,1.9-2,2.9
			c-0.4,0.6-0.3,1.5-0.2,2.3c0.1,0,0.1-0.4,0.3-0.4c0.1,0.2,0.2,0.4,0.3,0.6c0.2-0.1,0.2-0.4,0.3-0.6c0.1,0.7,0,2,0.2,2.7
			c-0.6-1.1-1.6-1.7-2-2.9c-0.1-0.1-0.3,0.1-0.4,0c-0.2-0.8-0.8-1.2-1.2-1.9c0.1,0,0.2,0,0.2-0.1c0.2-1.1,1-1.7,1.7-2.5
			c-2.9-1-7.6,0.2-10.6-0.6c2.7-0.1,5.9-1.1,8.6-0.9c0.5,0,0.9,0.3,1.3,0.3c0.6,0.1,1.4,0,1.8-0.2c0.4-0.2,0.8-0.8,1.2-1.1
			c0.4-0.4,0.8-0.9,1.2-1.2c0.7-0.8,1.7-1.6,2.4-2.3c0.7-0.7,1.2-1.7,2.1-2.2C65.8,14.4,63.6,15,63.2,17.3z"/>
		<path fill-rule="evenodd" clip-rule="evenodd" fill="#92723A" d="M71.4,28.6C71.3,28.6,71.3,28.6,71.4,28.6
			c-1.4,0.8-1.2,3.3-2.9,3.8c-0.1,0.3,0,0.8,0,1.1c-0.7-0.8-1.5-1.5-2.6-2c0.2-0.2,0.4-0.5,0.7-0.5c0.1,0.2-0.2,0.4-0.3,0.5
			c0.2,0.2,0.7,0.1,1,0.2c0.1,0.2-0.2,0.3-0.2,0.4c0.7-0.1,1.5-0.3,1.8-0.8c-0.3-0.2-0.6,0.1-0.9,0.1c-0.3-0.4-0.9-0.5-1-1
			c-0.1-0.7,0.7-1.5,1.1-1.9c0.8-0.8,2-1.4,2.7-2.1C70.9,27.2,71.1,27.9,71.4,28.6z"/>
		<path fill-rule="evenodd" clip-rule="evenodd" fill="#92723A" d="M73.1,27.3c0.8,1.6,1.2,3.6,2.1,5.2c0.8,1.6,1.3,3.5,1.5,5.6
			c0.1,1.5,0.2,3.5,0.6,4.9c0.3,1.3,1,2.5,1.5,3.8c0.5,1.4,0.5,2.8,0.9,4.2c0.3,1.3,0.7,2.6,1.2,3.9c1,2.6,1.7,5.4,1.6,8.6
			c-0.7-0.9,0.1-3.4-1.1-3.9c-0.2-0.8,0.1-1.6-0.2-2.3c-0.1-0.2-0.2-0.3-0.3-0.5c-0.3-0.7-0.3-1.5-0.9-1.9c0-0.3,0.2-0.4,0.3-0.6
			c0-0.1-0.2,0-0.3-0.1c0-0.2,0.1-0.3,0.1-0.6c-0.1-0.1-0.3,0.2-0.4,0c-0.3-3.6-2.1-5.9-2.5-9.4c-0.1,0-0.1,0.1-0.1,0.2
			c-0.2-1.1-0.7-2.2-0.9-3.4c-0.2-1.2-0.4-2.5-0.5-3.8c-0.1-1-0.1-1.8-0.3-2.7c-0.5-2-1.3-3.6-2-5.5c-0.1-0.3-0.2-1-0.4-1.1
			c-0.1-0.1,0-0.1-0.2,0C73,27.8,73,27.5,73.1,27.3z"/>
		<path fill-rule="evenodd" clip-rule="evenodd" fill="#D2B159" d="M70.9,47.9c0.1,2.1-0.6,3.8-1.3,5.5c-2,4.8-4.3,9-7,12.9
			c1.3-0.5,2.6-1.4,4.1-1.7c-0.9,0.8-1.8,1.6-2.5,2.7c0.2,0.1,0.7-0.2,1,0c-0.2,0.8-0.6,1.6-0.7,2.5c0.4-0.3,1.1-0.4,1.6-0.4
			c0.1,0.2,0.1,0.4,0.1,0.7c-0.1-0.1-0.1-0.4-0.2-0.6c-0.4,0-0.7,0-1,0.1c-0.3,0.1-0.4,0.5-0.7,0.4c0.1-0.9,0.5-1.8,0.7-2.6
			c-0.3-0.1-0.7,0.1-1.1,0.1c0.6-1,1.5-1.8,2.3-2.6c-1.5,0.4-2.6,1.1-4,1.7c0.3-0.7,0.9-1.2,1.2-2c0.4-0.4,0.7-1,1-1.5
			c2.2-3.5,4.1-7.4,5.7-11.5C70.6,50.4,70.8,49,70.9,47.9z"/>
		<path fill-rule="evenodd" clip-rule="evenodd" fill="#92723A" d="M53,39.1c-0.3,0.5-0.6,0.9-1.1,1.1C52.2,39.8,52.6,39.5,53,39.1
			C52.9,39.1,52.9,39.1,53,39.1z"/>
		<path fill-rule="evenodd" clip-rule="evenodd" fill="#543E26" d="M33.7,44.8c0.3,0.1,0.5,0.2,0.6,0.4c0.6,0.9-0.2,1.5-0.3,2.3
			c-0.1,0.7,0.3,1.5-0.1,2c-0.4-0.1-0.4-0.5-0.7-0.7C33.1,49,33,49,32.9,49.2c0.2,0.1,0.4-0.3,0.5,0c0.1,0.2-0.1,0.2-0.2,0.2
			c0,0.2,0.3,0.3,0.1,0.4c-0.3,0-0.3-0.2-0.6-0.2c0,0.1-0.2,0.2-0.2,0.4c0,0.1,0.3,0.2,0.3,0.4c0,0.2-0.3,0.2-0.4,0.3
			c0.4,0.1,0.7,0.1,0.9,0.5c-0.2,0.1-0.3,0.2-0.7,0.2c-0.1-0.1-0.1-0.4-0.4-0.4c-0.1,0.2-0.1,0.5-0.1,0.8c0.1,0.1,0.4,0,0.5,0.2
			c-0.1,0.2-0.3,0.3-0.4,0.5c0.1,0.4,0.1,0.8,0.2,1.1c0.2,0,0.7-0.1,0.7,0.2c0,0.3-0.5,0.1-0.5,0.4c0.2,0.7,0.7,1.2,1.1,1.7
			c-0.7-0.2-1.4-0.5-2-0.8c-2-0.6-5.1-1.7-7.7-0.8c3,1.3,7.1,1.4,10.2,2.5c2.8,1,7.5,1.1,9.5-0.7c-1.4,0.4-3.4,0.4-5,0.7
			c-0.7,0.1-1.4,0.4-2,0.2c2.1-0.2,3.9-1.5,6.2-1.3c0.6,0,1.1,0.2,1.5,0.6c0,0.2-0.3,0.2-0.2,0.4c0.4,1.2-0.8,1.8-1.3,2.5
			c0.2,0.2,0.3,0.1,0.4,0.3c0,0.4-0.5,0.3-0.7,0.5c-0.2,0.1-0.3,0.3-0.5,0.3c-0.1,0-0.1-0.1-0.2,0c-0.1,0.1,0.1,0.3-0.1,0.2
			c-0.4,0-0.7-0.2-1-0.3c-0.6-0.2-1.3,0-2.1-0.1c-0.2-0.2-0.4-0.5-0.6-0.7c0-0.2,0.3-0.2,0.2-0.4c-0.3-0.1-0.5-0.3-1-0.2
			c-0.3,0.3-0.6,0.8-0.9,1.1c-0.1,0.2-0.1,0.4-0.3,0.5c-0.3-0.4-1-0.5-1.6-0.5c-0.1,0-0.1-0.3-0.2-0.4c-1-0.4-1.6,0.4-1.8,1.2
			c-0.4,0.1-0.6-0.1-1-0.2c-0.2,0-0.1,0.3-0.3,0.3c-0.5,0-0.6-0.2-1-0.1c-0.3,0.1-0.5,0.8-0.7,0.8c-0.1,0-0.6-0.6-0.7-0.7
			c-0.3-0.3-0.5-0.4-0.7-0.7c-0.9-0.3-1.2-1-1.8-1.6c-0.5-0.5-1.2-0.8-1.6-1.3c-0.5-0.5-0.2-1.6-0.5-2.3c-0.3-0.9-1.1-1.5-1.4-2.4
			c-0.3-0.9,0-2.2,0.2-3.1c0.1-0.6,0.4-1.2,0.5-1.9c0.1-0.3,0-0.8,0.2-1c0.1,1.5,0.6,2.5,1.4,3.3c-0.2,1.3,1.2,1.3,1.1,2.5
			c0.2,0.1,0.4-0.1,0.7-0.1c0,0.3,0.1,0.6,0.2,0.9c0.3-0.2,0.2-0.8,0.3-1.2c0.2,0,0.4,0.1,0.5,0.2c0.3-0.1,0.7-0.1,1-0.2
			c0.3,0.1,0.4,0.4,0.7,0.5c0,0.1-0.1,0.2-0.1,0.3c0.7-0.1,0.9,0.3,1.4,0.4c0,0.2,0,0.5-0.2,0.5c0.1,0.2,0.4,0.1,0.6,0.1
			c0.1-0.2,0.1-0.4,0-0.5c0.6-0.6-0.1-1.1-0.2-1.7c0.2,0,0.3,0,0.5,0c0-0.3-0.4-0.3-0.6-0.3c0-0.5,0.3-0.7,0.3-1.2
			c-0.1-0.2-0.4-0.1-0.7-0.1c0.5-0.6,1.1-1.1,1.5-1.8c0.3-0.2,0.6-0.7,1-1C33.5,46.5,34.3,46,33.7,44.8z"/>
		<path fill-rule="evenodd" clip-rule="evenodd" fill="#D2B159" d="M68.9,90.4c0.4,0.1,0.7-0.3,1.1-0.5c0.9-0.4,2.4-0.7,3,0.2
			c-5.7,3.1-12.9,6-21.8,6.1c-3,0-6-0.1-8.7-0.6c0.7-0.3,1.4-0.5,2.2-0.4c0.4,0.1,0.9,0.3,1.4,0.5c0.8,0.2,1.6,0.1,2.1,0.4
			c0.5-0.2,1.3-0.7,1.9-0.5c0.2,0.1,0.2,0.4,0.5,0.5c1.2,0.1,2-0.8,3.2-0.4c0.7-0.6,1.6-0.3,2.3-0.5c0.9-0.3,1.2-1.1,1.9-1.6
			c0.7-0.5,1.7-0.7,2.6-0.8c0.9-0.2,1.8-0.4,2.7-0.7c0,0.5-0.2,0.6-0.2,1.1c0.8,0,1.4-0.7,2.2-1c0.9-0.3,2.1-0.2,2.3-1.2
			c0.2,0,0.3,0.2,0.5,0.1C68.3,90.9,68.9,90.7,68.9,90.4z"/>
		<path fill-rule="evenodd" clip-rule="evenodd" fill="#FFFFFF" d="M0.1,0.2c33.3,0,66.5,0,99.8,0c0,33.3,0,66.6,0,99.8
			c-33.3,0-66.6,0-99.8,0C0,66.8,0,33.5,0,0.3C0,0.2,0,0.2,0.1,0.2z M51.2,98.7c11.5-0.5,20.1-4,27.1-9.1c7-5.1,12.6-11.7,16.2-20
			c1.8-4.2,3.2-8.9,3.8-14.3c0.6-5.6,0.2-11.5-1-16.5c-2.3-9.6-6.9-17.2-12.9-23.3c-7.5-7.5-17.4-13-31-14.1
			c-2.8-0.2-5.7-0.1-8.7,0.2c-5.3,0.5-10.2,2-14.3,3.8c-8.3,3.6-14.9,9.2-20,16.2c-5,6.9-8.6,15.6-9.1,27.1c-0.1,0.3,0,0.9,0,1.3
			c0,0,0,0.1,0,0.1c0,0.4-0.1,0.9,0,1.2c0.2,7.5,2,13.8,4.5,19.2c5.1,10.8,13,18.5,23.7,23.7c5.4,2.6,11.7,4.3,19.2,4.5
			c0.3,0.1,0.8,0,1.2,0c0.1,0,0.1,0,0.2,0C50.4,98.7,50.9,98.8,51.2,98.7z"/>
		<path fill-rule="evenodd" clip-rule="evenodd" fill="#92723A" d="M63.9,22.6c-0.2,0.6-0.5,0.9-0.8,1.4c0,0.2-0.1,0.4-0.2,0.5
			c0.7-0.3,1.2-0.7,2-0.8c0.2,0,0.1,0.2,0.2,0.1c0.3-0.3,0.9-0.7,1.4-0.4c-0.1,0.4-0.2,0.8-0.6,1c0.5,0.1,0.9-0.2,1.3-0.2
			c-0.3,0.9-1.2,1.3-2,1.8c-0.5,1.1-1.2,2-2.2,2.7c0,0.2,0,0.4,0,0.6c1.1-0.3,1.7,0.6,2.1,1.3c0,0.2,0,0.3,0,0.5
			c0.2,0.1,0.2-0.1,0.4-0.1c0,0.2-0.1,0.2-0.2,0.4c-0.9-0.4-1.8-0.8-2.6-1.2c-0.9-0.4-1.5-0.9-2.1-1.7c0.1-0.5,0.3-1,0.4-1.5
			c0.2,0,0.1,0.2,0.2,0.2c0.3-0.7,0.1-1.6,0.2-2.5c0.1-1,0.4-2,0.7-2.7c-0.4,0.4-0.8,1.2-1.4,1.5c0.7-1.5,1.6-2.8,2.3-4.3
			c0,0.1,0,0.2,0.1,0.2c0.9-2.2,2.7-3.4,3.5-5.6c0,1.2-0.6,2.1-1,3c0.5-0.2,0.9-0.5,1.5-0.6c-0.4,0.3-0.8,0.6-1.1,1
			c1.1,0.3,2.2-0.4,3.5-0.3c0,0,0.1,0,0.1,0c-0.2,0.2,0.3,0,0.3,0.2c-0.4,0.1-0.7,0.3-1,0.5c-0.7,0.3-1.1,0.4-1.7,0.7
			c-0.4,0.2-0.8,0.4-1,0.5c-0.2,0.1-0.4,0.4-0.6,0.7c-0.2,0.2-0.5,0.4-0.7,0.6c-0.1,0.1-0.1,0.2-0.2,0.3c-0.2,0.2-0.5,0.3-0.7,0.5
			c-0.3,0.2-0.5,0.6-0.8,0.7c-0.1,0.3-0.2,0.7-0.2,1C63.4,22.9,63.6,22.5,63.9,22.6C63.9,22.6,63.9,22.6,63.9,22.6z"/>
		<path fill-rule="evenodd" clip-rule="evenodd" fill="#ECD592" d="M29.7,31.9c-0.7,0.3-1.2,0.8-1.5,1.5c-0.2,0.1,0-0.3,0-0.5
			c0-0.2,0.1-0.4,0.1-0.6c0.2-1.1,0.9-1.9,1.5-2.5c0.1-0.2-0.2-0.1-0.2-0.2c0.5-0.5,1.1-1.3,2-1.2c0.3-0.3,0.6-0.5,0.5-1.2
			c0.8-0.4,1.5-1,2.2-1.7c0.6-0.7,1.2-1.7,2.2-1.8c0.5,0,0.7,0.2,0.8,0.4c0.7,1.1,0.4,2.9,0.7,4.3c-0.2,0-0.2-0.2-0.3,0
			c0,2.4-2,3.1-3,4.6c0.1-0.8,0.2-1.6,0.2-2.5c0-0.7,0-1.8-0.5-2c-0.9-0.2-1.3,0.7-1.7,1.1c-0.7,0.7-1.5,1.6-2.5,2
			C30.1,31.7,29.7,31.6,29.7,31.9z"/>
		<path fill-rule="evenodd" clip-rule="evenodd" fill="#543E26" d="M69.7,32.2c0.2-0.2,0.4,0,0.5,0c0.8,0.2,1.4-0.5,2-0.8
			c0.1,0.4,0,0.8-0.1,1.2c0.1,0.1,0.3-0.2,0.5-0.1c0.1,1.2-0.3,2.2-0.8,3.1c0.2,0,0.5-0.2,0.9-0.2c0.1,1.3,0.2,2.9-1.3,2.8
			c0-0.3-0.1-0.5-0.1-0.8c-0.8-0.6-2.4-2-2.4-3.3c0-0.5,0.3-0.7,0.7-0.9c-0.1-0.3-0.2-0.5-0.3-0.7c0.3,0,0.5,0,0.7-0.2
			C69.9,32.2,69.8,32.3,69.7,32.2z"/>
		<path fill-rule="evenodd" clip-rule="evenodd" fill="#ECD592" d="M30.1,32.7c0.2,0,0.2-0.1,0.4,0c0.1,0.1,0.2,0.3,0.2,0.5
			c0.2,0.1,0.5,0.2,0.5,0.4c0,0.4-0.4,0.1-0.7,0.2c-0.5,0.1-0.9,0.8-0.9,1.2c-0.2,0.5,0,1.3-0.5,1.4c-0.5,0.1-0.8-0.8-0.9-1.2
			C28,33.6,29.3,33.2,30.1,32.7z"/>
		<path fill-rule="evenodd" clip-rule="evenodd" fill="#543E26" d="M30.1,32.7c-0.7,0.5-2.1,0.9-1.9,2.5c0.1,0.4,0.4,1.3,0.9,1.2
			c0.5-0.1,0.3-0.9,0.5-1.4c0.1,0.8,0,1.7,0.9,1.8c-1.8,1.4-3.1-1.4-2.2-3C28.6,33.1,29.3,32.8,30.1,32.7z"/>
		<path fill-rule="evenodd" clip-rule="evenodd" fill="#ECD592" d="M27.6,34.9c0,1.1,0.3,1.9,0.9,2.5c0.1,0.2-0.5,0.1-0.7,0.1
			c-0.1-0.1-0.1-0.2-0.2-0.3c-0.3,0.1-0.8,0.2-1.1,0.4c-0.3,0.2-0.8,0.9-0.8,1.2c0,0.4,0.4,0.6,0.2,1.1c0.2,0.1,0.4,0.2,0.4,0.5
			c-0.5,0.1-0.8,0.3-1.1,0.5c0.5,0,0.5,0.4,1,0.3c-0.2,0.3-0.5,0.4-0.5,0.8c0.4,0.3,1.2,0.2,1.4,0.7c-1.4,0.2-2.5,0.7-3,1.8
			c-0.1,0.7-0.4,1.1-0.4,2c-0.2,0.3-0.1,0.7-0.2,1c-0.1,0.7-0.4,1.3-0.5,1.9c-0.2,0.9-0.4,2.2-0.2,3.1c0.3,0.8,1.1,1.5,1.4,2.4
			c0.3,0.7,0,1.8,0.5,2.3c0,0.1-0.1,0.1-0.1,0.1c-0.1,0.3,0.2,0.5,0.3,0.7c0.1,0.2,0.3,0.5,0.4,0.7c0.5,1.1,0.9,2,1.5,3
			c0.3,0.5,0.5,1.1,0.8,1.5c0.5,0.6,1.4,0.6,1.8,1.2c-0.2,0.2-0.5,0.2-0.6,0.5c0.4,0.3,1.1-0.1,1.5,0c0.4,0.1,0.5,0.5,0.4,0.8
			c0,0,0-0.2,0.1-0.1c0.5,0.9,1,2,2.2,2.1c0.8,0.1,1.4-0.3,2.1-0.5c0.9-0.4,1.8-0.8,2.2-1.5c0-0.2-0.2-0.1-0.1-0.2
			c0.2-0.1,0.6-0.1,0.7-0.3c-0.2-0.1-0.4-0.1-0.5-0.4c0.4-0.1,0.8-0.3,1.3-0.3c0.8,1.6,1.6,3.3,2.5,4.9c-0.3-2.1-1.3-3.6-2.2-5
			c0.6-0.2,1.3-0.2,1.7-0.6c-0.5-0.3-1.5-0.1-2-0.3c0.7-0.5,2.5,0.1,3-0.7c-0.2-0.1-0.6-0.1-0.7-0.2c-0.3-1.2,1.1-0.8,2-0.9
			c0.8-0.1,1.7-0.6,2.4-0.9c0.4-0.2,0.8-0.4,1.1-0.6c0.3-0.2,0.7-0.5,0.7-0.9c-0.1-0.2-0.5-0.2-0.7-0.3c0.7-1.1-0.4-2-1.2-2.5
			c-0.7-0.5-1.3-1.1-2-1.4c0.2-0.2,1.2-0.3,1.2-0.6c0,0-0.4-0.3-0.4-0.3c-0.6-0.6-1.3-2.1-0.6-3c0-0.2-0.2-0.2-0.2-0.4
			c0.1-0.2,0.3-0.3,0.4-0.6c-0.1-0.1-0.5-0.2-0.4-0.4c2.4,0,4.5,0.3,6.3,0.8c0.4,0.1,0.9,0.4,1.3,0.2c-2.3-0.8-4.7-1.3-7.8-1.3
			c0.1-0.2-0.1-0.6,0-0.9c0.1-0.4,0.3-0.7,0.5-1c0.1-0.4,0.1-0.6,0.1-1c0.5-0.7,1.4-1.7,2.4-1.7c0.4,0,0.7,0.2,1,0.3
			c0.5,0.1,1,0.1,1.5,0c1.5-0.3,2.7-1.3,4-1.7c0.5-0.1,1-0.3,1.4-0.6c1.3-0.8,1.7-2.6,2.8-3.4c-0.2,0-0.3,0.1-0.5,0
			c0.3-0.3,0.6-0.6,1-0.8c0.6-0.2,1.5,0.1,2.3,0.1c0.2,0,0.6-0.1,0.7-0.1c0.2,0,0.5,0.2,0.7,0.2c0.3,0.1,0.6,0.1,0.8,0.1
			c2.1,0.1,4.2,0.2,6.2,0c0.4,0.8,1,1.4,1.2,2.4c0.1,0.4,0,0.7,0,1c0,0.8,0.1,1.8,0.3,2.7c0.2,0.9,0.4,1.8,0.8,2.5
			c0.1-0.2,0.1-0.5,0.2-0.7c0.1,0.1,0,0.4,0,0.5c0,0.3,0,0.5,0,0.7c-0.1,1.1-0.3,2.5-0.5,3.6c-1.6,4.1-3.5,8.1-5.7,11.5
			c-0.3,0.5-0.6,1.1-1,1.5c-0.3,0.8-0.9,1.3-1.2,2c1.3-0.6,2.4-1.4,4-1.7c-0.8,0.8-1.7,1.6-2.3,2.6c0.4,0.1,0.8-0.2,1.1-0.1
			c-0.3,0.8-0.7,1.7-0.7,2.6c0.3,0.1,0.4-0.3,0.7-0.4c0.3-0.1,0.6,0,1-0.1c0.1,0.2,0,0.5,0.2,0.6c0,0,0,0,0,0
			c-0.2,0.3-0.1,0.8-0.3,1.1c-0.4,0.8-1.3,1.2-2.1,1.7c-0.5,0.4-0.9,0.8-1.4,0.9c-1.4,0.5-2-0.9-3.2-1c-0.8-0.1-1.2,0.5-1.9,0.6
			c-0.1-0.5-0.1-1.2-0.4-1.6c-1.5-0.3-2.7,0.8-4.2,0.7c0.2-0.4,0.6-0.4,0.9-0.6c0.4-0.2,0.8-0.6,1.2-1c1.2-1,2.4-2.1,3.7-2.9
			c-0.4-0.1-0.8,0.1-1,0c0.5-0.4,0.9-0.9,1.1-1.6c-1.3,0.3-2.1,1.2-3.2,1.8c-0.7,0.4-1.5,0.7-2.3,1.1c-1.5,0.7-3.1,1.5-4.8,2
			c-0.9,0.3-1.8,0.5-2.8,0.6c-1,0.1-2,0.2-3.1,0.3c-1.9,0.3-3.9,0.9-5.9,1c-1.9,0.1-3.3-0.3-4.9-0.7c-0.5-0.1-1.1-0.3-1.7-0.5
			c-0.4-0.1-1.2-0.4-1.5-0.6c-0.2-0.2-0.5-0.7-0.7-1.1c-0.2-0.4-0.4-0.8-0.6-1.1c-0.5-0.6-1.4-1.1-2-1.7c-0.4-0.3-0.7-0.5-1.1-0.7
			c-0.4-0.2-0.7-0.6-1.1-0.7c0.1,0.3,0.3,0.7,0.2,1c-0.2-0.6-1.2-1.3-1.5-2c-0.1-0.2-0.1-0.7-0.4-0.7c-0.2,0-0.2,0.2-0.3,0.2
			c0.4,1.6,1.1,3.1,1.7,4.5c0.7,1.4,1.5,2.7,2.7,3.6c0.5,0.2,1,0.4,1.5,0.5c1.7,1,3,2.4,4.2,4c-0.2,0-0.2,0.1-0.3,0
			c0.1,0.3,0.4,0.4,0.4,0.8c-0.2,0-0.2-0.2-0.4-0.1c0,0.2,0.2,0.3,0.1,0.4c-0.1,0-0.3,0-0.4,0c0.1,0.6,0.2,1.2,0.5,1.6
			c-0.1,0.1-0.3,0-0.4,0.1c0.2,0.4,0.4,1,0.1,1.5c0.1,0.3,0.4,0.4,0.6,0.7c0,0.2-0.3,0.2-0.2,0.5c0.6,0.6,1,2,0.2,2.5
			c-0.5,0.4-1.3,0.5-1.8,0.9c-0.4,0.3-0.6,0.7-1,1c-0.1-0.1-0.1-0.4-0.2-0.4c-0.4,0.2-0.5,0.8-0.7,1.2c-0.1,0.2-0.3,0.3-0.4,0.5
			c-0.1,0.2,0.1,0.4,0,0.7c-0.3,0.1-0.6,0.2-0.9,0.4c-1.1-0.7-2.2-1.4-3.2-2.1c-0.4-0.3-0.7-0.6-1.2-0.9c-0.1,0-0.2-0.1-0.2-0.2
			c-1.3-1.1-2.5-2.1-3.7-3.2c-0.1-0.1-0.2-0.2-0.3-0.3c-0.2-0.3-0.4-0.5-0.7-0.7c-0.1-0.1-0.3-0.2-0.4-0.4c0.4-1.6,1.6-3,1.7-4.8
			c0.1-0.9,0.5-1.8,0.4-2.7c0-0.5-0.1-0.8-0.1-1.2c0-0.9,0.5-1.3,0.8-2.1c0.4-1.1-0.2-1.9-0.7-2.6c1-1.3,1.6-3,1.5-5.2
			c-0.8-1.3-1.5-3-2.1-4.8c-0.5-1.7-1.1-4.1-1-5.9c-0.1,0-0.1-0.1-0.1-0.2c0-0.4-0.1-0.7,0-1.2c0.9-0.5,1.9-1.1,2.8-1.6
			c0.3-0.2,0.7-0.3,0.9-0.5c-1.3,0.5-2.5,1.3-3.7,1.8c0-0.4,0-0.9,0-1.3c0.8-0.4,1.7-0.7,2.5-1.2c-0.9,0.2-1.7,0.7-2.5,0.8
			c0-0.4,0.1-1,0.1-1.3c0.6-0.2,1.4-0.4,2-0.6c-0.7,0.1-1.3,0.3-2,0.4c0-0.8,0.1-1.7,0.4-2.5c0.7,0,1.5,0.3,2.2,0.2
			c-0.7-0.1-1.6-0.2-2.2-0.4c0.3-1.6,0.8-2.9,1.4-4.2c0.3-0.6,0.5-1.2,0.7-1.8c0.6-1.2,0.8-2.6,1.2-4c0.2-0.7,0.4-1.3,0.7-1.9
			c0.9-2.4,2.4-4.8,4.2-6.2c0.2,0,0.2,0.2,0.2,0.3c-1,1-1.5,2.6-1.2,4.7c0.3,0,0.5-0.2,0.7-0.2c0.1,0,0.1,0.3,0.3,0.3
			c0.3-0.1,0.6-0.5,0.9-0.6c0,1.5,0.1,2.9,1,3.7C27.5,34.9,27.5,34.7,27.6,34.9z M21.9,51.2C21.9,51.2,21.9,51.1,21.9,51.2
			c-0.8,0.5-1.6,1.1-2,1.8C20.5,52.4,21.2,51.8,21.9,51.2z M20.5,57.2c0.7-1.2,1.7-2.2,1.8-3.7C21.7,54.7,20.9,55.9,20.5,57.2z
			 M24.5,61.7c0.1-0.7,0.5-1.4,0.5-2C24.7,60.3,24.3,60.9,24.5,61.7z M25.5,64c0.2-0.7,0.3-1.5,0.4-2.3c0-0.1,0-0.4,0-0.5
			C25.7,62.3,25.6,63,25.5,64z M29.8,69.1c0.2-1,0.6-2,0.7-3C30.3,67,29.7,68.1,29.8,69.1z"/>
		<path fill-rule="evenodd" clip-rule="evenodd" fill="#131109" d="M33.7,55.9c1,0.4,1.8,1,3,1.1c0.6,0.2,1.3-0.1,2-0.2
			c1.6-0.3,3.6-0.3,5-0.7c-2,1.9-6.7,1.8-9.5,0.7c-3.1-1.1-7.2-1.2-10.2-2.5c2.6-0.9,5.7,0.2,7.7,0.8C32.4,55.5,33.1,55.7,33.7,55.9
			z"/>
		<path fill-rule="evenodd" clip-rule="evenodd" fill="#ECD592" d="M74.4,84.6c-0.2,0.8-0.9,1.1-1.7,1.3c0.1,0,0.2,0,0.2,0.1
			c-0.6,0.7-1.5,0.8-2,1.6c-0.3,0.4-0.4,1.1-1,1.1c0,0.2,0.3,0.2,0.3,0.4c-0.7,0.2-1.1,0.8-1.7,1.1c0.1,0,0.2,0.1,0.3,0.1
			c0,0.3-0.5,0.5-0.8,0.7c-0.2,0-0.3-0.2-0.5-0.1c-0.2,0.9-1.4,0.8-2.3,1.2c-0.8,0.3-1.5,1-2.2,1c0-0.4,0.2-0.6,0.2-1.1
			c-0.9,0.3-1.7,0.5-2.7,0.7c-0.9,0.2-1.9,0.4-2.6,0.8c-0.7,0.4-1,1.3-1.9,1.6c-0.7,0.3-1.6,0-2.3,0.5c-1.2-0.4-2,0.5-3.2,0.4
			c-0.3-0.1-0.2-0.4-0.5-0.5c-0.6-0.2-1.5,0.3-1.9,0.5c-0.5-0.3-1.4-0.2-2.1-0.4c-0.5-0.1-1-0.4-1.4-0.5c-0.8-0.1-1.5,0.1-2.2,0.4
			c-2.4-0.4-4.5-0.9-6.6-1.6c0.8-0.2,1.8-0.3,2.4-0.8c0-0.2-0.3-0.2-0.3-0.5c0.2-0.4,0.5-0.7,0.9-1c0.2,0.3,0.6-0.1,1-0.1
			c0.2,0.5,0.3,1.1,0.7,1.2c1.3,0.2,2.4-1.7,3.4-1.9c0.2,0.3,0.3,0.7,0.5,1c1.1-0.9,1.6-2.4,3.4-2.6c1-1.9,2.8-3.9,5.8-3.7
			c0.5-0.6,1-1.1,1.7-1.5c2,0.9,2.5-1.8,4.3-1.6c0.4,0,0.6,0.2,1,0.3c1.6-1.3,3-2.8,4.9-3.8c0.1-1.4,1.2-2.3,2.2-3
			c0.1,0.1,0,0.4,0.2,0.4c1.9-0.8,3.2-3,5.7-2.3c0.3,0.1,0.5,0.3,0.8,0.3c0.3,0,0.7-0.3,1-0.2c0,0.4,0.2,1.1,0,1.6
			c0.2,0.2,0.5,0.2,0.7,0.4c-0.1,0.6-0.5,1-0.8,1.4c0.3,0.2,0.6,0.4,1,0.6c-0.8,1-1.2,2.4-1.8,3.7c-0.3,0.6-0.5,1.3-0.9,1.9
			c-0.3,0.4-0.7,0.8-1,1.1c-0.1,0.1-0.2,0.2-0.2,0.3C73.1,85,73.7,84.7,74.4,84.6z"/>
		<path fill-rule="evenodd" clip-rule="evenodd" fill="#543E26" d="M48.2,2.9c7.6-0.4,14.6,1.3,20,3.6c5.6,2.3,10.3,5.5,14.3,9.3
			c4.1,4,7.3,8.3,9.9,13.6c2.6,5.3,4.3,11.5,4.7,18.9c0.4,7.7-1.3,14.4-3.6,19.9c-4.6,11-12.5,19.1-22.9,24.3
			c-5.3,2.6-11.5,4.4-18.8,4.7c-7.6,0.4-14.5-1.3-19.9-3.6c-2.8-1.2-5.3-2.5-7.7-4.1c-2.4-1.5-4.7-3.3-6.6-5.2
			c-7.9-7.9-14-17.8-14.7-32.5c-0.3-7.7,1.4-14.6,3.6-19.9c2.3-5.7,5.4-10.2,9.3-14.3c3.9-4,8.3-7.5,13.6-10
			C34.7,5.1,40.6,3.3,48.2,2.9z M21.8,86.6c0.1,0.1,0.2,0.1,0.2,0.2c0.4,0.3,0.8,0.6,1.2,0.9c1,0.8,2.1,1.5,3.2,2.1
			c2.9,1.7,6,3.2,9.4,4.2c2,0.7,4.2,1.2,6.6,1.6c2.7,0.5,5.7,0.7,8.7,0.6c8.9-0.1,16.1-3,21.8-6.1c4.1-2.4,7.7-5.3,10.9-8.7
			c6.5-7.4,11.7-16.4,12.3-29.6c0.1-1.2,0.1-2.4,0-3.7C95.8,41,94,34.8,91.4,29.7c-4.8-9.5-12.2-16.9-21.9-21.5
			C64.3,5.7,58.1,4,50.9,3.9c-0.5-0.1-1.3-0.1-1.8,0c-7.3,0.2-13.4,1.8-18.7,4.3c-9.7,4.6-17.1,12-21.9,21.5
			c-2.4,4.8-4.2,10.6-4.6,17.1c-0.1,1.7-0.2,3.5-0.1,5.2c0.3,7,2,12.8,4.4,17.8c2.2,4.7,5.1,8.8,8.4,12.2c0.1,0.1,0.2,0.3,0.4,0.4
			c0.2,0.3,0.4,0.5,0.7,0.7c0.1,0.1,0.2,0.2,0.3,0.3C19.2,84.6,20.4,85.6,21.8,86.6z"/>
		<path fill-rule="evenodd" clip-rule="evenodd" fill="#ECD592" d="M32.7,33.4c0.2,0.8-0.9,1-1,0.4C31.6,33.2,32.3,32.9,32.7,33.4z"
			/>
		<path fill-rule="evenodd" clip-rule="evenodd" fill="#ECD592" d="M48.7,35.9c0.3-0.1,0.8-0.2,1,0.1c0,0.4-0.3,0.7-0.6,1
			c-0.4,0.3-0.7,0.6-1.4,0.7c-0.4,0.9,0,2.2,0.7,2.6c0,0.1,0,0.1,0,0.1c-1.2,0.1-2.7,0-2.5-1.2c0.1-1,1-1.7,1.7-2.3
			C47.9,36.3,48.3,36,48.7,35.9z"/>
		<path fill-rule="evenodd" clip-rule="evenodd" fill="#92723A" d="M1.3,48.7c0.5-11.5,4.1-20.2,9.1-27.1c5.1-7,11.8-12.5,20-16.2
			c4.1-1.8,9-3.3,14.3-3.8c2.9-0.3,5.8-0.4,8.7-0.2c13.6,1.1,23.5,6.7,31,14.1c6,6,10.7,13.7,12.9,23.3c1.2,5,1.6,10.9,1,16.5
			c-0.6,5.4-2,10.1-3.8,14.3c-3.6,8.3-9.2,14.8-16.2,20c-7,5.1-15.5,8.6-27.1,9.1c-0.4,0-0.9-0.1-1.2,0c-0.1,0-0.1,0-0.2,0
			c-0.3-0.1-0.8,0-1.2,0c-7.5-0.2-13.9-1.9-19.2-4.5C18.7,89.1,10.9,81.4,5.8,70.5c-2.5-5.4-4.3-11.7-4.5-19.2c0-0.4,0.1-0.9,0-1.2
			c0,0,0-0.1,0-0.1C1.3,49.7,1.3,49.2,1.3,48.7z M29.3,7.6c-5.3,2.5-9.7,6-13.6,10c-3.9,4-7,8.6-9.3,14.3
			c-2.2,5.4-3.9,12.2-3.6,19.9c0.7,14.7,6.8,24.6,14.7,32.5c1.9,1.9,4.2,3.7,6.6,5.2c2.4,1.6,5,2.9,7.7,4.1c5.4,2.3,12.3,4,19.9,3.6
			c7.3-0.3,13.6-2.1,18.8-4.7C81,87.3,88.9,79.3,93.5,68.3c2.3-5.5,4-12.1,3.6-19.9C96.7,41,95,34.7,92.4,29.5
			c-2.7-5.3-5.8-9.7-9.9-13.6c-3.9-3.8-8.7-7-14.3-9.3c-5.4-2.3-12.4-3.9-20-3.6C40.6,3.3,34.7,5.1,29.3,7.6z"/>
		<path fill-rule="evenodd" clip-rule="evenodd" fill="#D2B159" d="M48.3,40.1c0.2,0.3,0.8,0.3,1.1,0.5c-0.4,0.3-1.3,0.3-2,0.2
			c-1.2-0.1-2.2-0.7-2-2.1c0.2-1.5,1.3-2.2,2.3-2.9c0.4,0,0.7-0.2,1,0c-0.4,0.2-0.8,0.5-1.2,0.9c-0.7,0.6-1.6,1.3-1.7,2.3
			c-0.1,1.2,1.4,1.3,2.5,1.2C48.3,40.2,48.3,40.2,48.3,40.1z"/>
		<path fill-rule="evenodd" clip-rule="evenodd" fill="#543E26" d="M69.6,17c0.2,0,0.3,0.1,0.4,0.1c-0.4-0.8-0.4-1.8-0.8-2.4
			c-0.3-0.4-0.7-0.7-1-1c-0.5-0.5-0.9-1-1.4-1.5c0.6-1.3,3.2-1.7,4.6-0.8c0.9,0.6,1.5,2.2,1.8,3.7c0.5,1.9,0.7,4,0.7,6.2
			c0.1,2.2-0.5,4.3-0.8,5.9C73,27.5,73,27.8,72.9,28c-0.3,0.7-0.4,1.4-1,1.7c-0.2-0.3-0.4-0.7-0.6-1.2c-0.2-0.7-0.5-1.4-0.6-2.2
			c-0.6,0.7-1.9,1.3-2.7,2.1c-0.4,0.4-1.2,1.2-1.1,1.9c0.1,0.6,0.7,0.6,1,1c0.3,0,0.6-0.3,0.9-0.1c-0.3,0.6-1.1,0.7-1.8,0.8
			c0.1-0.1,0.4-0.2,0.2-0.4c-0.3-0.1-0.8,0-1-0.2c0.1-0.2,0.4-0.3,0.3-0.5c-0.3,0.1-0.6,0.3-0.7,0.5c-0.3,0.1-0.4,0.5-0.6,0.5
			c-0.1-0.2,0-0.6,0-0.8c0-0.1,0.2-0.2,0.2-0.4c-0.2,0-0.2,0.3-0.4,0.1c0-0.2,0-0.3,0-0.5c0.1-0.3,0.3-0.4,0.3-0.7
			c0.3-0.4,0.7-0.6,1-0.9c0.9-1,1.4-2.4,2.2-3.7c0.5-0.9,1-1.9,1.4-3c0.1-0.3,0.3-0.7,0.2-1c-2.5-0.1-4.7,0.4-6.4,1.3
			c0,0.1,0,0.2,0,0.2c0,0,0,0,0,0c-0.3,0-0.5,0.3-0.9,0.3c0-0.3,0-0.8,0.2-1c0.3-0.2,0.5-0.5,0.8-0.7c0.2-0.2,0.5-0.3,0.7-0.5
			c0.1-0.1,0.1-0.2,0.2-0.3c0.2-0.2,0.5-0.4,0.7-0.6c0.2-0.3,0.4-0.5,0.6-0.7c0.3-0.2,0.7-0.3,1-0.5c0.6-0.3,1-0.5,1.7-0.7
			c0.3-0.1,0.6-0.4,1-0.5C70,17.1,69.5,17.2,69.6,17z"/>
		<path fill-rule="evenodd" clip-rule="evenodd" fill="#543E26" d="M63.2,17.3c-0.1,0.5-0.2,1.3-0.1,2c-0.7,1.5-1.6,2.8-2.3,4.3
			c0.6-0.3,0.9-1.2,1.4-1.5c-0.3,0.7-0.6,1.7-0.7,2.7c-0.1,0.8,0.1,1.7-0.2,2.5c-0.1-0.1,0-0.3-0.2-0.2c-0.2,0.5-0.3,1-0.4,1.5
			c0,0,0,0,0,0.1c-0.1-0.1-0.1-0.3-0.1-0.4c-0.2-0.8-0.1-2-0.2-2.7c-0.1,0.2-0.1,0.5-0.3,0.6c-0.1-0.2-0.2-0.4-0.3-0.6
			c-0.2,0-0.2,0.4-0.3,0.4c-0.1-0.9-0.2-1.7,0.2-2.3c0.5-1,1.4-1.8,2-2.9C62.1,19.4,62.6,18.3,63.2,17.3z"/>
		<path fill-rule="evenodd" clip-rule="evenodd" fill="#131109" d="M29.7,31.9c0.3-0.1,0.6-0.2,1-0.2c1.7,0.1,2.5,1.7,2,3.5
			c-0.1,0.2-0.2,0.4-0.2,0.7c-0.2,0.2-0.3,0.4-0.5,0.6c-0.2,0.1-0.4,0.1-0.7,0.3c-0.7,0.4-1.4,1.4-2.4,0.9c-0.2-0.1-0.3-0.2-0.5-0.3
			c-0.6-0.6-0.9-1.3-0.9-2.5c0.1-0.6,0.5-0.9,0.6-1.5C28.6,32.7,29.1,32.2,29.7,31.9z M29.5,35c0-0.4,0.4-1.1,0.9-1.2
			c0.4-0.1,0.7,0.2,0.7-0.2c0-0.3-0.3-0.3-0.5-0.4c0-0.3,0-0.4-0.2-0.5c-0.2,0-0.2,0.1-0.4,0c-0.8,0.2-1.4,0.4-1.8,1.1
			c-0.9,1.6,0.4,4.4,2.2,3C29.5,36.7,29.6,35.8,29.5,35z M31.7,33.9c0.1,0.6,1.2,0.4,1-0.4C32.3,32.9,31.6,33.2,31.7,33.9z"/>
		<path fill-rule="evenodd" clip-rule="evenodd" fill="#131109" d="M45.3,36.8c0.9-0.9,1.5-2,3.6-1.9c1.4,0.1,2.8,1,3.8,1.7
			c0.3,0.2,0.9,0.6,1,0.8c0.2,0.6-0.5,1.1-0.7,1.5c0,0,0,0,0,0c-0.3,0.4-0.7,0.7-1.1,1.1c-1,1-3,1.4-5.2,1.1
			c-1.2-0.2-2.4-0.6-2.5-1.4C44,38.5,44.8,37.7,45.3,36.8z M48.3,40.1c-0.7-0.4-1.1-1.6-0.7-2.6c0.6,0,1-0.3,1.4-0.7
			c0.3-0.2,0.6-0.6,0.6-1c-0.2-0.3-0.7-0.2-1-0.1c-0.3-0.1-0.6,0.1-1,0c-1,0.7-2.2,1.5-2.3,2.9c-0.2,1.4,0.8,2,2,2.1
			c0.7,0.1,1.7,0.1,2-0.2C49.1,40.4,48.6,40.4,48.3,40.1z M49.8,37.1c0.2,0.5,0.9,0,0.5-0.4C50,36.7,49.8,36.9,49.8,37.1z
			 M50.2,38.1c0,0.2,0.3,0.5,0.7,0.3C51,37.9,50.3,37.7,50.2,38.1z"/>
		<path fill-rule="evenodd" clip-rule="evenodd" fill="#131109" d="M27.1,42.7c2.9,0,5.1,0.7,6.6,2.1c0.6,1.2-0.2,1.7-0.8,2.4
			c-0.4,0.4-0.6,0.8-1,1c-0.4,0.7-1,1.2-1.5,1.8c0.2,0,0.6-0.1,0.7,0.1c0,0.5-0.3,0.7-0.3,1.2c0.2,0.1,0.6,0,0.6,0.3
			c-0.2,0-0.3,0.1-0.5,0c0.2,0.6,0.8,1.1,0.2,1.7c0.1,0.1,0.1,0.3,0,0.5c-0.2,0.1-0.5,0.1-0.6-0.1c0.2,0,0.1-0.3,0.2-0.5
			c-0.5-0.1-0.7-0.5-1.4-0.4c0-0.1,0.1-0.2,0.1-0.3c-0.3-0.1-0.4-0.4-0.7-0.5c-0.3,0.1-0.6,0.2-1,0.2c-0.1-0.1-0.2-0.3-0.5-0.2
			c-0.1,0.4-0.1,0.9-0.3,1.2c-0.1-0.3-0.2-0.6-0.2-0.9c-0.3,0-0.5,0.2-0.7,0.1c0.1-1.2-1.3-1.2-1.1-2.5c-0.8-0.8-1.4-1.8-1.4-3.3
			c-0.1-0.8,0.3-1.2,0.4-2C24.6,43.3,25.6,42.8,27.1,42.7z"/>
	</g>
</g>
</svg>
