<?xml version="1.0" encoding="utf-8"?>
<!-- Generator: Adobe Illustrator 17.1.0, SVG Export Plug-In . SVG Version: 6.00 Build 0)  -->
<!DOCTYPE svg PUBLIC "-//W3C//DTD SVG 1.1//EN" "http://www.w3.org/Graphics/SVG/1.1/DTD/svg11.dtd">
<svg version="1.1" id="Layer_1" xmlns="http://www.w3.org/2000/svg" xmlns:xlink="http://www.w3.org/1999/xlink" x="0px" y="0px"
	 viewBox="0 0 150 150" enable-background="new 0 0 150 150" xml:space="preserve">
<g>
	<path fill-rule="evenodd" clip-rule="evenodd" fill="#191717" d="M75,3.9C35.4,3.9,3.3,36,3.3,75.6c0,31.7,20.6,58.6,49.1,68.1
		c3.6,0.7,4.9-1.6,4.9-3.5c0-1.7-0.1-7.4-0.1-13.4c-20,4.3-24.2-8.5-24.2-8.5c-3.3-8.3-8-10.5-8-10.5c-6.5-4.5,0.5-4.4,0.5-4.4
		c7.2,0.5,11,7.4,11,7.4c6.4,11,16.8,7.8,20.9,6c0.6-4.6,2.5-7.8,4.6-9.6c-15.9-1.8-32.7-8-32.7-35.5c0-7.8,2.8-14.2,7.4-19.3
		c-0.7-1.8-3.2-9.1,0.7-19c0,0,6-1.9,19.7,7.4c5.7-1.6,11.9-2.4,18-2.4c6.1,0,12.2,0.8,18,2.4c13.7-9.3,19.7-7.4,19.7-7.4
		c3.9,9.9,1.4,17.2,0.7,19c4.6,5,7.4,11.4,7.4,19.3c0,27.6-16.8,33.6-32.8,35.4c2.6,2.2,4.9,6.6,4.9,13.3c0,9.6-0.1,17.3-0.1,19.7
		c0,1.9,1.3,4.1,4.9,3.4c28.5-9.5,49-36.4,49-68.1C146.7,36,114.6,3.9,75,3.9z"/>
	<path fill="#191717" d="M30.4,106.9c-0.2,0.4-0.7,0.5-1.2,0.2c-0.5-0.2-0.8-0.7-0.6-1.1c0.2-0.4,0.7-0.5,1.2-0.2
		C30.3,106.1,30.6,106.6,30.4,106.9L30.4,106.9z M29.6,106.3"/>
	<path fill="#191717" d="M33.3,110.2c-0.3,0.3-1,0.2-1.5-0.3c-0.5-0.5-0.6-1.2-0.2-1.5c0.4-0.3,1-0.2,1.5,0.3
		C33.6,109.2,33.7,109.8,33.3,110.2L33.3,110.2z M32.7,109.4"/>
	<path fill="#191717" d="M36.2,114.3c-0.4,0.3-1.2,0-1.6-0.6c-0.4-0.6-0.4-1.4,0-1.7c0.4-0.3,1.2,0,1.6,0.6
		C36.6,113.2,36.6,114,36.2,114.3L36.2,114.3z M36.2,114.3"/>
	<path fill="#191717" d="M40,118.3c-0.4,0.4-1.2,0.3-1.8-0.3c-0.6-0.6-0.8-1.4-0.4-1.8c0.4-0.4,1.2-0.3,1.9,0.3
		C40.3,117,40.5,117.8,40,118.3L40,118.3z M40,118.3"/>
	<path fill="#191717" d="M45.4,120.6c-0.2,0.6-1,0.8-1.8,0.6c-0.8-0.2-1.3-0.9-1.2-1.5c0.2-0.6,1-0.8,1.8-0.6
		C45,119.4,45.6,120,45.4,120.6L45.4,120.6z M45.4,120.6"/>
	<path fill="#191717" d="M51.3,121c0,0.6-0.7,1.1-1.5,1.1c-0.9,0-1.6-0.5-1.6-1c0-0.6,0.7-1.1,1.5-1.1C50.6,120,51.3,120.4,51.3,121
		L51.3,121z M51.3,121"/>
	<path fill="#191717" d="M56.7,120.1c0.1,0.6-0.5,1.2-1.3,1.3c-0.8,0.2-1.6-0.2-1.7-0.8c-0.1-0.6,0.5-1.2,1.3-1.3
		C55.9,119.2,56.6,119.5,56.7,120.1L56.7,120.1z M56.7,120.1"/>
</g>
</svg>
