<svg xmlns="http://www.w3.org/2000/svg" xmlns:xlink="http://www.w3.org/1999/xlink" version="1.1" id="Layer_1" x="0px" y="0px" width="100px" height="100px" viewBox="0 0 100 100" enable-background="new 0 0 100 100" xml:space="preserve">
<g id="Captions">
	<rect x="-192" width="185" height="99"/>
	<rect y="-36" width="100" height="30"/>
	<text transform="matrix(1 0 0 1 66 -19.5)" enable-background="new    "><tspan x="0" y="0" fill="#000000" font-family="'MyriadPro-Regular'" font-size="2.4">http:</tspan><tspan x="4.783" y="0" fill="#000000" font-family="'HelveticaLTStd-Fraction'" font-size="2.4">//</tspan><tspan x="5.584" y="0" fill="#000000" font-family="'MyriadPro-Regular'" font-size="2.4">thenounproject.com</tspan></text>
	<text transform="matrix(1 0 0 1 7.166 -24.5)" enable-background="new    "><tspan x="0" y="0" fill="#000000" font-family="'MyriadPro-Regular'" font-size="6.1578">The</tspan><tspan x="9.563" y="0" fill="#000000" font-family="'HelveticaLTStd-Fraction'" font-size="6.1578"> </tspan><tspan x="11.472" y="0" fill="#000000" font-family="'MyriadPro-Regular'" font-size="6.1578">Noun</tspan><tspan x="25.715" y="0" fill="#000000" font-family="'HelveticaLTStd-Fraction'" font-size="6.1578"> </tspan><tspan x="27.624" y="0" fill="#000000" font-family="'MyriadPro-Regular'" font-size="6.1578">Project</tspan></text>
	<text transform="matrix(1 0 0 1 8.2861 -19.7002)" enable-background="new    "><tspan x="0" y="0" fill="#000000" font-family="'MyriadPro-Regular'" font-size="4">Icon</tspan><tspan x="7.164" y="0" fill="#000000" font-family="'HelveticaLTStd-Fraction'" font-size="4"> </tspan><tspan x="8.404" y="0" fill="#000000" font-family="'MyriadPro-Regular'" font-size="4">Template</tspan></text>
	<text transform="matrix(1 0 0 1 -178.5 10.5)" fill="#000000" font-family="'MyriadPro-Regular'" font-size="6.1578">Reminders</text>
	<line fill="#000000" stroke="#FFFFFF" stroke-miterlimit="10" x1="8" y1="-14.5" x2="18" y2="-14.5"/>
	<line fill="#000000" stroke="#FFFFFF" stroke-miterlimit="10" x1="-179" y1="16.5" x2="-162" y2="16.5"/>
	<g>
		<g>
			<g>
				<rect x="-170.802" y="31.318" fill="#000000" width="8.721" height="8.642"/>
				<path fill="#000000" d="M-164.455,42.312h4.747v-4.703h-4.747V42.312z M-159.266,42.749h-5.63V37.17h5.63V42.749      L-159.266,42.749z M-166.221,44.062h8.279v-8.203h-8.279V44.062L-166.221,44.062z M-157.5,44.5h-9.163v-9.079h9.163V44.5      L-157.5,44.5z"/>
				<polygon fill="#000000" points="-166.149,44.133 -166.292,43.991 -158.013,35.787 -157.871,35.929     "/>
			</g>
		</g>
	</g>
	<rect x="-179" y="58" fill="none" width="35" height="32.5"/>
	<text transform="matrix(1 0 0 1 -179 60.1299)" fill="#000000" font-family="'MyriadPro-Regular'" font-size="3">Strokes</text>
	<text transform="matrix(1 0 0 1 -179 65.1299)" enable-background="new    "><tspan x="0" y="0" fill="#000000" font-family="'MyriadPro-Regular'" font-size="2.4">Try</tspan><tspan x="3.108" y="0" fill="#000000" font-family="'HelveticaLTStd-Fraction'" font-size="2.4"> </tspan><tspan x="3.852" y="0" fill="#000000" font-family="'MyriadPro-Regular'" font-size="2.4">to</tspan><tspan x="5.964" y="0" fill="#000000" font-family="'HelveticaLTStd-Fraction'" font-size="2.4"> </tspan><tspan x="6.708" y="0" fill="#000000" font-family="'MyriadPro-Regular'" font-size="2.4">keep</tspan><tspan x="11.604" y="0" fill="#000000" font-family="'HelveticaLTStd-Fraction'" font-size="2.4"> </tspan><tspan x="12.348" y="0" fill="#000000" font-family="'MyriadPro-Regular'" font-size="2.4">strokes</tspan><tspan x="19.473" y="0" fill="#000000" font-family="'HelveticaLTStd-Fraction'" font-size="2.4"> </tspan><tspan x="20.217" y="0" fill="#000000" font-family="'MyriadPro-Regular'" font-size="2.4">at</tspan><tspan x="22.168" y="0" fill="#000000" font-family="'HelveticaLTStd-Fraction'" font-size="2.4"> 4</tspan><tspan x="24.247" y="0" fill="#000000" font-family="'MyriadPro-Regular'" font-size="2.4">px</tspan></text>
	<text transform="matrix(1 0 0 1 -179 70.1299)" enable-background="new    "><tspan x="0" y="0" fill="#000000" font-family="'MyriadPro-Regular'" font-size="2.4">Minimum</tspan><tspan x="9.71" y="0" fill="#000000" font-family="'HelveticaLTStd-Fraction'" font-size="2.4"> </tspan><tspan x="10.454" y="0" fill="#000000" font-family="'MyriadPro-Regular'" font-size="2.4">stroke</tspan><tspan x="16.629" y="0" fill="#000000" font-family="'HelveticaLTStd-Fraction'" font-size="2.4"> </tspan><tspan x="17.373" y="0" fill="#000000" font-family="'MyriadPro-Regular'" font-size="2.4">weight</tspan><tspan x="24.372" y="0" fill="#000000" font-family="'HelveticaLTStd-Fraction'" font-size="2.4"> </tspan><tspan x="25.115" y="0" fill="#000000" font-family="'MyriadPro-Regular'" font-size="2.4">is</tspan><tspan x="26.627" y="0" fill="#000000" font-family="'HelveticaLTStd-Fraction'" font-size="2.4"> 2</tspan><tspan x="28.706" y="0" fill="#000000" font-family="'MyriadPro-Regular'" font-size="2.4">px</tspan></text>
	<text transform="matrix(1 0 0 1 -179 74.6299)" enable-background="new    "><tspan x="0" y="0" fill="#000000" font-family="'MyriadPro-Regular'" font-size="2.4">For</tspan><tspan x="3.271" y="0" fill="#000000" font-family="'HelveticaLTStd-Fraction'" font-size="2.4"> </tspan><tspan x="4.015" y="0" fill="#000000" font-family="'MyriadPro-Regular'" font-size="2.4">thicker</tspan><tspan x="10.891" y="0" fill="#000000" font-family="'HelveticaLTStd-Fraction'" font-size="2.4"> </tspan><tspan x="11.635" y="0" fill="#000000" font-family="'MyriadPro-Regular'" font-size="2.4">strokes</tspan><tspan x="18.76" y="0" fill="#000000" font-family="'HelveticaLTStd-Fraction'" font-size="2.4"> </tspan><tspan x="19.504" y="0" fill="#000000" font-family="'MyriadPro-Regular'" font-size="2.4">use</tspan><tspan x="22.979" y="0" fill="#000000" font-family="'HelveticaLTStd-Fraction'" font-size="2.4"> </tspan><tspan x="23.724" y="0" fill="#000000" font-family="'MyriadPro-Regular'" font-size="2.4">even</tspan><tspan x="28.614" y="0" fill="#000000" font-family="'HelveticaLTStd-Fraction'" font-size="2.4"> </tspan></text>
	<text transform="matrix(1 0 0 1 -179 77.6299)" enable-background="new    "><tspan x="0" y="0" fill="#000000" font-family="'MyriadPro-Regular'" font-size="2.4">numbers:</tspan><tspan x="9.456" y="0" fill="#000000" font-family="'HelveticaLTStd-Fraction'" font-size="2.4"> 6</tspan><tspan x="11.534" y="0" fill="#000000" font-family="'MyriadPro-Regular'" font-size="2.4">px,</tspan><tspan x="14.508" y="0" fill="#000000" font-family="'HelveticaLTStd-Fraction'" font-size="2.4"> 8</tspan><tspan x="16.586" y="0" fill="#000000" font-family="'MyriadPro-Regular'" font-size="2.4">px</tspan><tspan x="19.063" y="0" fill="#000000" font-family="'HelveticaLTStd-Fraction'" font-size="2.4"> </tspan><tspan x="19.807" y="0" fill="#000000" font-family="'MyriadPro-Regular'" font-size="2.4">etc.</tspan></text>
	<text transform="matrix(1 0 0 1 -179 82.1299)" enable-background="new    "><tspan x="0" y="0" fill="#000000" font-family="'MyriadPro-Regular'" font-size="2.4">Remember</tspan><tspan x="11.052" y="0" fill="#000000" font-family="'HelveticaLTStd-Fraction'" font-size="2.4"> </tspan><tspan x="11.796" y="0" fill="#000000" font-family="'MyriadPro-Regular'" font-size="2.4">to</tspan><tspan x="13.908" y="0" fill="#000000" font-family="'HelveticaLTStd-Fraction'" font-size="2.4"> </tspan><tspan x="14.652" y="0" fill="#000000" font-family="'MyriadPro-Regular'" font-size="2.4">expand</tspan><tspan x="22.173" y="0" fill="#000000" font-family="'HelveticaLTStd-Fraction'" font-size="2.4"> </tspan><tspan x="22.917" y="0" fill="#000000" font-family="'MyriadPro-Regular'" font-size="2.4">strokes</tspan><tspan x="30.042" y="0" fill="#000000" font-family="'HelveticaLTStd-Fraction'" font-size="2.4"> </tspan></text>
	<text transform="matrix(1 0 0 1 -179 85.1299)" enable-background="new    "><tspan x="0" y="0" fill="#000000" font-family="'MyriadPro-Regular'" font-size="2.4">before</tspan><tspan x="6.573" y="0" fill="#000000" font-family="'HelveticaLTStd-Fraction'" font-size="2.4"> </tspan><tspan x="7.317" y="0" fill="#000000" font-family="'MyriadPro-Regular'" font-size="2.4">saving</tspan><tspan x="13.814" y="0" fill="#000000" font-family="'HelveticaLTStd-Fraction'" font-size="2.4"> </tspan><tspan x="14.558" y="0" fill="#000000" font-family="'MyriadPro-Regular'" font-size="2.4">as</tspan><tspan x="16.665" y="0" fill="#000000" font-family="'HelveticaLTStd-Fraction'" font-size="2.4"> </tspan><tspan x="17.409" y="0" fill="#000000" font-family="'MyriadPro-Regular'" font-size="2.4">an</tspan><tspan x="19.898" y="0" fill="#000000" font-family="'HelveticaLTStd-Fraction'" font-size="2.4"> </tspan><tspan x="20.642" y="0" fill="#000000" font-family="'MyriadPro-Regular'" font-size="2.4">SVG</tspan><tspan x="24.715" y="0" fill="#000000" font-family="'HelveticaLTStd-Fraction'" font-size="2.4"> </tspan></text>
	<rect x="-136.5" y="58" fill="none" width="35" height="32.5"/>
	<text transform="matrix(1 0 0 1 -136.5 60.1299)" fill="#000000" font-family="'MyriadPro-Regular'" font-size="3">Size</text>
	<text transform="matrix(1 0 0 1 -136.5 65.1299)" enable-background="new    "><tspan x="0" y="0" fill="#000000" font-family="'MyriadPro-Regular'" font-size="2.4">Cannot</tspan><tspan x="7.325" y="0" fill="#000000" font-family="'HelveticaLTStd-Fraction'" font-size="2.4"> </tspan><tspan x="8.069" y="0" fill="#000000" font-family="'MyriadPro-Regular'" font-size="2.4">be</tspan><tspan x="10.637" y="0" fill="#000000" font-family="'HelveticaLTStd-Fraction'" font-size="2.4"> </tspan><tspan x="11.38" y="0" fill="#000000" font-family="'MyriadPro-Regular'" font-size="2.4">wider</tspan><tspan x="17.049" y="0" fill="#000000" font-family="'HelveticaLTStd-Fraction'" font-size="2.4"> </tspan><tspan x="17.793" y="0" fill="#000000" font-family="'MyriadPro-Regular'" font-size="2.4">or</tspan><tspan x="19.896" y="0" fill="#000000" font-family="'HelveticaLTStd-Fraction'" font-size="2.4"> </tspan><tspan x="20.64" y="0" fill="#000000" font-family="'MyriadPro-Regular'" font-size="2.4">taller</tspan><tspan x="25.71" y="0" fill="#000000" font-family="'HelveticaLTStd-Fraction'" font-size="2.4"> </tspan><tspan x="26.455" y="0" fill="#000000" font-family="'MyriadPro-Regular'" font-size="2.4">than</tspan><tspan x="31.07" y="0" fill="#000000" font-family="'HelveticaLTStd-Fraction'" font-size="2.4"> </tspan></text>
	<text transform="matrix(1 0 0 1 -136.5 68.6299)" enable-background="new    "><tspan x="0" y="0" fill="#000000" font-family="'HelveticaLTStd-Fraction'" font-size="2.4">100</tspan><tspan x="4.003" y="0" fill="#000000" font-family="'MyriadPro-Regular'" font-size="2.4">px</tspan><tspan x="6.48" y="0" fill="#000000" font-family="'HelveticaLTStd-Fraction'" font-size="2.4"> </tspan><tspan x="7.224" y="0" fill="#000000" font-family="'MyriadPro-Regular'" font-size="2.4">(artboard</tspan><tspan x="16.62" y="0" fill="#000000" font-family="'HelveticaLTStd-Fraction'" font-size="2.4"> </tspan><tspan x="17.364" y="0" fill="#000000" font-family="'MyriadPro-Regular'" font-size="2.4">size)</tspan></text>
	<text transform="matrix(1 0 0 1 -136.5 73.6299)" enable-background="new    "><tspan x="0" y="0" fill="#000000" font-family="'MyriadPro-Regular'" font-size="2.4">Scale</tspan><tspan x="5.184" y="0" fill="#000000" font-family="'HelveticaLTStd-Fraction'" font-size="2.4"> </tspan><tspan x="5.928" y="0" fill="#000000" font-family="'MyriadPro-Regular'" font-size="2.4">your</tspan><tspan x="10.483" y="0" fill="#000000" font-family="'HelveticaLTStd-Fraction'" font-size="2.4"> </tspan><tspan x="11.227" y="0" fill="#000000" font-family="'MyriadPro-Regular'" font-size="2.4">icon</tspan><tspan x="15.513" y="0" fill="#000000" font-family="'HelveticaLTStd-Fraction'" font-size="2.4"> </tspan><tspan x="16.257" y="0" fill="#000000" font-family="'MyriadPro-Regular'" font-size="2.4">to</tspan><tspan x="18.369" y="0" fill="#000000" font-family="'HelveticaLTStd-Fraction'" font-size="2.4"> </tspan><tspan x="19.113" y="0" fill="#000000" font-family="'MyriadPro-Regular'" font-size="2.4">fill</tspan><tspan x="21.501" y="0" fill="#000000" font-family="'HelveticaLTStd-Fraction'" font-size="2.4"> </tspan><tspan x="22.245" y="0" fill="#000000" font-family="'MyriadPro-Regular'" font-size="2.4">as</tspan><tspan x="24.352" y="0" fill="#000000" font-family="'HelveticaLTStd-Fraction'" font-size="2.4"> </tspan><tspan x="25.096" y="0" fill="#000000" font-family="'MyriadPro-Regular'" font-size="2.4">much</tspan><tspan x="30.827" y="0" fill="#000000" font-family="'HelveticaLTStd-Fraction'" font-size="2.4"> </tspan><tspan x="31.571" y="0" fill="#000000" font-family="'MyriadPro-Regular'" font-size="2.4">of</tspan><tspan x="33.59" y="0" fill="#000000" font-family="'HelveticaLTStd-Fraction'" font-size="2.4"> </tspan></text>
	<text transform="matrix(1 0 0 1 -136.5 76.6299)" enable-background="new    "><tspan x="0" y="0" fill="#000000" font-family="'MyriadPro-Regular'" font-size="2.4">the</tspan><tspan x="3.329" y="0" fill="#000000" font-family="'HelveticaLTStd-Fraction'" font-size="2.4"> </tspan><tspan x="4.073" y="0" fill="#000000" font-family="'MyriadPro-Regular'" font-size="2.4">artboard</tspan><tspan x="12.787" y="0" fill="#000000" font-family="'HelveticaLTStd-Fraction'" font-size="2.4"> </tspan><tspan x="13.531" y="0" fill="#000000" font-family="'MyriadPro-Regular'" font-size="2.4">as</tspan><tspan x="15.638" y="0" fill="#000000" font-family="'HelveticaLTStd-Fraction'" font-size="2.4"> </tspan><tspan x="16.382" y="0" fill="#000000" font-family="'MyriadPro-Regular'" font-size="2.4">possible</tspan></text>
	<rect x="-94" y="58" fill="none" width="35" height="32.5"/>
	<text transform="matrix(1 0 0 1 -94 60.1299)" fill="#000000" font-family="'MyriadPro-Regular'" font-size="3">Ungroup</text>
	<text transform="matrix(1 0 0 1 -94 65.1299)" enable-background="new    "><tspan x="0" y="0" fill="#000000" font-family="'MyriadPro-Regular'" font-size="2.4">If</tspan><tspan x="1.274" y="0" fill="#000000" font-family="'HelveticaLTStd-Fraction'" font-size="2.4"> </tspan><tspan x="2.019" y="0" fill="#000000" font-family="'MyriadPro-Regular'" font-size="2.4">your</tspan><tspan x="6.573" y="0" fill="#000000" font-family="'HelveticaLTStd-Fraction'" font-size="2.4"> </tspan><tspan x="7.317" y="0" fill="#000000" font-family="'MyriadPro-Regular'" font-size="2.4">design</tspan><tspan x="14.059" y="0" fill="#000000" font-family="'HelveticaLTStd-Fraction'" font-size="2.4"> </tspan><tspan x="14.803" y="0" fill="#000000" font-family="'MyriadPro-Regular'" font-size="2.4">has</tspan><tspan x="18.242" y="0" fill="#000000" font-family="'HelveticaLTStd-Fraction'" font-size="2.4"> </tspan><tspan x="18.986" y="0" fill="#000000" font-family="'MyriadPro-Regular'" font-size="2.4">more</tspan><tspan x="24.292" y="0" fill="#000000" font-family="'HelveticaLTStd-Fraction'" font-size="2.4"> </tspan><tspan x="25.036" y="0" fill="#000000" font-family="'MyriadPro-Regular'" font-size="2.4">than</tspan><tspan x="29.651" y="0" fill="#000000" font-family="'HelveticaLTStd-Fraction'" font-size="2.4"> </tspan><tspan x="30.396" y="0" fill="#000000" font-family="'MyriadPro-Regular'" font-size="2.4">one</tspan><tspan x="34.247" y="0" fill="#000000" font-family="'HelveticaLTStd-Fraction'" font-size="2.4"> </tspan></text>
	<text transform="matrix(1 0 0 1 -94 68.1299)" enable-background="new    "><tspan x="0" y="0" fill="#000000" font-family="'MyriadPro-Regular'" font-size="2.4">shape,</tspan><tspan x="6.504" y="0" fill="#000000" font-family="'HelveticaLTStd-Fraction'" font-size="2.4"> </tspan><tspan x="7.248" y="0" fill="#000000" font-family="'MyriadPro-Regular'" font-size="2.4">make</tspan><tspan x="12.734" y="0" fill="#000000" font-family="'HelveticaLTStd-Fraction'" font-size="2.4"> </tspan><tspan x="13.478" y="0" fill="#000000" font-family="'MyriadPro-Regular'" font-size="2.4">sure</tspan><tspan x="17.738" y="0" fill="#000000" font-family="'HelveticaLTStd-Fraction'" font-size="2.4"> </tspan><tspan x="18.482" y="0" fill="#000000" font-family="'MyriadPro-Regular'" font-size="2.4">to</tspan><tspan x="20.594" y="0" fill="#000000" font-family="'HelveticaLTStd-Fraction'" font-size="2.4"> </tspan><tspan x="21.338" y="0" fill="#000000" font-family="'MyriadPro-Regular'" font-size="2.4">ungroup</tspan></text>
	<rect x="-50" y="58" fill="none" width="35" height="32.5"/>
	<text transform="matrix(1 0 0 1 -50 60.1299)" enable-background="new    "><tspan x="0" y="0" fill="#000000" font-family="'MyriadPro-Regular'" font-size="3">Save</tspan><tspan x="5.871" y="0" fill="#000000" font-family="'HelveticaLTStd-Fraction'" font-size="3"> </tspan><tspan x="6.801" y="0" fill="#000000" font-family="'MyriadPro-Regular'" font-size="3">as</tspan></text>
	<text transform="matrix(1 0 0 1 -50 65.1299)" enable-background="new    "><tspan x="0" y="0" fill="#000000" font-family="'MyriadPro-Regular'" font-size="2.4">Save</tspan><tspan x="4.697" y="0" fill="#000000" font-family="'HelveticaLTStd-Fraction'" font-size="2.4"> </tspan><tspan x="5.44" y="0" fill="#000000" font-family="'MyriadPro-Regular'" font-size="2.4">as</tspan><tspan x="7.548" y="0" fill="#000000" font-family="'HelveticaLTStd-Fraction'" font-size="2.4"> </tspan><tspan x="8.292" y="0" fill="#000000" font-family="'MyriadPro-Regular'" font-size="2.4">.SVG</tspan><tspan x="12.861" y="0" fill="#000000" font-family="'HelveticaLTStd-Fraction'" font-size="2.4"> </tspan><tspan x="13.605" y="0" fill="#000000" font-family="'MyriadPro-Regular'" font-size="2.4">and</tspan><tspan x="17.448" y="0" fill="#000000" font-family="'HelveticaLTStd-Fraction'" font-size="2.4"> </tspan><tspan x="18.191" y="0" fill="#000000" font-family="'MyriadPro-Regular'" font-size="2.4">make</tspan><tspan x="23.678" y="0" fill="#000000" font-family="'HelveticaLTStd-Fraction'" font-size="2.4"> </tspan><tspan x="24.422" y="0" fill="#000000" font-family="'MyriadPro-Regular'" font-size="2.4">sure</tspan><tspan x="28.682" y="0" fill="#000000" font-family="'HelveticaLTStd-Fraction'" font-size="2.4"> </tspan><tspan x="29.426" y="0" fill="#000000" font-family="'MyriadPro-Regular'" font-size="2.4">&#8220;Use</tspan><tspan x="33.981" y="0" fill="#000000" font-family="'HelveticaLTStd-Fraction'" font-size="2.4"> </tspan></text>
	<text transform="matrix(1 0 0 1 -50 68.1299)" enable-background="new    "><tspan x="0" y="0" fill="#000000" font-family="'MyriadPro-Regular'" font-size="2.4">Artboards&#8221;</tspan><tspan x="10.826" y="0" fill="#000000" font-family="'HelveticaLTStd-Fraction'" font-size="2.4"> </tspan><tspan x="11.57" y="0" fill="#000000" font-family="'MyriadPro-Regular'" font-size="2.4">is</tspan><tspan x="13.082" y="0" fill="#000000" font-family="'HelveticaLTStd-Fraction'" font-size="2.4"> </tspan><tspan x="13.826" y="0" fill="#000000" font-family="'MyriadPro-Regular'" font-size="2.4">checked</tspan></text>
	<text transform="matrix(1.0074 0 0 1 -125.542 30.5938)" enable-background="new    "><tspan x="0" y="0" fill="#000000" font-family="'HelveticaLTStd-Fraction'" font-size="2.5731">100</tspan><tspan x="4.292" y="0" fill="#000000" font-family="'MyriadPro-Regular'" font-size="2.5731">px</tspan></text>
	<text transform="matrix(1.0074 0 0 1 -41 39)" fill="#000000" font-family="'MyriadPro-Regular'" font-size="5.1462">.SVG</text>
	<rect x="-126.514" y="34.815" fill="#000000" width="10.261" height="10.185"/>
	<rect x="-126.477" y="31.766" fill="#000000" width="0.522" height="2.337"/>
	<rect x="-116.813" y="31.766" fill="#000000" width="0.523" height="2.337"/>
	<rect x="-127" y="32.337" fill="#000000" width="11.233" height="0.572"/>
	<g>
		<rect x="-83.805" y="33.844" fill="#000000" width="10.305" height="10.156"/>
		<rect x="-76.809" y="28.707" fill="#000000" width="3.308" height="3.261"/>
	</g>
	<rect x="-178.5" y="22.5" fill="#000000" stroke="#FFFFFF" stroke-miterlimit="10" width="30" height="30"/>
	<rect x="-136.5" y="22.5" fill="#000000" stroke="#FFFFFF" stroke-miterlimit="10" width="30" height="30"/>
	<rect x="-93.5" y="22.5" fill="#000000" stroke="#FFFFFF" stroke-miterlimit="10" width="30" height="30"/>
	<rect x="-49.5" y="22.5" fill="#000000" stroke="#FFFFFF" stroke-miterlimit="10" width="30" height="30"/>
</g>
<path fill="#000000" d="M99.336,25.294c-0.002-2.253-5.582-7.748-10.239-9.873c-0.442-2.965-0.61-6.274-2.511-8.67  c-2.434-3.052-2.972-0.79-3.278,1.92c-0.709-0.875-2.602-2.364-3.413-1.524c-1.79,1.852,2.242,6.409,3.393,8.558  c0.431,0.804-2.621,5.216-2.983,6.026c-1.27,2.832-3.003,5.504-5.181,7.612c-3.044,2.944-6.171,4.001-9.871,5.546  c-5.955,2.487-12.562,7.738-16.468,13.181c-3.101,4.32-5.682,9.193-6.198,14.706c-0.493,5.269,1.028,10.721-1.809,15.557  c-2.151,3.668-6.932,6-10.836,6.521c-9.59,1.277-19.322,0.979-28.942,2.217c10.478,4.526,23.052,6.594,34.287,5.299  c2.458-0.283,5.543-0.435,7.859-1.397c2.384-0.991,4.516-2.784,6.174-4.855c1.435-1.791,3.093-5.185,5.347-5.92  c1.657-0.542,5.229,2.292,5.818,3.872c1.086,2.907-3.222,6.223-1.395,8.198c1.152,1.244,6.984-0.145,8.348-0.321  c4.838-0.62,9.645-1.103,14.521-0.755c2.861,0.204,6.208,1.436,9.027,1.197c1.61-0.137,4.526-1.848,3.096-3.701  c-1.471-1.906-5.75-1.789-7.772-1.774c-3.841,0.028-7.691,0.254-11.532,0.356c-2.778,0.073-5.226-0.148-7.92-0.841  c0-3.505-0.157-6.606,1.853-9.588c1.692-2.508,4.061-4.303,5.523-7.063c1.332-2.511,2.139-5.758,2.174-8.663  c0.042-3.412,0.226-6.072,0.836-9.538c2.759,0.271,4.9,0.358,5.339,4.224c0.407,3.581,2.939,6.804,4.752,2.23  c0.64-1.612-0.4-5.071-1.021-6.552c-0.945-2.253-3.949-5.189-5.697-6.788c-0.464-0.451,2.64-5.583,2.897-6.083  c0.718-1.388,1.339-2.803,1.867-4.29c0.326-0.919,1.498-6.577,2.115-6.774c2.345-0.745,3.595-0.403,5.97-0.16  C95.77,27.62,99.337,26.853,99.336,25.294z"/>
</svg>