<svg xmlns="http://www.w3.org/2000/svg" xmlns:xlink="http://www.w3.org/1999/xlink" version="1.1" id="Layer_1" x="0px" y="0px" width="100px" height="100px" viewBox="0 0 100 100" enable-background="new 0 0 100 100" xml:space="preserve">
<path d="M68.104,70.865c1.251,0,2.443-0.238,3.55-0.656c0.111-0.043,0.225-0.076,0.335-0.123c0.092-0.039,0.18-0.086,0.271-0.127  c3.489-1.586,5.927-5.098,5.927-9.174c0-2.051-0.619-3.959-1.676-5.553c-0.063-0.096-0.131-0.184-0.196-0.277  c-0.063-0.088-0.13-0.174-0.196-0.262c-1.843-2.419-4.744-3.989-8.014-3.989c-5.559,0-10.081,4.521-10.081,10.081  c0,0.285-0.114,0.543-0.301,0.727c-0.186,0.188-0.442,0.303-0.728,0.303c-0.568,0-1.029-0.461-1.029-1.029  c0-6.693,5.445-12.138,12.139-12.138c3.033,0,5.803,1.125,7.934,2.971c0.076,0.067,0.15,0.137,0.226,0.204  c0.068,0.063,0.14,0.125,0.208,0.189c-0.699-13.766-7.354-20.482-12.996-23.706c-4.514-2.579-9.063-3.373-11.418-3.619V13.671  c0-2.15-1.424-5.349-5.349-5.349c-3.926,0-5.35,3.199-5.35,5.349v3.704c0,0.909,0.737,1.646,1.646,1.646s1.646-0.737,1.646-1.646  v-3.704c0-0.482,0.148-2.058,2.058-2.058c0.751,0,2.018,0.27,2.058,2.058v11.015c-2.355,0.246-6.905,1.041-11.418,3.619  c-9.514,5.437-12.404,14.955-12.957,22.956c0.074-0.059,0.15-0.112,0.226-0.168s0.147-0.113,0.223-0.167  c1.991-1.428,4.423-2.279,7.056-2.279c6.693,0,12.139,5.445,12.139,12.138c0,0.568-0.46,1.029-1.028,1.029  c-0.285,0-0.542-0.115-0.729-0.303c-0.186-0.186-0.3-0.441-0.3-0.727c0-5.561-4.522-10.081-10.082-10.081  c-2.81,0-5.351,1.157-7.18,3.017c-0.074,0.076-0.143,0.157-0.214,0.235c-0.073,0.079-0.146,0.157-0.217,0.237  c-1.534,1.77-2.47,4.07-2.47,6.592c0,4.479,2.936,8.279,6.984,9.59c0.079,0.025,0.16,0.049,0.242,0.072  c0.1,0.031,0.201,0.053,0.303,0.08c0.816,0.213,1.669,0.338,2.551,0.338c0.284,0,0.542,0.115,0.727,0.303  c0.187,0.186,0.303,0.443,0.303,0.727c0,0.568-0.461,1.027-1.029,1.027c-0.364,0-0.723-0.021-1.078-0.053  c-0.106-0.01-0.213-0.021-0.319-0.033c-0.075-0.008-0.149-0.023-0.224-0.033c2.248,3.418,4.895,6.441,7.515,9.016  c-2.617,0.236-5.351,0.928-7.115,2.6c-0.412,0.391-0.431,1.041-0.039,1.455c0.202,0.213,0.475,0.322,0.747,0.322  c0.253,0,0.508-0.096,0.708-0.283c1.403-1.33,4.008-2.068,7.532-2.135c0.053,0,0.104,0,0.155-0.002  c-1.251,0.412-2.396,1.006-3.289,1.854c-0.413,0.391-0.431,1.041-0.039,1.455c0.201,0.213,0.474,0.32,0.745,0.32  c0.254,0,0.509-0.094,0.708-0.281c0.848-0.805,2.14-1.387,3.801-1.74c4.685,3.953,8.507,6.18,8.606,6.234l0.103,0.061l0.103-0.061  c0.101-0.057,4.103-2.389,8.934-6.516c2.583,0.256,4.533,0.938,5.675,2.021c0.2,0.188,0.454,0.281,0.708,0.281  c0.272,0,0.545-0.107,0.746-0.32c0.391-0.414,0.374-1.064-0.039-1.455c-0.895-0.848-2.039-1.441-3.29-1.854  c0.052,0.002,0.104,0.002,0.155,0.002c3.524,0.066,6.129,0.805,7.533,2.135c0.199,0.188,0.454,0.283,0.709,0.283  c0.271,0,0.544-0.109,0.745-0.322c0.392-0.414,0.373-1.064-0.039-1.455c-2.246-2.127-6.062-2.672-9.212-2.703  c2.624-2.592,5.266-5.629,7.506-9.062c-0.077,0.016-0.155,0.029-0.232,0.045c-0.107,0.021-0.217,0.031-0.326,0.051  c-0.646,0.105-1.307,0.174-1.982,0.174c-0.567,0-1.027-0.459-1.027-1.027c0-0.283,0.115-0.541,0.301-0.727  C67.562,70.98,67.82,70.865,68.104,70.865z M51.742,83.291c0.088,0,0.174,0.018,0.256,0.045c0.205,0.066,0.381,0.211,0.481,0.412  c0.138,0.279,0.107,0.611-0.081,0.861l-0.497,0.658l-0.833,1.104c-0.156,0.203-0.399,0.326-0.657,0.326s-0.501-0.123-0.657-0.326  l-0.946-1.254l-0.384-0.508c-0.188-0.25-0.221-0.582-0.081-0.861c0.14-0.281,0.425-0.457,0.737-0.457h1.783H51.742z M56.777,70.404  c0,1.277-0.737,2.314-1.646,2.314c-0.908,0-1.645-1.037-1.645-2.314c0-1.279,0.736-2.316,1.645-2.316  C56.04,68.088,56.777,69.125,56.777,70.404z M44.959,68.088c0.909,0,1.646,1.037,1.646,2.316c0,1.277-0.736,2.314-1.646,2.314  s-1.646-1.037-1.646-2.314C43.312,69.125,44.05,68.088,44.959,68.088z"/>
</svg>