<svg xmlns="http://www.w3.org/2000/svg" xmlns:xlink="http://www.w3.org/1999/xlink" version="1.1" x="0px" y="0px" width="100px" height="100px" viewBox="0 0 100 100" enable-background="new 0 0 100 100" xml:space="preserve">
<g id="Captions">
</g>
<g id="Your_Icon">
</g>
<g id="Layer_1">
</g>
<g id="Layer_2">
	<path d="M79.869,76.395c-1.978-0.995-4.218-2.125-4.689-4.603c-0.396-2.087,0.062-4.982,0.504-7.783   c0.465-2.939,0.958-6.091,0.46-8.629c6.022-5.888,9.722-13.795,9.722-22.486C85.865,14.756,69.777,0,50.002,0   C30.225,0,14.135,14.756,14.135,32.894c0,10.195,5.084,19.323,13.049,25.361c-0.053,2.145,0.422,4.605,0.895,7.031   c0.682,3.496,1.386,7.111,0.448,9.413c-0.825,2.027-2.062,2.931-4.009,2.931l0,0c-1.31,0-2.706-0.404-3.939-0.761   c-1.011-0.291-1.884-0.543-2.612-0.543c-1.015,0-1.748,0.531-1.96,1.425c-0.155,0.656-0.146,1.683,0.778,2.853   c1.715,2.167,5.846,3.803,9.607,3.802c5.034,0,8.463-2.687,9.408-7.373c0.379-1.88,0.972-3.663,1.625-5.343   c0.192,1.656,0.436,3.256,0.657,4.703c0.076,0.505,0.15,0.992,0.22,1.457c0.74,5.02-1.639,7.879-3.375,9.967   c-1.145,1.378-2.57,3.091-0.99,4.596c0.784,0.744,1.781,1.138,2.883,1.138c1.653,0,3.401-0.878,4.922-2.471   c2.964-3.107,4.508-8.213,4.235-14.007c-0.188-3.997,1.644-6.672,3.426-8.989c0.836,2.138,1.56,4.566,1.02,7.613   c-2.252,12.719-2.22,20.246,0.099,23.013C51.229,99.554,52.17,100,53.243,100h0.001c0.117,0,0.237-0.005,0.359-0.016   c0.877-0.077,1.637-0.473,2.196-1.143c1.847-2.21,1.397-7.164,0.876-12.901c-0.395-4.327-0.801-8.805-0.094-11.663   c0.542-2.195,1.327-3.868,2.177-5.229c0.433,1.582,0.676,3.443,0.292,5.901c-0.743,4.784,0.483,9.591,3.284,12.86   c1.707,1.994,3.77,3.137,5.66,3.138h0.001c0.823,0,1.576-0.216,2.236-0.638c0.638-0.409,0.852-0.935,0.918-1.304   c0.198-1.09-0.547-2.084-1.576-3.459c-1.565-2.092-3.708-4.957-3.093-8.962c0.235-1.53,0.726-3.305,1.243-5.182   c0.148-0.541,0.302-1.095,0.451-1.658c0.107,0.608,0.2,1.247,0.26,1.958c0.657,7.799,5.747,10.565,9.905,10.565h0.001   c2.286,0,4.044-0.845,4.48-2.154C83.458,78.203,81.551,77.242,79.869,76.395z M49.998,58.724c-9.952,0-16.757-0.582-16.757-7.186   c0-6.608,6.805-7.199,16.757-7.199c9.955,0,16.758,0.591,16.758,7.199C66.756,58.142,59.953,58.724,49.998,58.724z M57.231,48.487   c-1.157,0-2.091,1.328-2.091,2.967c0,1.64,0.934,2.967,2.091,2.967c1.15,0,2.087-1.327,2.087-2.967   C59.318,49.815,58.382,48.487,57.231,48.487z M42.768,48.487c-1.149,0-2.088,1.328-2.088,2.967c0,1.64,0.938,2.967,2.088,2.967   c1.158,0,2.092-1.327,2.092-2.967C44.859,49.815,43.926,48.487,42.768,48.487z"/>
</g>
</svg>