<svg xmlns:dc="http://purl.org/dc/elements/1.1/" xmlns:cc="http://creativecommons.org/ns#" xmlns:rdf="http://www.w3.org/1999/02/22-rdf-syntax-ns#" xmlns:svg="http://www.w3.org/2000/svg" xmlns="http://www.w3.org/2000/svg" xmlns:sodipodi="http://sodipodi.sourceforge.net/DTD/sodipodi-0.dtd" xmlns:inkscape="http://www.inkscape.org/namespaces/inkscape" version="1.1" id="Layer_1" x="0px" y="0px" width="100" height="100" viewBox="0 0 100 100" enable-background="new 0 0 32 32" xml:space="preserve" inkscape:version="0.48.4 r9939" sodipodi:docname="refund.svg"><metadata id="metadata8"><rdf:RDF><cc:Work rdf:about=""><dc:format>image/svg+xml</dc:format><dc:type rdf:resource="http://purl.org/dc/dcmitype/StillImage"/><dc:title/></cc:Work></rdf:RDF></metadata><defs id="defs6"/><sodipodi:namedview pagecolor="#ffffff" bordercolor="#666666" borderopacity="1" objecttolerance="10" gridtolerance="10" guidetolerance="10" inkscape:pageopacity="0" inkscape:pageshadow="2" inkscape:window-width="976" inkscape:window-height="772" id="namedview4" showgrid="false" inkscape:zoom="1.84375" inkscape:cx="35.337045" inkscape:cy="14.599607" inkscape:window-x="0" inkscape:window-y="0" inkscape:window-maximized="0" inkscape:current-layer="Layer_1"/>
<path d="M 62.909092,98.196376 C 89.481433,91.076338 105.41748,63.654677 98.297443,37.082339 91.177407,10.510004 63.632541,-5.3930386 37.0602,1.7269988 10.487862,8.8470354 -5.4151721,36.391907 1.7048637,62.964243 4.4696356,73.282512 10.30417,81.863568 17.970439,88.185213 c 0.02089,0.103449 0.04471,0.14137 0.06602,0.246408 l -6.126593,9.168497 35.49721,2.373099 -15.698521,-31.975439 -5.462237,8.198178 C 21.366667,71.809569 17.589517,66.065178 15.750213,59.200803 10.658666,40.198892 21.82173,20.863897 40.823641,15.772351 c 19.001914,-5.091548 38.336905,6.071517 43.428452,25.073428 5.023703,18.748714 -5.793059,37.834671 -24.3342,43.230376 l 1.602934,14.360155 c 0.458093,-0.109039 0.930621,-0.117309 1.388265,-0.239934 z" id="path3769" inkscape:connector-curvature="0" inkscape:export-filename="C:\Users\Toshiba\SkyDrive\GlobeIn website PSD templates\icons\status icons\refund.png" inkscape:export-xdpi="68" inkscape:export-ydpi="68"/>
<path inkscape:connector-curvature="0" id="path3796" style="font-size:14.51330185px;font-style:normal;font-variant:normal;font-weight:normal;font-stretch:normal;text-align:start;line-height:125%;letter-spacing:0px;word-spacing:0px;text-anchor:start;fill:#000000;fill-opacity:1;stroke:none;font-family:Impact;-inkscape-font-specification:Impact" d="m 63.56657,39.729012 -11.940951,0 0,-1.98031 c -1.7e-5,-2.108344 -0.13798,-3.48766 -0.413787,-4.137951 -0.275858,-0.65021 -0.867015,-0.975335 -1.773407,-0.975375 -0.729086,4e-5 -1.275884,0.280823 -1.640403,0.842371 -0.36453,0.561619 -0.546815,1.403987 -0.546801,2.527106 -1.4e-5,1.871966 0.374375,3.182316 1.123157,3.931057 0.729055,0.748802 2.876845,2.206938 6.443386,4.374408 3.034473,1.832549 5.10345,3.236495 6.206932,4.211844 1.103421,0.975399 2.03446,2.354711 2.793115,4.137954 0.758594,1.78328 1.137904,4.00496 1.137938,6.665059 -3.4e-5,4.256192 -1.024666,7.596108 -3.073911,10.019758 -2.049296,2.42366 -5.123204,3.9212 -9.221724,4.492631 l 0,4.492635 -5.497562,0 0,-4.640417 C 43.970401,73.374507 41.182214,72.147904 38.797974,70.009961 36.413721,67.872023 35.221598,64.142941 35.221598,58.82271 l 0,-2.334986 11.940954,0 0,2.926118 c -1.3e-5,3.21185 0.123118,5.206937 0.369451,5.985258 0.246303,0.778333 0.842354,1.167499 1.788188,1.167492 0.807865,6e-6 1.408855,-0.270927 1.802966,-0.812813 0.394058,-0.541867 0.591117,-1.344823 0.591134,-2.408877 -1.7e-5,-2.679806 -0.187227,-4.596071 -0.561582,-5.748803 -0.374413,-1.152695 -1.655198,-2.40886 -3.842382,-3.768491 -3.645349,-2.285705 -6.123195,-3.965515 -7.433535,-5.039439 -1.31036,-1.073866 -2.44337,-2.58619 -3.399036,-4.536967 -0.95567,-1.950717 -1.433505,-4.157624 -1.433505,-6.620726 0,-3.566482 1.009855,-6.364522 3.029575,-8.394133 2.019704,-2.029516 5.049276,-3.280759 9.088716,-3.753716 l 0,-3.812827 5.497566,0 0,3.812827 c 3.684723,0.472957 6.443358,1.70942 8.275906,3.709381 1.83249,2.000052 2.748752,4.763612 2.748783,8.290684 -3.1e-5,0.492649 -0.03962,1.241424 -0.118254,2.246321 z" inkscape:export-filename="C:\Users\Toshiba\SkyDrive\GlobeIn website PSD templates\icons\status icons\refund.png" inkscape:export-xdpi="68" inkscape:export-ydpi="68"/></svg>