<?xml version="1.0" encoding="utf-8"?>
<!-- Generator: Adobe Illustrator 16.0.0, SVG Export Plug-In . SVG Version: 6.00 Build 0)  -->
<!DOCTYPE svg PUBLIC "-//W3C//DTD SVG 1.1//EN" "http://www.w3.org/Graphics/SVG/1.1/DTD/svg11.dtd">
<svg version="1.1" id="Your_Icon" xmlns="http://www.w3.org/2000/svg" xmlns:xlink="http://www.w3.org/1999/xlink" x="0px" y="0px"
	 width="100px" height="98.953px" viewBox="0.859 1.023 100 98.953" enable-background="new 0.859 1.023 100 98.953"
	 xml:space="preserve">
<path d="M64.45,1.023H37.265v25.606H64.45V1.023L64.45,1.023z M44.258,18.443c-2.476,0-4.486-2.008-4.486-4.488
	c0-2.477,2.01-4.486,4.486-4.486c2.479,0,4.487,2.01,4.487,4.486C48.746,16.435,46.737,18.443,44.258,18.443z M57.457,18.443
	c-2.479,0-4.485-2.008-4.485-4.488c0-2.477,2.007-4.486,4.485-4.486s4.487,2.01,4.487,4.486
	C61.944,16.435,59.936,18.443,57.457,18.443z M95.212,57.515c-0.401-8.685-4.126-14.752-8.712-18.343
	c-3.793-2.979-7.954-4.407-11.396-4.913v-3.126h-48.49v3.125c-3.444,0.506-7.608,1.935-11.399,4.915
	c-4.592,3.59-8.311,9.655-8.708,18.339c-3.285,1.152-5.646,4.243-5.646,7.915c0,4.644,3.761,8.413,8.411,8.415v-3.737
	c-2.582-0.003-4.669-2.096-4.678-4.68c0.008-2.585,2.095-4.677,4.678-4.681c2.586,0.004,4.671,2.095,4.677,4.681h3.739
	c-0.004-3.757-2.479-6.902-5.878-7.982c0.435-7.118,3.271-11.364,6.694-14.121c2.59-2.075,5.633-3.203,8.112-3.693v29.249h4.324
	v19.227c-4.894,1.731-8.405,6.388-8.405,11.872h25.214c0-5.486-3.516-10.141-8.405-11.872V68.877h23.034v19.227
	c-4.892,1.731-8.405,6.388-8.405,11.872h25.215c0-5.486-3.514-10.141-8.405-11.872V68.877h4.323V39.63
	c2.477,0.488,5.519,1.616,8.106,3.691c3.425,2.756,6.262,7.001,6.698,14.12c-3.399,1.081-5.882,4.225-5.885,7.984h3.739
	c0.002-2.582,2.095-4.679,4.683-4.682c2.579,0.003,4.669,2.099,4.677,4.682c-0.008,2.58-2.098,4.675-4.677,4.679v3.737
	c4.644-0.003,8.413-3.769,8.413-8.416C100.858,61.749,98.49,58.663,95.212,57.515z M47.242,56.384h-4.822v-4.821h4.822V56.384z
	 M47.242,50.508h-4.822v-4.82h4.822V50.508z M53.267,56.384h-4.818v-4.821h4.818V56.384z M53.267,50.508h-4.818v-4.82h4.818V50.508z
	 M59.294,56.384h-4.825v-4.821h4.825V56.384z M59.294,50.508h-4.825v-4.82h4.825V50.508z M74.857,10.338
	c0-3.781-3.067-6.848-6.847-6.848v13.699C71.79,17.189,74.857,14.121,74.857,10.338z M33.703,17.189V3.491
	c-3.781,0-6.845,3.067-6.845,6.848C26.858,14.121,29.922,17.189,33.703,17.189z"/>
</svg>
