<svg xmlns="http://www.w3.org/2000/svg" version="1.0" width="92.125984252px" height="100px" viewBox="0 0 468 508" preserveAspectRatio="xMidYMid meet">
<metadata>
Created by potrace 1.8, written by Peter Selinger 2001-2007
</metadata>
<g transform="translate(0,508) scale(0.084783,-0.084783)" fill="#000000" stroke="none">
<path d="M5165 5971 c-24 -11 -87 -67 -157 -139 -133 -138 -197 -185 -283 -207 -138 -35 -252 -10 -499 113 -143 71 -179 86 -220 86 -45 1 -52 -2 -72 -32 -29 -42 -39 -120 -30 -236 8 -127 34 -233 116 -482 80 -244 101 -330 103 -424 2 -94 -19 -156 -67 -205 -55 -54 -103 -69 -351 -110 -382 -64 -629 -137 -864 -254 -466 -233 -817 -648 -1036 -1226 -56 -148 -97 -285 -186 -623 -116 -441 -126 -463 -304 -649 -231 -242 -406 -355 -811 -523 -208 -86 -298 -136 -364 -200 -89 -86 -123 -169 -136 -325 -15 -189 91 -343 316 -459 47 -24 114 -52 150 -61 93 -24 170 -10 170 31 0 8 -47 64 -104 125 -145 153 -180 234 -142 334 31 79 168 187 331 260 78 35 537 218 640 256 259 95 372 91 505 -21 l48 -40 978 2 979 3 -3 75 c-9 195 -60 234 -325 249 -75 4 -140 10 -142 13 -9 8 30 100 95 228 116 227 275 443 366 496 41 24 52 26 127 22 94 -5 147 -27 195 -82 40 -46 51 -84 67 -237 10 -93 21 -146 44 -204 114 -295 454 -621 644 -616 65 1 94 21 130 91 32 63 36 134 11 183 -9 18 -61 78 -114 134 -237 246 -310 441 -310 829 0 394 77 683 246 921 24 34 105 128 180 210 239 261 286 362 286 613 -1 145 -11 222 -53 378 -71 269 -47 399 103 567 102 115 111 155 75 346 -40 209 -55 301 -76 484 -27 230 -47 281 -118 311 -44 19 -90 17 -138 -5z"/>
</g>
</svg>