<svg xmlns="http://www.w3.org/2000/svg" xmlns:xlink="http://www.w3.org/1999/xlink" version="1.1" id="Layer_1" x="0px" y="0px" width="99.997px" height="100px" viewBox="0 0 99.997 100" style="enable-background:new 0 0 99.997 100;" xml:space="preserve">
<path style="fill:#231F20;" d="M76.986,83.844c-0.573-39.972-7.046-57.178-26.989-57.178c-19.938,0-26.41,17.206-26.987,57.178  C13.062,75.897,6.665,63.69,6.665,50c0-23.898,19.437-43.335,43.332-43.335S93.332,26.102,93.332,50  C93.332,63.69,86.936,75.897,76.986,83.844 M49.936,66.629c-20.059,0-17.089-24.365-17.089-24.365s3.424-7.721,17.089-7.721  c13.669,0,17.233,7.721,17.233,7.721S69.986,66.629,49.936,66.629 M49.997,0C22.431,0,0,22.431,0,50s22.431,50,49.997,50  c27.569,0,50-22.431,50-50S77.566,0,49.997,0"/>
</svg>